<?xml version="1.0" standalone="no"?>
<!DOCTYPE svg PUBLIC "-//W3C//DTD SVG 1.1//EN" "http://www.w3.org/Graphics/SVG/1.1/DTD/svg11.dtd" >
<svg>
<metadata>
Created by FontForge 20090914 at Thu Apr  3 11:10:16 2014
 By www-data
eurofurence &#194;&#169; 1995..2000 tobias b k&#195;&#182;hler unci@tigerden.com
</metadata>
<defs>
<font id="Eurofurenceitalic" horiz-adv-x="515" >
  <font-face 
    font-family="eurofurence"
    font-weight="500"
    font-style="italic"
    font-stretch="normal"
    units-per-em="2400"
    panose-1="2 15 4 2 2 2 3 9 2 4"
    ascent="1920"
    descent="-480"
    x-height="1050"
    cap-height="1500"
    bbox="-484 -452.001 3386 1952"
    underline-thickness="150"
    underline-position="-150"
    slope="-15"
    unicode-range="U+0020-U+FB06"
  />
<missing-glyph horiz-adv-x="1200" 
d="M150 0v1950h900v-1950h-900zM300 150h600v1650h-600v-1650z" />
    <glyph glyph-name=".notdef" horiz-adv-x="1200" 
d="M150 0v1950h900v-1950h-900zM300 150h600v1650h-600v-1650z" />
    <glyph glyph-name="space" unicode=" " 
 />
    <glyph glyph-name="exclam" unicode="!" horiz-adv-x="450" 
d="M542 1428c0 -7.33301 -1 -14.666 -3 -21.999l-262 -975c-10 -37.333 -33.333 -56 -70 -56c-52 0 -78 24 -78 72c0 7.33301 1 14.666 3 21.999l262 975c10 37.333 33.333 56 70 56c52 0 78 -24 78 -72zM230 123c0 -32.667 -12.667 -61.334 -38 -86.001
s-54.666 -37 -87.999 -37c-28.667 0 -53.167 10.167 -73.5 30.5s-30.5 44.833 -30.5 73.5c0 33.333 12.5 61.833 37.5 85.5s54.167 35.5 87.5 35.5c29.333 0 54.166 -9.66699 74.499 -29s30.5 -43.666 30.5 -72.999z" />
    <glyph glyph-name="quotedbl" unicode="&#x22;" horiz-adv-x="777" 
d="M968 1426c0 -14.667 -4.66797 -29 -14.001 -43l-250 -375c-15.333 -22.667 -35.333 -34 -60 -34c-20.667 0 -39 7.5 -55 22.5s-24 32.5 -24 52.5c0 14.667 4.66699 29 14 43l251 375c15.333 22.667 35.333 34 60 34c20.667 0 38.834 -7.5 54.501 -22.5
s23.5 -32.5 23.5 -52.5zM592.999 1426c0 -14.667 -4.66797 -29 -14.001 -43l-250 -375c-15.333 -22.667 -35.333 -34 -60 -34c-20.667 0 -39 7.5 -55 22.5s-24 32.5 -24 52.5c0 14.667 4.66699 29 14 43l251 375c15.333 22.667 35.333 34 60 34
c20.667 0 38.834 -7.5 54.501 -22.5s23.5 -32.5 23.5 -52.5z" />
    <glyph glyph-name="numbersign" unicode="#" horiz-adv-x="1606" 
d="M1674 975c0 -50 -25 -75 -75 -75h-393l-80 -300h352c50 0 75 -25 75 -75s-25 -75 -75 -75h-392l-106 -394c-10 -37.333 -33.333 -56 -70 -56c-52 0 -78 24 -78 72c0 9.33301 32.667 135.333 98 378h-294l-106 -394c-10 -37.333 -33.333 -56 -70 -56c-52 0 -78 24 -78 72
c0 9.33301 32.667 135.333 98 378h-352c-50 0 -75 25 -75 75s25 75 75 75h392l81 300h-352c-50 0 -75 25 -75 75s25 75 75 75h392l106 394c10 37.333 33.333 56 70 56c52 0 78 -24 78 -72c0 -9.33301 -33 -135.333 -99 -378h295l106 394c10 37.333 33.333 56 70 56
c52 0 78 -24 78 -72c0 -9.33301 -33 -135.333 -99 -378h353c50 0 75 -25 75 -75zM1051 900h-295l-80 -300h294z" />
    <glyph glyph-name="dollar" unicode="$" horiz-adv-x="957" 
d="M990 1273c0 -48 -25.999 -72 -77.999 -72c-28.667 0 -52.667 19.333 -72 58c-21.333 44.667 -51 72.334 -89 83.001l-122 -453c82 -19.333 147.167 -60 195.5 -122s72.5 -135.333 72.5 -220c0 -132 -51.667 -252 -155 -360
c-100.667 -105.333 -217.334 -166.333 -350.001 -183l-67 -248c-10 -37.333 -33.333 -56 -70 -56c-52 0 -78 24 -78 72c0 10.667 20.667 90.334 62 239.001c-130 30 -214 106.667 -252 230c-2.66699 8.66699 -4 17 -4 25c0 48 26 72 78 72c27.333 0 54.333 -26 81 -78
c29.333 -56.667 74.333 -91.334 135 -104.001l163 607c-64.667 18.667 -116 53.667 -154 105s-57 111 -57 179c0 108 41.333 206 124 294c80.667 86.667 175 138 283 154l67 249c10 37.333 33.333 56 70 56c52 0 78 -24 78 -72c0 -10.667 -20.667 -91 -62 -241
c100 -28 165.667 -90.667 197 -188c2.66699 -8.66699 4 -17.334 4 -26.001zM592.001 1329c-58 -24 -107.333 -61.334 -148 -112.001c-43.333 -54 -65 -110.667 -65 -170c0 -73.333 33.333 -119.666 100 -138.999zM747.001 546.999c0 110 -52.333 175.667 -157 197l-155 -578
c83.333 26 155.333 74 216 144c64 74.667 96 153.667 96 237z" />
    <glyph glyph-name="percent" unicode="%" horiz-adv-x="1606" 
d="M974 1202c0 -117.333 -48.167 -222 -144.5 -314s-203.5 -138 -321.5 -138c-87.333 0 -160 27.833 -218 83.5s-87 127.167 -87 214.5c0 117.333 48.667 222.333 146 315c95.333 91.333 202 137 320 137c88 0 160.833 -27.833 218.5 -83.5s86.5 -127.167 86.5 -214.5z
M1795 1423c0 -22 -9.66699 -41 -29 -57l-1712 -1350c-14.667 -11.333 -30.334 -17 -47.001 -17c-20 0 -37.667 7.83301 -53 23.5s-23 33.834 -23 54.501c0 22 10 41 30 57l1712 1350c14.667 11.333 30.334 17 47.001 17c20 0 37.5 -7.83301 52.5 -23.5
s22.5 -33.834 22.5 -54.501zM1523 452c0 -117.333 -48.167 -222 -144.5 -314s-203.5 -138 -321.5 -138c-87.333 -0 -160 27.833 -218 83.5s-87 127.167 -87 214.5c0 117.333 48.667 222.333 146 315c95.333 91.333 202 137 320 137c88 0 160.833 -27.833 218.5 -83.5
s86.5 -127.167 86.5 -214.5zM823 1209c0 94 -51.334 141 -154.001 141c-79.333 0 -151.666 -31.667 -216.999 -95s-98 -134.666 -98 -213.999c0 -94 51.333 -141 154 -141c80 0 152.5 31.667 217.5 95s97.5 134.666 97.5 213.999zM1372 459c0 94 -51.334 141 -154.001 141
c-79.333 0 -151.666 -31.667 -216.999 -95s-98 -134.666 -98 -213.999c0 -94 51.333 -141 154 -141c80 0 152.5 31.667 217.5 95s97.5 134.666 97.5 213.999z" />
    <glyph glyph-name="ampersand" unicode="&#x26;" horiz-adv-x="1257" 
d="M1084 74c0 -20 -7.99805 -37.498 -23.998 -52.498s-34 -22.5 -54 -22.5c-24 0 -43.667 10.667 -59 32l-133 182c-120.667 -142 -264.334 -213 -431.001 -213c-104 0 -190.5 33 -259.5 99s-103.5 150.667 -103.5 254c0 102 32.667 198.667 98 290
c60.667 86 139 152.667 235 200c-50 67.333 -75 135.333 -75 204c0 117.333 48.667 222.666 146 315.999c95.333 91.333 202 137 320 137c87.333 0 160.166 -27.833 218.499 -83.5s87.5 -126.834 87.5 -213.501c0 -114 -45.667 -216.667 -137 -308
c-89.333 -88.667 -191.333 -136.667 -306 -144l461 -632c10.667 -14 16 -29 16 -45zM900.002 1203c0 45.333 -14.5 81.166 -43.5 107.499s-66.5 39.5 -112.5 39.5c-76.667 0 -148 -31 -214 -93c-68 -63.333 -102 -133.333 -102 -210c0 -38.667 25 -90 75 -154
c26.667 4.66699 53.667 7 81 7c76.667 0 148.5 31.333 215.5 94s100.5 132.334 100.5 209.001zM722.002 339.002l-279.001 381.001c-74.667 -32 -138 -80.667 -190 -146c-55.333 -70.667 -83 -144.334 -83 -221.001c0 -62 19.833 -111.333 59.5 -148s90.834 -55 153.501 -55
c134.667 0 247.667 63 339 189z" />
    <glyph glyph-name="quotesingle" unicode="'" horiz-adv-x="402" 
d="M593 1426c0 -14.667 -4.66797 -29 -14.001 -43l-250 -375c-15.333 -22.667 -35.333 -34 -60 -34c-20.667 0 -39 7.5 -55 22.5s-24 32.5 -24 52.5c0 14.667 4.66699 29 14 43l251 375c15.333 22.667 35.333 34 60 34c20.667 0 38.834 -7.5 54.501 -22.5
s23.5 -32.5 23.5 -52.5z" />
    <glyph glyph-name="parenleft" unicode="(" horiz-adv-x="497" 
d="M686 1424c0 -14 -6.33496 -30.001 -19.002 -48.001c-39.333 -48.667 -95.666 -123.667 -168.999 -225c-239.333 -361.333 -359 -725.666 -359 -1093c0 -120.667 20 -257.334 60 -410.001c2.66699 -10 4 -18.333 4 -25c0 -48 -26 -72 -78 -72
c-30.667 0 -53.667 17.667 -69 53c-3.33301 6.66699 -8.66602 25.334 -15.999 56.001c-34 133.333 -51 266 -51 398c0 408 137.667 814.333 413 1219c30.667 46 80.667 111 150 195c19.333 18.667 38 28 56 28c20 0 38 -7.5 54 -22.5s24 -32.833 24 -53.5z" />
    <glyph glyph-name="parenright" unicode=")" horiz-adv-x="497" 
d="M508 992c0 -408 -137.331 -814.001 -411.998 -1218c-30.667 -46.667 -81 -112 -151 -196c-18.667 -18.667 -37.334 -28 -56.001 -28c-20 0 -37.833 7.66699 -53.5 23s-23.5 33 -23.5 53c0 14 6.33301 30.333 19 49c38.667 48.667 95 123.334 169 224.001
c238.667 361.333 358 725.666 358 1093c0 120.667 -20 257.334 -60 410.001c-2.66699 10 -4 18.333 -4 25c0 48 26 72 78 72c30.667 0 53.667 -17.667 69 -53c3.33301 -6.66699 8.66602 -25 15.999 -55c34 -134 51 -267 51 -399z" />
    <glyph glyph-name="asterisk" unicode="*" horiz-adv-x="1150" 
d="M1221 975c0 -50 -22.6699 -75 -68.0029 -75c-4 0 -119.667 6.33301 -347 19l183 -218c10.667 -12.667 16 -27.667 16 -45c0 -20 -8 -37.5 -24 -52.5s-34 -22.5 -54 -22.5c-26 0 -45.667 10.333 -59 31l-148 235l-73 -341c-7.33301 -37.333 -30.666 -56 -69.999 -56
c-52 0 -78 24 -78 72c0 23.333 14 72.666 42 147.999c34.667 93.333 53.334 145.333 56.001 156l-258 -228c-13.333 -12 -29 -18 -47 -18c-20.667 0 -38.5 8 -53.5 24s-22.5 34 -22.5 54c0 24.667 10 44 30 58l287 203c-193.333 -12.667 -290.666 -19 -291.999 -19
c-46.667 0 -70 25 -70 75s22.333 75 67 75c4.66699 0 120.334 -6.33301 347.001 -19l-183 218c-10.667 12.667 -16 27.667 -16 45c0 20 8 37.5 24 52.5s34 22.5 54 22.5c26 0 45.667 -10.667 59 -32l149 -234l72 341c8 37.333 31.333 56 70 56c52 0 78 -24 78 -72
c0 -23.333 -14 -72.666 -42 -147.999c-34.667 -93.333 -53.334 -145.333 -56.001 -156l259 228c12.667 12 28 18 46 18c20.667 0 38.5 -8 53.5 -24s22.5 -34 22.5 -54c0 -24.667 -10 -44 -30 -58l-287 -203c193.333 12.667 291 19 293 19c46.667 0 70 -25 70 -75z" />
    <glyph glyph-name="plus" unicode="+" horiz-adv-x="1150" 
d="M1130 638c0 -50 -25 -75 -75 -75h-392l-106 -395c-10 -37.333 -33.333 -56 -70 -56c-52 0 -78 24.333 -78 73c0 24.667 13.667 85.667 41 183l57 195h-352c-50 0 -75 25 -75 75s25 75 75 75h393l105 394c10 37.333 33.667 56 71 56c51.333 0 77 -24.333 77 -73
c0 -24.667 -13.667 -85.667 -41 -183l-57 -194h352c50 0 75 -25 75 -75z" />
    <glyph glyph-name="comma" unicode="," horiz-adv-x="387" 
d="M214 78c0 -6.66699 -0.99707 -14.002 -2.99707 -22.002c-16.667 -66 -47.834 -132.5 -93.501 -199.5s-95.834 -120.167 -150.501 -159.5c-16 -11.333 -31.667 -17 -47 -17c-20 0 -37.667 7.83301 -53 23.5s-23 33.834 -23 54.501c0 19.333 10 38.333 30 57
c57.333 52.667 96.666 94.334 117.999 125.001c24 34 48.667 85.333 74 154c14 37.333 37.667 56 71 56c51.333 0 77 -24 77 -72z" />
    <glyph glyph-name="hyphen" unicode="-" horiz-adv-x="706" 
d="M653 525c0 -50 -25 -75 -75 -75h-450c-50 0 -75 25 -75 75s25 75 75 75h450c50 0 75 -25 75 -75z" />
    <glyph glyph-name="hyphen" unicode="&#x2010;" horiz-adv-x="706" 
d="M653 525c0 -50 -25 -75 -75 -75h-450c-50 0 -75 25 -75 75s25 75 75 75h450c50 0 75 -25 75 -75z" />
    <glyph glyph-name="period" unicode="." horiz-adv-x="333" 
d="M172 123c0 -32.667 -12.667 -61.334 -38 -86.001s-54.666 -37 -87.999 -37c-28.667 0 -53.334 10.167 -74.001 30.5s-31 44.833 -31 73.5c0 33.333 12.5 61.833 37.5 85.5s54.167 35.5 87.5 35.5c29.333 0 54.333 -9.66699 75 -29s31 -43.666 31 -72.999z" />
    <glyph glyph-name="slash" unicode="/" horiz-adv-x="1152" 
d="M1344 1426c0 -16.667 -5.66699 -32.334 -17 -47.001l-1383 -1801c-15.333 -20 -34.666 -30 -57.999 -30c-20 0 -38 7.5 -54 22.5s-24 32.5 -24 52.5c0 16.667 5.66699 32.334 17 47.001l1383 1801c15.333 20 34.666 30 57.999 30c20 0 38 -7.5 54 -22.5
s24 -32.5 24 -52.5z" />
    <glyph glyph-name="zero" unicode="0" horiz-adv-x="1150" 
d="M1155 816c0 -190 -68.333 -371 -205 -543c-144.667 -182 -310 -273 -496 -273c-124 -0 -223 46.333 -297 139c-68 86 -102 192.667 -102 320c0 190 68.333 371 205 543c144.667 182 310 273 496 273c124 0 223 -46.333 297 -139c68 -86 102 -192.667 102 -320zM1005 816
c0 85.333 -19.667 156.333 -59 213c-45.333 64 -108.666 96 -189.999 96c-143.333 0 -273 -76.667 -389 -230c-108 -142.667 -162 -288 -162 -436c0 -85.333 19.667 -156.333 59 -213c45.333 -64 108.666 -96 189.999 -96c143.333 0 273 76.667 389 230
c108 142.667 162 288 162 436zM681 643c0 -21.333 -8.33301 -40.167 -25 -56.5s-36 -24.5 -58 -24.5c-46 0 -69 22.667 -69 68c0 22 8.16699 40.833 24.5 56.5s35.5 23.5 57.5 23.5c46.667 0 70 -22.333 70 -67z" />
    <glyph glyph-name="one" unicode="1" horiz-adv-x="1150" 
d="M881 1199c0 -3.33301 -2.33301 -13.668 -7 -31.001l-273 -1018c14 0 38.333 0.333008 73 1c31.333 0.666992 55.333 1 72 1c72 0 108 -25.667 108 -77c0 -50 -25 -75 -75 -75h-550c-50 0 -75 25 -75 75s25 75 75 75h217l228 851l-298 -235
c-14.667 -11.333 -30.334 -17 -47.001 -17c-20 0 -37.667 7.83301 -53 23.5s-23 33.834 -23 54.501c0 22 10 41 30 57l466 367c20.667 16.667 39.334 25 56.001 25c20.667 0 38.5 -7.66699 53.5 -23s22.5 -33.333 22.5 -54z" />
    <glyph glyph-name="two" unicode="2" horiz-adv-x="1150" 
d="M1122 922c0 -80 -21.3311 -160.167 -63.998 -240.5s-97.334 -141.833 -164.001 -184.5l-552 -347h491c50 0 75 -25 75 -75s-25 -75 -75 -75h-750c-58 -0 -87 22.333 -87 67c0 28 15.667 51.667 47 71l772 487c44.667 28 82 71 112 129s45 114 45 168
c0 62 -19.833 111.333 -59.5 148s-90.834 55 -153.501 55c-70 0 -139 -21.333 -207 -64c-64.667 -41.333 -115.667 -93.333 -153 -156c-6.66699 -10.667 -21 -43.667 -43 -99c-14.667 -37.333 -38 -56 -70 -56c-52 0 -78 24 -78 72c0 8 1 15.333 3 22
c34 120 103.167 221.833 207.5 305.5s217.833 125.5 340.5 125.5c104 0 190.5 -32.833 259.5 -98.5s103.5 -150.5 103.5 -254.5z" />
    <glyph glyph-name="three" unicode="3" horiz-adv-x="1150" 
d="M1225 1209c0 -26 -14 -49.002 -42 -69.002l-535 -394c98 -13.333 177.333 -54.666 238 -123.999s91 -153.333 91 -252c0 -154 -63.5 -291.667 -190.5 -413s-267.833 -182 -422.5 -182c-88 0 -165 22.333 -231 67c-68.667 46 -116.334 110 -143.001 192
c-2.66699 8 -4 16.333 -4 25c0 48 26 72 78 72c26.667 0 50 -17.667 70 -53c28.667 -52 50.667 -85 66 -99c38.667 -36 93.334 -54 164.001 -54c113.333 0 218.833 46 316.5 138s146.5 194.333 146.5 307c0 70 -22.667 125.833 -68 167.5s-103.333 62.5 -174 62.5
c-58.667 0 -126.167 -20.5 -202.5 -61.5s-117.833 -61.5 -124.5 -61.5c-20 0 -37.5 7.66699 -52.5 23s-22.5 33 -22.5 53c0 24.667 11.667 45.334 35 62.001l692 510h-542c-50 0 -75 25 -75 75s25 75 75 75h770c58 0 87 -22 87 -66z" />
    <glyph glyph-name="four" unicode="4" horiz-adv-x="1150" 
d="M1041 300c0 -50 -24.999 -75 -74.999 -75h-242l-106 -394c-10 -37.333 -33.333 -56 -70 -56c-52 0 -78 24 -78 72c0 7.33301 1 14.666 3 21.999l95 356h-502c-56 0 -84 21.333 -84 64c0 20.667 9.66699 41.334 29 62.001l841 900c21.333 22.667 43.666 34 66.999 34
c43.333 0 65 -24.333 65 -73c0 -10 -1.33301 -20.333 -4 -31l-216 -806h202c50 0 75 -25 75 -75zM757.001 930l-518 -555h369z" />
    <glyph glyph-name="five" unicode="5" horiz-adv-x="1150" 
d="M1251 1200c0 -50 -25.001 -75.002 -75.001 -75.002h-685l-155 -365c88.667 43.333 178.667 65 270 65c120.667 0 220.834 -38 300.501 -114s119.5 -174 119.5 -294c0 -166 -68.5 -314.5 -205.5 -445.5s-289.167 -196.5 -456.5 -196.5c-94 0 -176.667 24 -248 72
c-74 49.333 -125 118 -153 206c-2.66699 8 -4 16.333 -4 25c0 48 26 72 78 72c26.667 0 47.334 -12.333 62.001 -37l31 -70c45.333 -78.667 123.333 -118 234 -118c125.333 0 242 50.833 350 152.5s162 214.834 162 339.501c0 78.667 -25.333 141.334 -76 188.001
s-115.334 70 -194.001 70c-78 0 -150.333 -19 -217 -57c-48.667 -28 -107.334 -75 -176.001 -141c-24.667 -23.333 -47 -35 -67 -35c-45.333 0 -68 23.667 -68 71c0 13.333 2.66699 27 8 41l286 675c4 10 13.833 20.167 29.5 30.5s28.834 15.5 39.501 15.5h735
c50 0 75 -25 75 -75z" />
    <glyph glyph-name="six" unicode="6" horiz-adv-x="1150" 
d="M1340 1425c0 -50 -25.0029 -75 -75.0029 -75c-275.333 0 -527.666 -110.667 -756.999 -332c62.667 21.333 125 32 187 32c120.667 0 220.834 -38 300.501 -114s119.5 -174 119.5 -294c0 -166 -68.5 -314.5 -205.5 -445.5s-288.833 -196.5 -455.5 -196.5
c-120.667 0 -221 38 -301 114s-120 174 -120 294c0 53.333 10 112 30 176c78.667 253.333 232.334 468.333 461.001 645c232.667 180.667 479.667 271 741 271c50 0 75 -25 75 -75zM964.997 642c0 78.667 -25.168 141.334 -75.501 188.001s-115.166 70 -194.499 70
c-125.333 0 -241.333 -50.333 -348 -151c-109.333 -102.667 -164 -216.334 -164 -341.001c0 -78.667 25.333 -141.334 76 -188.001s115.667 -70 195 -70c125.333 0 241.833 50.833 349.5 152.5s161.5 214.834 161.5 339.501z" />
    <glyph glyph-name="seven" unicode="7" horiz-adv-x="1150" 
d="M1288 1212c0 -19.333 -8 -39.001 -24 -59.001l-1087 -1350c-16 -19.333 -35 -29 -57 -29c-20 0 -38 7.5 -54 22.5s-24 32.833 -24 53.5c0 16.667 6 32.334 18 47.001l989 1228h-744c-50 0 -75 25 -75 75s25 75 75 75h900c55.333 0 83 -21 83 -63z" />
    <glyph glyph-name="eight" unicode="8" horiz-adv-x="1150" 
d="M1122 1203c0 -76 -22.333 -149 -67 -219c-41.333 -66 -95.666 -120 -162.999 -162c84 -67.333 126 -159 126 -275c0 -141.333 -58.333 -267.833 -175 -379.5s-246 -167.5 -388 -167.5c-104 0 -190.5 33 -259.5 99s-103.5 150.667 -103.5 254c0 102 32.667 199 98 291
c61.333 86 140 152.667 236 200c-50.667 54.667 -76 122.334 -76 203.001c0 118 48.667 223.333 146 316c95.333 91.333 202 137 320 137c87.333 0 160.166 -27.833 218.499 -83.5s87.5 -126.834 87.5 -213.501zM972 1203c0 45.333 -14.5 81.166 -43.5 107.499
s-66.5 39.5 -112.5 39.5c-76.667 0 -148.5 -31.333 -215.5 -94s-100.5 -132.334 -100.5 -209.001c0 -45.333 14.5 -81.166 43.5 -107.499s66.167 -39.5 111.5 -39.5c77.333 0 149.5 31.333 216.5 94s100.5 132.334 100.5 209.001zM868 547c0 62 -19.833 111.333 -59.5 148
s-90.834 55 -153.501 55c-100.667 0 -194.667 -41.167 -282 -123.5s-131 -173.5 -131 -273.5c0 -62 19.833 -111.333 59.5 -148s90.834 -55 153.501 -55c100.667 0 194.667 41.167 282 123.5s131 173.5 131 273.5z" />
    <glyph glyph-name="nine" unicode="9" horiz-adv-x="1150" 
d="M1177 867c0 -53.333 -9.99707 -112 -29.9971 -176c-78.667 -253.333 -232.334 -468.333 -461.001 -645c-232.667 -180.667 -479.667 -271 -741 -271c-50 0 -75 25 -75 75s25 75 75 75c275.333 0 527.666 110.667 756.999 332c-62.667 -21.333 -125 -32 -187 -32
c-120.667 0 -220.334 37.667 -299.001 113c-80.667 76.667 -121 175 -121 295c0 166 69 315 207 447c136 130 287.667 195 455 195c120 0 220 -38 300 -114s120 -174 120 -294zM1027 867c0 78.667 -25.334 141.334 -76.001 188.001s-115.334 70 -194.001 70
c-125.333 0 -241.666 -50.333 -348.999 -151c-108.667 -102.667 -163 -216.334 -163 -341.001c0 -78.667 25.333 -141.334 76 -188.001s115.334 -70 194.001 -70c125.333 0 242 50.833 350 152.5s162 214.834 162 339.501z" />
    <glyph glyph-name="colon" unicode=":" horiz-adv-x="333" 
d="M393 948c0 -32.667 -12.667 -61.334 -38 -86.001s-54.666 -37 -87.999 -37c-28.667 0 -53.334 10.167 -74.001 30.5s-31 44.833 -31 73.5c0 33.333 12.5 61.833 37.5 85.5s54.167 35.5 87.5 35.5c29.333 0 54.333 -9.66699 75 -29s31 -43.666 31 -72.999zM172 123
c0 -32.667 -12.667 -61.334 -38 -86.001s-54.666 -37 -87.999 -37c-28.667 0 -53.334 10.167 -74.001 30.5s-31 44.833 -31 73.5c0 33.333 12.5 61.833 37.5 85.5s54.167 35.5 87.5 35.5c29.333 0 54.333 -9.66699 75 -29s31 -43.666 31 -72.999z" />
    <glyph glyph-name="semicolon" unicode=";" horiz-adv-x="426" 
d="M485 948c0 -32.667 -12.667 -61.334 -38 -86.001s-54.333 -37 -87 -37c-29.333 0 -54.166 10.167 -74.499 30.5s-30.5 44.833 -30.5 73.5c0 33.333 12.5 61.833 37.5 85.5s54.167 35.5 87.5 35.5c29.333 0 54.166 -9.66699 74.499 -29s30.5 -43.666 30.5 -72.999zM214 78
c0 -6.66699 -0.99707 -14.002 -2.99707 -22.002c-16.667 -66 -47.834 -132.5 -93.501 -199.5s-95.834 -120.167 -150.501 -159.5c-16 -11.333 -31.667 -17 -47 -17c-20 0 -37.667 7.83301 -53 23.5s-23 33.834 -23 54.501c0 19.333 10 38.333 30 57
c57.333 52.667 96.666 94.334 117.999 125.001c24 34 48.667 85.333 74 154c14 37.333 37.667 56 71 56c51.333 0 77 -24 77 -72z" />
    <glyph glyph-name="less" unicode="&#x3c;" horiz-adv-x="1150" 
d="M1252 1085c0 -30.667 -15.333 -52.665 -46 -65.998l-885 -390l652 -377c25.333 -14.667 38 -35.334 38 -62.001c0 -20.667 -7.33301 -39 -22 -55s-32 -24 -52 -24c-13.333 0 -26.333 4 -39 12l-767 442c-34 20 -51 44.333 -51 73c0 32 19.667 56.667 59 74l1007 444
c11.333 4.66699 22.333 7 33 7c20 0 37.167 -7.83301 51.5 -23.5s21.5 -33.834 21.5 -54.501z" />
    <glyph glyph-name="equal" unicode="=" horiz-adv-x="1150" 
d="M1170 788c0 -50 -25 -75 -75 -75h-900c-50 0 -75 25 -75 75s25 75 75 75h900c50 0 75 -25 75 -75zM1090 488c0 -50 -25 -75 -75 -75h-900c-50 0 -75 25 -75 75s25 75 75 75h900c50 0 75 -25 75 -75z" />
    <glyph glyph-name="greater" unicode="&#x3e;" horiz-adv-x="1150" 
d="M1130 637c0 -32 -19.3311 -56.6689 -57.998 -74.002l-1008 -444c-10.667 -4.66699 -21.334 -7 -32.001 -7c-20.667 0 -38.167 7.83301 -52.5 23.5s-21.5 33.834 -21.5 54.501c0 30.667 15.333 52.667 46 66l885 390l-651 377c-26 14.667 -39 35.334 -39 62.001
c0 20.667 7.33301 39 22 55s32 24 52 24c13.333 0 26.666 -4 39.999 -12l767 -442c33.333 -20 50 -44.333 50 -73z" />
    <glyph glyph-name="question" unicode="?" horiz-adv-x="856" 
d="M974 1203c0 -117.333 -48.166 -222.165 -144.499 -314.498s-203.5 -138.5 -321.5 -138.5c-40 0 -78.167 -16.833 -114.5 -50.5s-54.5 -70.5 -54.5 -110.5c0 -42.667 23 -64 69 -64c12 0 29 4.33301 51 13s39.333 13 52 13c20 0 37.167 -8 51.5 -24s21.5 -34 21.5 -54
c0 -33.333 -22.333 -59 -67 -77c-34 -14 -70.333 -21 -109 -21c-62.667 0 -114.834 20.167 -156.501 60.5s-62.5 91.5 -62.5 153.5c0 81.333 32.667 153.5 98 216.5s139 94.5 221 94.5c76.667 0 148.5 31.333 215.5 94s100.5 132.334 100.5 209.001
c0 45.333 -14.333 81.166 -43 107.499s-66 39.5 -112 39.5c-52.667 0 -105 -16.333 -157 -49s-91.333 -72.334 -118 -119.001l-36 -84c-16 -32 -38.667 -48 -68 -48c-51.333 0 -77 24 -77 72c0 8 1 15.333 3 22c28 100 85 184.333 171 253s180 103 282 103
c87.333 0 160 -27.833 218 -83.5s87 -126.834 87 -213.501zM433.001 123.001c0 -32.667 -12.8311 -61.334 -38.498 -86.001s-54.834 -37 -87.501 -37c-28.667 0 -53.334 10.167 -74.001 30.5s-31 44.833 -31 73.5c0 33.333 12.5 61.833 37.5 85.5s54.167 35.5 87.5 35.5
c29.333 0 54.333 -9.66699 75 -29s31 -43.666 31 -72.999z" />
    <glyph glyph-name="at" unicode="@" horiz-adv-x="1432" 
d="M1503 1055c0 -182 -75.668 -345.665 -227.001 -490.998c-150 -142.667 -316.333 -214 -499 -214c-93.333 0 -170.833 29.5 -232.5 88.5s-92.5 134.833 -92.5 227.5c0 125.333 52 237.666 156 336.999c102 98 216.333 147 343 147c94 0 171.5 -29.833 232.5 -89.5
s91.5 -135.5 91.5 -227.5c0 -12 -0.666992 -24 -2 -36c53.333 84 80 170 80 258c0 89.333 -29 161.333 -87 216c-57.333 52.667 -131 79 -221 79c-198.667 0 -382 -79.333 -550 -238c-170 -161.333 -255 -340.333 -255 -537c0 -128.667 42 -232 126 -310
c82 -76.667 187.667 -115 317 -115c89.333 0 175 17.333 257 52c54.667 23.333 130.334 66.666 227.001 129.999c18 12 33.667 18 47 18c20.667 0 38.5 -8 53.5 -24s22.5 -34 22.5 -54s-9.66699 -39 -29 -57c-68 -63.333 -158.333 -115.333 -271 -156
c-108.667 -39.333 -211 -59 -307 -59c-171.333 0 -312.333 53 -423 159c-113.333 107.333 -170 246 -170 416c0 238 99.667 452.333 299 643c197.333 188 416 282 656 282c131.333 0 240.333 -41 327 -123c87.333 -84 131 -191.333 131 -322zM1125 834.002
c0 51.333 -16.168 91.833 -48.501 121.5s-74.166 44.5 -125.499 44.5c-85.333 0 -164.333 -34.333 -237 -103c-74.667 -70 -112 -147 -112 -231c0 -51.333 16.333 -91.833 49 -121.5s75 -44.5 127 -44.5c84.667 0 163.667 34.667 237 104s110 146 110 230z" />
    <glyph glyph-name="A" unicode="A" horiz-adv-x="1605" 
d="M1431 72c0 -48 -25.666 -72 -76.999 -72c-38.667 -0 -62.334 19.333 -71.001 58l-92 393c-4.66699 -0.666992 -9.66699 -1 -15 -1h-750c-12 0 -23 2.33301 -33 7l-328 -428c-15.333 -20 -34.666 -30 -57.999 -30c-20 0 -38 7.5 -54 22.5s-24 32.5 -24 52.5
c0 16.667 5.66699 32.334 17 47.001l1028 1338c21.333 28 43.666 42 66.999 42c40.667 0 66.667 -24.333 78 -73l310 -1336c1.33301 -6.66699 2 -13.334 2 -20.001zM1157 600l-152 653l-502 -653h654z" />
    <glyph glyph-name="B" unicode="B" horiz-adv-x="1107" 
d="M1150 1203c0 -76 -22 -148.998 -66 -218.998c-41.333 -66 -96 -120 -164 -162c84.667 -67.333 127 -159 127 -275c0 -142 -58.5 -268.833 -175.5 -380.5s-246.833 -167.5 -389.5 -167.5l-374 1c-50.667 0 -76 23.333 -76 70c0 11.333 60 241.666 180 690.999
c119.333 447.333 181.333 675 186 683c18.667 37.333 42.667 56 72 56h375c87.333 0 160 -27.833 218 -83.5s87 -126.834 87 -213.501zM1000 1203c0 45.333 -14.333 81.166 -43 107.499s-66 39.5 -112 39.5h-317l-121 -450h277c77.333 0 149.333 31.333 216 94
s100 132.334 100 209.001zM897 547.002c0 62 -19.832 111.333 -59.499 148s-90.834 55 -153.501 55h-317l-161 -600l276 -1c101.333 0 195.833 41.167 283.5 123.5s131.5 173.833 131.5 274.5z" />
    <glyph glyph-name="C" unicode="C" horiz-adv-x="1409" 
d="M1545 1227c0 -20.667 -7.99805 -38.5 -23.998 -53.5s-34 -22.5 -54 -22.5c-19.333 0 -39 10.667 -59 32c-8.66699 11.333 -22.334 27.333 -41.001 48c-83.333 79.333 -190.666 119 -321.999 119c-198.667 0 -382 -79.333 -550 -238
c-170 -161.333 -255 -340.333 -255 -537c0 -128.667 42 -232 126 -310c82 -76.667 187.667 -115 317 -115c89.333 0 174.666 17.333 255.999 52c54 22.667 129.667 65.667 227 129c18 12 33.667 18 47 18c20.667 0 38.5 -8 53.5 -24s22.5 -34 22.5 -54
c0 -19.333 -10 -38.333 -30 -57c-64 -62 -154 -113.667 -270 -155c-110 -39.333 -212 -59 -306 -59c-171.333 0 -312.333 53 -423 159c-113.333 107.333 -170 246 -170 416c0 238 99.667 452.333 299 643c197.333 188 416 282 656 282c96 0 186 -18.667 270 -56
c91.333 -40.667 162.666 -98 213.999 -172c10.667 -15.333 16 -30.333 16 -45z" />
    <glyph glyph-name="D" unicode="D" horiz-adv-x="1481" 
d="M1512 925c0 -238 -100.001 -452.333 -300.001 -643c-197.333 -188 -415.666 -282 -654.999 -282h-450c-50.667 -0 -76 23.333 -76 70c0 8 1.33301 16 4 24l361 1350c4 13.333 13.667 26 29 38s30 18 44 18h450c170.667 0 312.167 -53.333 424.5 -160
s168.5 -245 168.5 -415zM1362 925c0 128.667 -41.5 231.667 -124.5 309s-189.167 116 -318.5 116h-393l-321 -1200h352c198 0 381 79.333 549 238c170.667 161.333 256 340.333 256 537z" />
    <glyph glyph-name="E" unicode="E" horiz-adv-x="1107" 
d="M1295 1425c0 -50 -24.999 -75 -74.999 -75h-693l-140 -525h502c50 0 75 -25 75 -75s-25 -75 -75 -75h-543l-140 -525h652c50 0 75 -25 75 -75s-25 -75 -75 -75h-750c-50.667 -0 -76 23.333 -76 70c0 16 60.333 248.333 181 697c118.667 441.333 180 667 184 677
c15.333 37.333 39.666 56 72.999 56h750c50 0 75 -25 75 -75z" />
    <glyph glyph-name="F" unicode="F" horiz-adv-x="1107" 
d="M1295 1425c0 -50 -25 -74.999 -75 -74.999h-693l-140 -525h502c50 0 75 -25 75 -75s-25 -75 -75 -75h-543l-166 -619c-10 -37.333 -33.333 -56 -70 -56c-52 0 -78 24 -78 72c0 15.333 60.667 247.666 182 696.999c118.667 442 179.667 667 183 675
c16 37.333 40.333 56 73 56h750c50 0 75 -25 75 -75z" />
    <glyph glyph-name="G" unicode="G" horiz-adv-x="1459" 
d="M1545 1227c0 -20.667 -7.99902 -38.501 -23.999 -53.501s-34 -22.5 -54 -22.5s-39.667 10.667 -59 32c-8.66699 11.333 -22.334 27.333 -41.001 48c-84.667 79.333 -192 119 -322 119c-198.667 0 -382 -79.333 -550 -238c-170 -161.333 -255 -340.333 -255 -537
c0 -128.667 42 -232 126 -310c82 -76.667 187.667 -115 317 -115c160.667 0 315.334 55.333 464.001 166l121 453c10 37.333 33.667 56 71 56c51.333 0 77 -24 77 -72c0 -17.333 -19.167 -98.5 -57.5 -243.5s-62.833 -230.5 -73.5 -256.5
c-28 -69.333 -117 -130.666 -267 -183.999c-128.667 -46 -240.334 -69 -335.001 -69c-171.333 0 -312.333 53 -423 159c-113.333 107.333 -170 246 -170 416c0 238 99.667 452.333 299 643c197.333 188 416 282 656 282c216.667 0 378 -76 484 -228
c10.667 -15.333 16 -30.333 16 -45z" />
    <glyph glyph-name="H" unicode="H" horiz-adv-x="1357" 
d="M1445 1428c0 -16 -59.3359 -245.999 -178.003 -689.999c-117.333 -436.667 -179.666 -664 -186.999 -682c-14 -37.333 -37.333 -56 -70 -56c-51.333 0 -77 24 -77 72c0 7.33301 1 14.666 3 21.999l155 581h-745l-166 -619c-9.33301 -37.333 -32.666 -56 -69.999 -56
c-51.333 0 -77 24 -77 72c0 16 59.333 246 178 690c117.333 437.333 179.333 664.666 186 681.999c14.667 37.333 38.334 56 71.001 56c51.333 0 77 -24 77 -72c0 -7.33301 -1 -14.666 -3 -21.999l-155 -581h744l166 619c10 37.333 33.667 56 71 56c51.333 0 77 -24 77 -72z
" />
    <glyph glyph-name="I" unicode="I" horiz-adv-x="450" 
d="M544 1428c0 -7.33301 -1 -14.666 -3 -21.999l-361 -1350c-10 -37.333 -33.667 -56 -71 -56c-51.333 0 -77 24 -77 72c0 7.33301 1 14.666 3 21.999l361 1350c10 37.333 33.667 56 71 56c51.333 0 77 -24 77 -72z" />
    <glyph glyph-name="J" unicode="J" horiz-adv-x="580" 
d="M669 1428c0 -7.33301 -0.998047 -14.667 -2.99805 -22l-402 -1500c-26 -98.667 -82.5 -182.667 -169.5 -252s-181.5 -104 -283.5 -104c-68 0 -128 17.667 -180 53c-54 36.667 -91 87 -111 151c-2.66699 8.66699 -4 17 -4 25c0 48 26 72 78 72c26 0 53 -25.167 81 -75.5
s73.333 -75.5 136 -75.5c67.333 0 131.666 24.667 192.999 74c59.333 48 97.666 104.667 114.999 170l402 1500c10 37.333 33.667 56 71 56c51.333 0 77 -24 77 -72z" />
    <glyph glyph-name="K" unicode="K" horiz-adv-x="1182" 
d="M1370 1423c0 -22 -10 -40.999 -30 -56.999l-799 -630l452 -617c10 -14 15 -29 15 -45c0 -20 -7.83301 -37.5 -23.5 -52.5s-33.834 -22.5 -54.501 -22.5c-23.333 0 -42.666 10.667 -57.999 32l-495 675c-7.33301 10.667 -12 21.667 -14 33l-183 -683
c-10 -37.333 -33.667 -56 -71 -56c-51.333 0 -77 24 -77 72c0 7.33301 1 14.666 3 21.999l361 1350c10 37.333 33.667 56 71 56c51.333 0 77 -24 77 -72c0 -7.33301 -1 -14.666 -3 -21.999l-163 -610c4 4.66699 8.33301 9 13 13l856 675c15.333 11.333 31 17 47 17
c20.667 0 38.5 -7.83301 53.5 -23.5s22.5 -33.834 22.5 -54.501z" />
    <glyph glyph-name="L" unicode="L" horiz-adv-x="1106" 
d="M932 75c0 -50 -25 -75.001 -75 -75.001h-750c-50.667 0 -76 23.333 -76 70c0 8 1.33301 16 4 24l361 1350c10 37.333 33.667 56 71 56c51.333 0 77 -24 77 -72c0 -7.33301 -1 -14.666 -3 -21.999l-336 -1256h652c50 0 75 -25 75 -75z" />
    <glyph glyph-name="M" unicode="M" horiz-adv-x="1754" 
d="M1644 1425c0 -2 -0.332031 -4.66797 -0.999023 -8.00098s-1 -5.66602 -1 -6.99902l-61 -1338c-2.66699 -48 -27.667 -72 -75 -72c-51.333 -0 -76.333 24.333 -75 73v5l50 1091l-575 -825c-20.667 -30 -43.667 -45 -69 -45c-43.333 0 -69 26 -77 78l-129 803l-558 -1138
c-14 -28.667 -35.667 -43 -65 -43c-20.667 0 -38.834 7.16699 -54.501 21.5s-23.5 31.833 -23.5 52.5c0 11.333 2.66699 23 8 35l657 1339c17.333 35.333 41 53 71 53c43.333 0 69 -25 77 -75l138 -855l618 888c20 28.667 42.333 43 67 43c52 0 78 -25.333 78 -76z" />
    <glyph glyph-name="N" unicode="N" horiz-adv-x="1505" 
d="M1594 1428c0 -7.33301 -0.999023 -14.666 -2.99902 -21.999l-358 -1337c-12.667 -46.667 -38.334 -70 -77.001 -70c-30 0 -54 18 -72 54l-593 1164l-311 -1161c-10 -37.333 -33.667 -56 -71 -56c-51.333 0 -77 24 -77 72c0 7.33301 1 14.666 3 21.999l358 1337
c12 46.667 37.667 70 77 70c29.333 0 53.333 -18 72 -54l593 -1164l311 1161c10 37.333 33.667 56 71 56c51.333 0 77 -24 77 -72z" />
    <glyph glyph-name="O" unicode="O" horiz-adv-x="1607" 
d="M1638 925c0 -238 -100.001 -452.333 -300.001 -643c-197.333 -188 -415.666 -282 -654.999 -282c-170.667 0 -311.667 53 -423 159c-113.333 107.333 -170 246 -170 416c0 238 99.667 452.333 299 643c197.333 188 416 282 656 282c170.667 0 312.167 -53.333 424.5 -160
s168.5 -245 168.5 -415zM1488 925c0 128.667 -41.5 231.667 -124.5 309s-189.167 116 -318.5 116c-198.667 0 -382 -79.333 -550 -238c-170 -161.333 -255 -340.333 -255 -537c0 -128.667 42 -232 126 -310c82 -76.667 187.667 -115 317 -115c198 0 381 79.333 549 238
c170.667 161.333 256 340.333 256 537z" />
    <glyph glyph-name="P" unicode="P" horiz-adv-x="1106" 
d="M1207 1147c0 -141.333 -59 -268.333 -177 -381c-115.333 -110.667 -244.333 -166 -387 -166h-318l-145 -544c-10 -37.333 -33.667 -56 -71 -56c-51.333 0 -77 24 -77 72c0 10 59.833 239.833 179.5 689.5s181.167 677.167 184.5 682.5c22.667 37.333 47 56 73 56h375
c104 0 190.5 -33 259.5 -99s103.5 -150.667 103.5 -254zM1057 1147c0 62 -19.833 111.333 -59.5 148s-90.834 55 -153.501 55h-318l-160 -600h277c100.667 0 194.834 41.167 282.501 123.5s131.5 173.5 131.5 273.5z" />
    <glyph glyph-name="Q" unicode="Q" horiz-adv-x="1607" 
d="M1638 925c0 -217.333 -85.332 -416.668 -255.999 -598.001c-164.667 -176 -356.334 -281.667 -575.001 -317c24 -98.667 76.667 -175.667 158 -231c76.667 -52.667 167.334 -79 272.001 -79c50 0 75 -25 75 -75s-25 -75 -75 -75c-144.667 0 -269.667 39.333 -375 118
c-110.667 82.667 -179.334 193.334 -206.001 332.001c-165.333 6 -301 62.167 -407 168.5s-159 241.833 -159 406.5c0 238 99.667 452.333 299 643c197.333 188 416 282 656 282c170.667 0 312.167 -53.333 424.5 -160s168.5 -245 168.5 -415zM1488 924.998
c0 128.667 -41.501 231.667 -124.501 309s-189.167 116 -318.5 116c-198.667 0 -382 -79.333 -550 -238c-170 -161.333 -255 -340.333 -255 -537c0 -120.667 37.333 -219.5 112 -296.5s172.334 -119.5 293.001 -127.5c2.66699 149.333 34.667 224 96 224c52 0 78 -24 78 -72
c0 -17.333 -3.33301 -41 -10 -71c-8 -37.333 -12.667 -61.333 -14 -72c179.333 32 338.333 121.333 477 268c144 153.333 216 319 216 497z" />
    <glyph glyph-name="R" unicode="R" horiz-adv-x="1107" 
d="M1207 1147c0 -141.333 -58.332 -267.832 -174.999 -379.499s-246.334 -167.5 -389.001 -167.5h-77l352 -481c10 -14 15 -29 15 -45c0 -20 -7.83301 -37.5 -23.5 -52.5s-33.834 -22.5 -54.501 -22.5c-23.333 0 -42.666 10.667 -57.999 32l-431 588
c-13.333 18 -21 33 -23 45l-163 -608c-10 -37.333 -33.667 -56 -71 -56c-51.333 0 -77 24 -77 72c0 7.33301 1 14.666 3 21.999l360 1346c10.667 40 37 60 79 60h370c104 0 190.5 -33 259.5 -99s103.5 -150.667 103.5 -254zM1057 1147c0 62 -19.833 111.333 -59.5 148
s-90.834 55 -153.501 55h-318l-168 -628c14 18.667 38.667 28 74 28h211c100.667 0 194.834 41.167 282.501 123.5s131.5 173.5 131.5 273.5z" />
    <glyph glyph-name="S" unicode="S" horiz-adv-x="957" 
d="M990 1273c0 -48 -25.999 -72 -77.999 -72c-25.333 0 -52.166 24.833 -80.499 74.5s-73.833 74.5 -136.5 74.5c-76.667 0 -148.5 -31.333 -215.5 -94s-100.5 -132.334 -100.5 -209.001c0 -45.333 14.5 -81.166 43.5 -107.499s66.167 -39.5 111.5 -39.5
c104 0 190.5 -33 259.5 -99s103.5 -150.667 103.5 -254c0 -141.333 -58.333 -267.833 -175 -379.5s-246.334 -167.5 -389.001 -167.5c-176.667 -0 -292 80.333 -346 241c-2.66699 8 -4 16.333 -4 25c0 48 26 72 78 72c26 0 45.333 -10.333 58 -31l29 -62
c38.667 -63.333 100.334 -95 185.001 -95c101.333 0 195.666 41.167 282.999 123.5s131 173.5 131 273.5c0 62 -19.833 111.333 -59.5 148s-90.834 55 -153.501 55c-86.667 0 -159.167 27.833 -217.5 83.5s-87.5 126.834 -87.5 213.501
c0 117.333 48.333 222.666 145 315.999c96 91.333 203 137 321 137c146.667 0 243.667 -67 291 -201c2.66699 -8 4 -16.667 4 -26z" />
    <glyph glyph-name="T" unicode="T" horiz-adv-x="1106" 
d="M1344 1425c0 -50 -25 -74.999 -75 -74.999h-392l-347 -1294c-10 -37.333 -33.333 -56 -70 -56c-52 0 -78 24 -78 72c0 7.33301 1 14.666 3 21.999l336 1256h-352c-50 0 -75 25 -75 75s25 75 75 75h900c50 0 75 -25 75 -75z" />
    <glyph glyph-name="U" unicode="U" horiz-adv-x="1255" 
d="M1394 1428c0 -6.66699 -0.999023 -14.001 -2.99902 -22.001c-89.333 -364.667 -169.666 -664.667 -240.999 -900c-43.333 -142.667 -123.666 -261.667 -240.999 -357c-122.667 -99.333 -256.667 -149 -402 -149c-120.667 0 -220.834 38 -300.501 114
s-119.5 174 -119.5 294c0 44.667 6 90 18 136l241 900c10 37.333 33.667 56 71 56c51.333 0 77 -24 77 -72c0 -7.33301 -1 -14.666 -3 -21.999l-241 -900c-8.66699 -34 -13 -66.667 -13 -98c0 -78.667 25.667 -141.667 77 -189c49.333 -46 113.666 -69 192.999 -69
c111.333 0 214.666 39.333 309.999 118c92 75.333 154.667 167.333 188 276c1.33301 4 58.333 217 171 639l47 174c16 60 24.333 90.333 25 91c14.667 34.667 37.667 52 69 52c51.333 0 77 -24 77 -72z" />
    <glyph glyph-name="V" unicode="V" horiz-adv-x="1555" 
d="M1796 1426c0 -16.667 -5.66895 -32.334 -17.002 -47.001l-1028 -1338c-21.333 -28 -43.666 -42 -66.999 -42c-40 0 -65.667 24.333 -77 73l-310 1336c-2 6.66699 -3 13.334 -3 20.001c0 48 26 72 78 72c38 0 61.667 -19.333 71 -58l277 -1195l940 1224
c16 20 35.333 30 58 30c20.667 0 38.834 -7.5 54.501 -22.5s23.5 -32.5 23.5 -52.5z" />
    <glyph glyph-name="W" unicode="W" horiz-adv-x="2230" 
d="M2471 1426c0 -16.667 -5.66992 -32.334 -17.0029 -47.001l-1028 -1338c-21.333 -28 -43.666 -42 -66.999 -42c-40 0 -65.667 24.333 -77 73l-118 506l-413 -537c-21.333 -28 -43.666 -42 -66.999 -42c-40 0 -65.667 24.333 -77 73l-310 1336
c-2 6.66699 -3 13.334 -3 20.001c0 48 26 72 78 72c38 0 61.667 -19.333 71 -58l277 -1195l400 521l-148 640c-2 6.66699 -3 13.334 -3 20.001c0 48 26 72 78 72c38 0 61.667 -19.333 71 -58l121 -520l421 549c16 20 35.333 30 58 30c20.667 0 38.834 -7.5 54.501 -22.5
s23.5 -32.5 23.5 -52.5c0 -16.667 -5.66699 -32.334 -17 -47.001l-496 -647l112 -485l940 1224c16 20 35.333 30 58 30c20.667 0 38.834 -7.5 54.5 -22.5c15.667 -15 23.5 -32.5 23.5 -52.5z" />
    <glyph glyph-name="X" unicode="X" horiz-adv-x="1308" 
d="M1497 1424c0 -20 -8.33301 -37.667 -25 -53l-666 -637l319 -625c6.66699 -12 10 -24 10 -36c0 -20.667 -8 -38.167 -24 -52.5s-34.333 -21.5 -55 -21.5c-28.667 0 -50 14 -64 42l-299 585l-633 -605c-15.333 -14.667 -32.333 -22 -51 -22c-20 0 -37.833 7.66699 -53.5 23
s-23.5 33.333 -23.5 54c0 20 8.33301 37.667 25 53l665 637l-319 625c-6 12 -9 24 -9 36c0 20.667 8 38.167 24 52.5s34.333 21.5 55 21.5c28.667 0 50 -14 64 -42l298 -585l633 605c16 14.667 33.333 22 52 22c20 0 37.833 -7.66699 53.5 -23s23.5 -33.333 23.5 -54z" />
    <glyph glyph-name="Y" unicode="Y" horiz-adv-x="1256" 
d="M1497 1424c0 -20 -8.33301 -37.666 -25 -52.999l-691 -661l-175 -654c-10 -37.333 -33.333 -56 -70 -56c-52 0 -78 24 -78 72c0 7.33301 1 14.666 3 21.999l173 648l-331 649c-6 12 -9 24 -9 36c0 20.667 8 38.167 24 52.5s34.333 21.5 55 21.5c28.667 0 50 -14 64 -42
l298 -585l633 605c16 14.667 33.333 22 52 22c20 0 37.833 -7.66699 53.5 -23s23.5 -33.333 23.5 -54z" />
    <glyph glyph-name="Z" unicode="Z" horiz-adv-x="1306" 
d="M1495 1424c0 -20 -11.333 -41 -34 -63l-1267 -1211h863c50 0 75 -25 75 -75s-25 -75 -75 -75l-1048 -1c-51.333 0 -77 25.667 -77 77c0 20 11.333 41 34 63l1266 1211h-863c-50 0 -75 25 -75 75s25 75 75 75l1049 1c51.333 0 77 -25.667 77 -77z" />
    <glyph glyph-name="bracketleft" unicode="[" horiz-adv-x="806" 
d="M994 1425c0 -50 -25 -75 -75 -75h-393l-442 -1650h352c50 0 75 -25 75 -75s-25 -75 -75 -75h-450c-50 0 -75 23.333 -75 70c0 8 1 16 3 24l482 1800c4 13.333 13.667 26 29 38s30 18 44 18h450c50 0 75 -25 75 -75z" />
    <glyph glyph-name="backslash" unicode="\" horiz-adv-x="1157" 
d="M863 -379c0 -48 -26 -72 -78 -72c-38 0 -61.667 19.333 -71 58l-417 1801c-2 6.66699 -3 13.334 -3 20.001c0 48 26 72 78 72c38 0 61.667 -19.333 71 -58l417 -1801c2 -6.66699 3 -13.334 3 -20.001z" />
    <glyph glyph-name="bracketright" unicode="]" horiz-adv-x="806" 
d="M895 1430c0 -8 -1 -16 -3 -24l-483 -1800c-3.33301 -13.333 -12.833 -26 -28.5 -38s-30.167 -18 -43.5 -18h-450c-50 0 -75 25 -75 75s25 75 75 75h392l442 1650h-352c-50 0 -75 25 -75 75s25 75 75 75h450c50.667 0 76 -23.333 76 -70z" />
    <glyph glyph-name="asciicircum" unicode="^" horiz-adv-x="856" 
d="M964 1124c0 -20 -7.99902 -37.501 -23.999 -52.501s-34 -22.5 -54 -22.5c-24 0 -43.667 10.667 -59 32l-174 237l-319 -252c-14.667 -11.333 -30.334 -17 -47.001 -17c-20 0 -37.667 7.83301 -53 23.5s-23 33.834 -23 54.501c0 22 10 41 30 57l380 300
c14.667 11.333 30.667 17 48 17c24 0 44 -10.667 60 -32l219 -300c10.667 -14 16 -29 16 -45z" />
    <glyph glyph-name="underscore" unicode="_" horiz-adv-x="1156" 
d="M942 -75c0 -50 -25 -75 -75 -75h-900c-50 0 -75 25 -75 75s25 75 75 75h900c50 0 75 -25 75 -75z" />
    <glyph glyph-name="grave" unicode="`" horiz-adv-x="407" 
d="M494 1048c0 -48.667 -25.334 -73 -76.001 -73c-43.333 0 -67.666 21.667 -72.999 65l-50 375c-0.666992 4 -1 8 -1 12c0 48.667 25.667 73 77 73c42.667 0 67 -21.667 73 -65l49 -375c0.666992 -4 1 -8 1 -12z" />
    <glyph glyph-name="a" unicode="a" horiz-adv-x="1155" 
d="M1097 875c0 -10.667 -34 -144.667 -102 -402c-68.667 -259.333 -107 -398.333 -115 -417c-16.667 -37.333 -40.334 -56 -71.001 -56c-51.333 0 -77 24 -77 72c0 10.667 2.33301 24 7 40c-105.333 -74.667 -216 -112 -332 -112c-110 -0 -200.667 34.333 -272 103
c-73.333 70 -110 159.667 -110 269c0 41.333 5.66699 82 17 122c42.667 154 131.5 285.167 266.5 393.5s281.5 162.5 439.5 162.5c148.667 0 257.334 -40 326.001 -120c15.333 -18 23 -36.333 23 -55zM937 851c-46.667 32.667 -109.668 48.999 -189.001 48.999
c-133.333 0 -261.333 -54.333 -384 -163c-126 -112 -189 -234 -189 -366c0 -67.333 21.667 -121 65 -161s99 -60 167 -60c98 0 188 34 270 102c78 64.667 133 145.334 165 242.001c0.666992 3.33301 32.334 122.333 95.001 357z" />
    <glyph glyph-name="b" unicode="b" horiz-adv-x="1105" 
d="M1080 679c0 -42 -5.66699 -83.001 -17 -123.001c-42 -154 -130 -284.667 -264 -392c-136.667 -109.333 -284 -164 -442 -164c-87.333 0 -160 27.833 -218 83.5s-87 126.834 -87 213.501c0 26 3.33301 49.667 10 71c0 10 19 85.333 57 226l227 850
c10 37.333 33.667 56 71 56c51.333 0 77 -24 77 -72c0 -8.66699 -42.667 -172 -128 -490c105.333 74.667 216 112 332 112c110 0 201.167 -34.667 273.5 -104s108.5 -158.333 108.5 -267zM930 678.999c0 67.333 -21.5 120.999 -64.5 160.999s-98.833 60 -167.5 60
c-96.667 0 -187 -34.333 -271 -103c-81.333 -66.667 -136 -147 -164 -241c-40.667 -140 -61 -226.333 -61 -259c0 -45.333 14.333 -81.166 43 -107.499s66 -39.5 112 -39.5c134.667 0 263 54.667 385 164c125.333 112 188 233.667 188 365z" />
    <glyph glyph-name="c" unicode="c" horiz-adv-x="1025" 
d="M1058 843c0 -20.667 -8.00195 -38.4971 -24.002 -53.4971s-34 -22.5 -54 -22.5c-11.333 0 -43.5 22.167 -96.5 66.5s-114.5 66.5 -184.5 66.5c-125.333 0 -241.666 -50.333 -348.999 -151c-108.667 -102.667 -163 -216.334 -163 -341.001
c0 -78.667 25.333 -141.334 76 -188.001s115.667 -70 195 -70c67.333 0 141.833 22 223.5 66s124.834 66 129.501 66c20 0 37.5 -7.83301 52.5 -23.5s22.5 -33.834 22.5 -54.501c0 -18.667 -10 -37.667 -30 -57c-44 -42.667 -106 -78 -186 -106
c-76 -27.333 -146.667 -41 -212 -41c-120.667 0 -221 38 -301 114s-120 174 -120 294c0 166 69 315 207 447c136 130 287.667 195 455 195c156 0 270.333 -54 343 -162c10.667 -16 16 -31 16 -45z" />
    <glyph glyph-name="d" unicode="d" horiz-adv-x="1155" 
d="M1244 1428c0 -7.33301 -0.998047 -14.667 -2.99805 -22l-361 -1350c-10 -37.333 -33.667 -56 -71 -56c-51.333 0 -77 24 -77 72c0 10.667 2.33301 24 7 40c-105.333 -74.667 -216 -112 -332 -112c-110 -0 -200.667 34.333 -272 103c-73.333 70 -110 159.667 -110 269
c0 44 5.66699 84.667 17 122c45.333 156 133.666 286.667 264.999 392c135.333 109.333 282.333 164 441 164c81.333 0 157.666 -16.667 228.999 -50l119 444c10 37.333 33.667 56 71 56c51.333 0 77 -24 77 -72zM937.002 850.999c-46.667 32.667 -109.669 49 -189.002 49
c-133.333 0 -261.333 -54.333 -384 -163c-126 -112 -189 -234 -189 -366c0 -67.333 21.667 -121 65 -161s99 -60 167 -60c96.667 0 187 34.333 271 103c80.667 66 135.334 146.333 164.001 241c0.666992 2 32.334 121 95.001 357z" />
    <glyph glyph-name="e" unicode="e" horiz-adv-x="916" 
d="M934 820c0 -62.667 -19.168 -121.499 -57.501 -176.499s-86.5 -96.833 -144.5 -125.5l-506 -253c48 -76.667 125.333 -115 232 -115c48.667 0 112.334 14.667 191.001 44c14 5.33301 25.333 8 34 8c20 0 37.167 -7.83301 51.5 -23.5s21.5 -33.834 21.5 -54.501
c0 -42 -41 -74.667 -123 -98c-60 -17.333 -118.333 -26 -175 -26c-120.667 0 -221 38 -301 114s-120 174 -120 294c0 166 69 315 207 447c136 130 287.667 195 455 195c66.667 0 122.5 -21.667 167.5 -65s67.5 -98.333 67.5 -165zM783.999 820.001
c0 53.333 -28.333 80 -85 80c-126 0 -242.333 -50.333 -349 -151c-108 -102.667 -162.333 -216.334 -163 -341.001c162 66.667 279.333 120.334 352 161.001c163.333 91.333 245 175 245 251z" />
    <glyph glyph-name="f" unicode="f" horiz-adv-x="802" 
d="M1027 1364c0 -58.667 -21.999 -87.999 -65.999 -87.999c-16 0 -35.667 12.333 -59 37s-51 37 -83 37c-48.667 0 -93.167 -16.333 -133.5 -49s-66.833 -72.667 -79.5 -120l-35 -131h128c50 0 75 -25 75 -75s-25 -75 -75 -75h-168l-347 -1294
c-10 -37.333 -33.333 -56 -70 -56c-52 0 -78 24 -78 72c0 7.33301 1 14.666 3 21.999l337 1256h-127c-50 0 -75 25 -75 75s25 75 75 75h167l45 169c22 80 66.667 146.833 134 200.5s142 80.5 224 80.5c53.333 0 98.666 -9.33301 135.999 -28c48 -24.667 72 -60.667 72 -108z
" />
    <glyph glyph-name="g" unicode="g" horiz-adv-x="1005" 
d="M1072 975c0 -51.333 -37.335 -76.998 -112.002 -76.998c5.33301 0 -17.334 0.666992 -68.001 2c24 -44 36 -93 36 -147c0 -76 -22.333 -149 -67 -219c-41.333 -66 -95.666 -120 -162.999 -162c84 -67.333 126 -159 126 -275c0 -141.333 -58.333 -267.833 -175 -379.5
s-246 -167.5 -388 -167.5c-104 0 -190.5 33 -259.5 99s-103.5 150.667 -103.5 254c0 115.333 28.667 173 86 173c20 0 37.833 -8 53.5 -24s23.5 -34.333 23.5 -55c0 -10.667 -2.16699 -26.334 -6.5 -47.001s-6.5 -36.334 -6.5 -47.001c0 -62 19.833 -111.333 59.5 -148
s90.834 -55 153.501 -55c100.667 0 194.667 41.167 282 123.5s131 173.5 131 273.5c0 62 -19.833 111.333 -59.5 148s-90.5 55 -152.5 55c-87.333 0 -160.166 27.833 -218.499 83.5s-87.5 126.834 -87.5 213.501c0 117.333 48.667 222.666 146 315.999
c95.333 91.333 202 137 320 137h375c50 0 75 -25 75 -75zM777.998 753.002c0 45.333 -14.5 81.165 -43.5 107.498s-66.5 39.5 -112.5 39.5c-76.667 0 -148 -31 -214 -93c-68 -63.333 -102 -133.333 -102 -210c0 -45.333 14.5 -81.166 43.5 -107.499
s66.167 -39.5 111.5 -39.5c77.333 0 149.5 31.333 216.5 94s100.5 132.334 100.5 209.001z" />
    <glyph glyph-name="h" unicode="h" horiz-adv-x="1005" 
d="M953 753c0 -32 -4.33398 -64.3301 -13.001 -96.9971l-160 -600c-10 -37.333 -33.667 -56 -71 -56c-51.333 0 -77 24 -77 72c0 7.33301 1 14.666 3 21.999l160 600c5.33301 20.667 8 40.334 8 59.001c0 45.333 -14.333 81.166 -43 107.499s-66 39.5 -112 39.5
c-67.333 0 -131 -24.333 -191 -73s-99 -105.667 -117 -171l-160 -600c-10 -37.333 -33.667 -56 -71 -56c-51.333 0 -77 24 -77 72c0 7.33301 1 14.666 3 21.999l361 1350c10 37.333 33.667 56 71 56c51.333 0 77 -24 77 -72c0 -28 -16 -98.667 -48 -212l-66 -227
c70.667 40.667 143.334 61 218.001 61c87.333 0 160 -27.833 218 -83.5s87 -126.834 87 -213.501z" />
    <glyph glyph-name="i" unicode="i" horiz-adv-x="450" 
d="M571 1395c0 -32.667 -12.5 -60.833 -37.5 -84.5s-54.167 -35.5 -87.5 -35.5c-29.333 0 -54.333 9.66699 -75 29s-31 43.666 -31 72.999c0 32.667 12.833 61.334 38.5 86.001s54.834 37 87.501 37c29.333 0 54.166 -10 74.499 -30s30.5 -45 30.5 -75zM421 978.001
c0 -7.33301 -1 -14.666 -3 -21.999l-241 -900c-10 -37.333 -33.667 -56 -71 -56c-51.333 0 -77 24 -77 72c0 7.33301 1 14.666 3 21.999l241 900c10 37.333 33.333 56 70 56c52 0 78 -24 78 -72z" />
    <glyph glyph-name="j" unicode="j" horiz-adv-x="450" 
d="M574 1396c0 -33.333 -12.5 -61.833 -37.5 -85.5s-54.167 -35.5 -87.5 -35.5c-29.333 0 -54.333 9.66699 -75 29s-31 43.666 -31 72.999c0 32.667 12.667 61.334 38 86.001s54.666 37 87.999 37c28.667 0 53.334 -10.167 74.001 -30.5s31 -44.833 31 -73.5zM424 978
c0 -7.33301 -1 -14.667 -3 -22l-302 -1125c-20.667 -78.667 -65.334 -145.167 -134.001 -199.5s-143.334 -81.5 -224.001 -81.5c-92 0 -159 32 -201 96c-10.667 16.667 -16 32 -16 46c0 20 7.83301 37.5 23.5 52.5s33.834 22.5 54.501 22.5c18 0 38 -11.167 60 -33.5
s48.333 -33.5 79 -33.5c46.667 0 90.834 17 132.501 51s68.5 73.667 80.5 119l302 1124c10 37.333 33.333 56 70 56c52 0 78 -24 78 -72z" />
    <glyph glyph-name="k" unicode="k" horiz-adv-x="957" 
d="M1024 973c0 -22 -9.66797 -40.999 -29.001 -56.999l-514 -405l287 -392c10 -14 15 -29 15 -45c0 -20 -7.83301 -37.5 -23.5 -52.5s-33.834 -22.5 -54.501 -22.5c-23.333 0 -42.666 10.667 -57.999 32l-330 450c-8 10.667 -13 21.667 -15 33l-122 -458
c-10 -37.333 -33.667 -56 -71 -56c-51.333 0 -77 24 -77 72c0 7.33301 1 14.666 3 21.999l361 1350c10 37.333 33.667 56 71 56c51.333 0 77 -24 77 -72c0 -7.33301 -1 -14.666 -3 -21.999l-224 -835c4 4.66699 8.66699 9 14 13l571 450c14.667 11.333 30.334 17 47.001 17
c20 0 37.5 -7.83301 52.5 -23.5s22.5 -33.834 22.5 -54.501z" />
    <glyph glyph-name="l" unicode="l" horiz-adv-x="531" 
d="M494 1428c0 -7.33301 -1 -14.666 -3 -21.999l-300 -1122c-4.66699 -16 -7 -30 -7 -42c0 -48.667 28.833 -78.667 86.5 -90s86.5 -37 86.5 -77c0 -50 -25 -75 -75 -75c-70.667 0 -129.667 22.667 -177 68s-71 103.333 -71 174c0 25.333 4.33301 53.666 13 84.999l299 1117
c10 37.333 33.667 56 71 56c51.333 0 77 -24 77 -72z" />
    <glyph glyph-name="m" unicode="m" horiz-adv-x="1605" 
d="M1553 753c0 -32 -4.33301 -64.3291 -13 -96.9961l-160 -600c-10 -37.333 -33.667 -56 -71 -56c-51.333 0 -77 24 -77 72c0 7.33301 1 14.666 3 21.999l160 600c5.33301 20.667 8 40.334 8 59.001c0 45.333 -14.333 81.166 -43 107.499s-66 39.5 -112 39.5
c-67.333 0 -131 -24.333 -191 -73s-99 -106 -117 -172l-160 -599c-10 -37.333 -33.667 -56 -71 -56c-51.333 0 -77 24 -77 72c0 7.33301 1 14.666 3 21.999l160 600c5.33301 20.667 8 40.334 8 59.001c0 45.333 -14.333 81.166 -43 107.499s-66 39.5 -112 39.5
c-67.333 0 -131 -24.333 -191 -73s-99 -105.667 -117 -171l-160 -600c-10 -37.333 -33.667 -56 -71 -56c-51.333 0 -77 24 -77 72c0 7.33301 1 14.666 3 21.999l241 900c10 37.333 33.333 56 70 56c47.333 0 73 -21.667 77 -65c72.667 43.333 147.667 65 225 65
c124 0 213.667 -49.333 269 -148c96.667 98.667 207 148 331 148c87.333 0 160 -27.833 218 -83.5s87 -126.834 87 -213.501z" />
    <glyph glyph-name="n" unicode="n" horiz-adv-x="1005" 
d="M953 753c0 -32 -4.33301 -64.3301 -13 -96.9971l-160 -600c-10 -37.333 -33.667 -56 -71 -56c-51.333 0 -77 24 -77 72c0 7.33301 1 14.666 3 21.999l160 600c5.33301 20.667 8 40.334 8 59.001c0 45.333 -14.333 81.166 -43 107.499s-66 39.5 -112 39.5
c-67.333 0 -131 -24.333 -191 -73s-99 -105.667 -117 -171l-160 -600c-10 -37.333 -33.667 -56 -71 -56c-51.333 0 -77 24 -77 72c0 7.33301 1 14.666 3 21.999l241 900c10 37.333 33.333 56 70 56c47.333 0 73 -21.667 77 -65c72.667 43.333 147.667 65 225 65
c87.333 0 160 -27.833 218 -83.5s87 -126.834 87 -213.501z" />
    <glyph glyph-name="o" unicode="o" horiz-adv-x="1156" 
d="M1119 642c0 -166 -68.501 -314.5 -205.501 -445.5s-288.833 -196.5 -455.5 -196.5c-120.667 0 -221 38 -301 114s-120 174 -120 294c0 166 69 315 207 447c136 130 287.667 195 455 195c120.667 0 220.834 -38 300.501 -114s119.5 -174 119.5 -294zM968.999 642
c0 78.667 -25.1689 141.334 -75.502 188.001s-115.166 70 -194.499 70c-125.333 0 -241.666 -50.333 -348.999 -151c-108.667 -102.667 -163 -216.334 -163 -341.001c0 -78.667 25.333 -141.334 76 -188.001s115.667 -70 195 -70c124.667 0 241 50.833 349 152.5
s162 214.834 162 339.501z" />
    <glyph glyph-name="p" unicode="p" horiz-adv-x="1155" 
d="M1130 678c0 -42 -5.33496 -82.666 -16.002 -121.999c-43.333 -154.667 -131.666 -285.334 -264.999 -392.001c-136.667 -109.333 -284 -164 -442 -164c-81.333 0 -157.666 16.667 -228.999 50l-119 -444c-10 -37.333 -33.333 -56 -70 -56c-52 0 -78 24 -78 72
c0 7.33301 20 86.333 60 237l228 853l50 182c4.66699 23.333 13.667 56.666 27 99.999c14.667 37.333 38 56 70 56c52 0 78 -24 78 -72c0 -10 -2.66699 -23.333 -8 -40c105.333 74.667 216 112 332 112c110 0 201.167 -34.667 273.5 -104s108.5 -158.666 108.5 -267.999z
M979.998 679.001c0 67.333 -21.667 120.999 -65 160.999s-99 60 -167 60c-96 0 -186.333 -34.333 -271 -103c-82 -67.333 -136.667 -147.666 -164 -240.999c0 -1.33301 -31.667 -120.333 -95 -357c46 -32.667 109 -49 189 -49c134.667 0 263 54.667 385 164
c125.333 112 188 233.667 188 365z" />
    <glyph glyph-name="q" unicode="q" horiz-adv-x="1155" 
d="M1097 875c0 -4.66699 -2 -14.335 -6 -29.002l-332 -1240c-10 -37.333 -33.333 -56 -70 -56c-52 0 -78 24 -78 72c0 29.333 18.333 108 55 236l73 254c-105.333 -74.667 -216 -112 -332 -112c-110 0 -200.667 34.333 -272 103c-73.333 70 -110 159.667 -110 269
c0 42.667 5.66699 83.334 17 122.001c44 154.667 132.333 285.334 265 392.001c136 109.333 283 164 441 164c150 0 258.667 -40 326 -120c15.333 -18.667 23 -37 23 -55zM937 850.999c-46.667 32.667 -109.668 48.999 -189.001 48.999
c-133.333 0 -261.333 -54.333 -384 -163c-126 -112 -189 -234 -189 -366c0 -67.333 21.667 -121 65 -161s99 -60 167 -60c98 0 188.333 34 271 102c77.333 64.667 132 145.334 164 242.001c0.666992 3.33301 32.334 122.333 95.001 357z" />
    <glyph glyph-name="r" unicode="r" horiz-adv-x="777" 
d="M814 859c0 -48 -25.9971 -71.999 -77.9971 -71.999c-28 0 -51.833 18.833 -71.5 56.5s-50.167 56.5 -91.5 56.5c-46 0 -89.833 -16.833 -131.5 -50.5s-68.834 -73.167 -81.501 -118.5l-180 -675c-10 -37.333 -33.667 -56 -71 -56c-51.333 0 -77 24 -77 72
c0 7.33301 1 14.666 3 21.999l241 900c10 37.333 33.333 56 70 56c32 0 55.333 -13 70 -39c51.333 26 103.666 39 156.999 39c54 0 103.167 -15 147.5 -45s74.166 -70.333 89.499 -121c2.66699 -8.66699 4 -17 4 -25z" />
    <glyph glyph-name="s" unicode="s" horiz-adv-x="764" 
d="M702 879c0 -48 -26.002 -72 -78.002 -72c-27.333 0 -49.333 15.5 -66 46.5s-39.667 46.5 -69 46.5c-40 0 -78.167 -16.833 -114.5 -50.5s-54.5 -70.5 -54.5 -110.5c0 -42.667 23 -64 69 -64c82 0 149.333 -24.667 202 -74s79 -114.333 79 -195
c0 -106 -43 -200.167 -129 -282.5s-182 -123.5 -288 -123.5c-71.333 0 -134.333 23 -189 69c-57.333 48 -86 107 -86 177c0 48.667 25.333 73 76 73c30.667 0 52.334 -14.667 65.001 -44l33 -81c19.333 -29.333 53 -44 101 -44c64.667 0 125.334 26.5 182.001 79.5
s85 111.833 85 176.5c0 71.333 -43.667 111 -131 119c-146 14 -219 85.333 -219 214c0 81.333 32.833 153.5 98.5 216.5s139.167 94.5 220.5 94.5c105.333 0 175 -48.333 209 -145c2.66699 -8 4 -16.667 4 -26z" />
    <glyph glyph-name="t" unicode="t" horiz-adv-x="866" 
d="M774 975c0 -50 -25 -74.999 -75 -74.999h-168l-165 -616c-4 -16 -6 -30 -6 -42c0 -61.333 32.333 -92 97 -92c31.333 0 66 11.167 104 33.5s62.667 33.5 74 33.5c20 0 37.5 -7.83301 52.5 -23.5s22.5 -33.834 22.5 -54.501c0 -38.667 -33.333 -72.667 -100 -102
c-56 -24.667 -107 -37 -153 -37c-70 0 -128.667 22.667 -176 68s-71 103.333 -71 174c0 25.333 4 53.666 12 84.999l154 573h-127c-50 0 -75 25 -75 75s25 75 75 75h167l106 394c10 37.333 33.333 56 70 56c52 0 78 -24 78 -72c0 -29.333 -13.667 -90.666 -41 -183.999
l-58 -194h128c50 0 75 -25 75 -75z" />
    <glyph glyph-name="u" unicode="u" horiz-adv-x="955" 
d="M974 978c0 -7.33301 -0.998047 -14.6689 -2.99805 -22.002l-161 -600c-26.667 -98.667 -83 -182.667 -169 -252c-88 -69.333 -182.667 -104 -284 -104c-87.333 0 -160 27.833 -218 83.5s-87 126.834 -87 213.501c0 32 4.33301 64.333 13 97l161 600
c10 37.333 33.333 56 70 56c52 0 78 -24 78 -72c0 -7.33301 -1 -14.666 -3 -21.999l-161 -600c-5.33301 -20.667 -8 -40.334 -8 -59.001c0 -45.333 14.333 -81.166 43 -107.499s66 -39.5 112 -39.5c67.333 0 131.166 24.333 191.499 73s99.166 105.667 116.499 171l161 600
c10 37.333 33.333 56 70 56c52 0 78 -24 78 -72z" />
    <glyph glyph-name="v" unicode="v" horiz-adv-x="1155" 
d="M1226 976c0 -16.667 -5.66797 -32.334 -17.001 -47.001l-683 -888c-21.333 -28 -43.666 -42 -66.999 -42c-40 0 -65.667 24.333 -77 73l-206 886c-1.33301 6.66699 -2 13.334 -2 20.001c0 48 25.667 72 77 72c38.667 0 62.334 -19.333 71.001 -58l173 -745l595 774
c15.333 20 34.666 30 57.999 30c20 0 38 -7.5 54 -22.5s24 -32.5 24 -52.5z" />
    <glyph glyph-name="w" unicode="w" horiz-adv-x="1755" 
d="M1826 976c0 -16.667 -5.66992 -32.333 -17.0029 -47l-683 -888c-21.333 -28 -43.666 -42 -66.999 -42c-40 0 -65.667 24.333 -77 73l-100 431l-356 -462c-21.333 -28 -43.666 -42 -66.999 -42c-40 0 -65.667 24.333 -77 73l-206 886
c-1.33301 6.66699 -2 13.334 -2 20.001c0 48 25.667 72 77 72c38.667 0 62.334 -19.333 71.001 -58l173 -746l343 446c-42.667 183.333 -64 278.666 -64 285.999c0 48 25.667 72 77 72c38.667 0 62.334 -19.333 71.001 -58l173 -745l595 774c15.333 20 34.666 30 57.999 30
c20 0 38 -7.5 54 -22.5s24 -32.5 24 -52.5z" />
    <glyph glyph-name="x" unicode="x" horiz-adv-x="1008" 
d="M1075 974c0 -20.667 -8.66699 -38.667 -26 -54l-450 -410l225 -398c7.33301 -12.667 11 -25.667 11 -39c0 -20 -8 -37.333 -24 -52s-34.333 -22 -55 -22c-27.333 0 -48.333 13 -63 39l-208 368l-425 -386c-15.333 -14 -32 -21 -50 -21
c-20.667 0 -38.667 7.83301 -54 23.5s-23 33.5 -23 53.5c0 20.667 8.66699 38.667 26 54l450 410l-225 398c-7.33301 12.667 -11 25.667 -11 39c0 20 8 37.333 24 52s34.333 22 55 22c27.333 0 48.333 -13 63 -39l208 -368l425 386c15.333 14 32 21 50 21
c20.667 0 38.667 -7.83301 54 -23.5s23 -33.5 23 -53.5z" />
    <glyph glyph-name="y" unicode="y" horiz-adv-x="1005" 
d="M974 978c0 -7.33301 -0.99707 -14.6689 -2.99707 -22.002l-282 -1050c-26 -99.333 -82.5 -183.5 -169.5 -252.5s-181.5 -103.5 -283.5 -103.5c-66.667 0 -126.334 17.667 -179.001 53c-54.667 36.667 -91.667 86 -111 148c-3.33301 9.33301 -5 18 -5 26c0 48 26 72 78 72
c26 0 53 -24.833 81 -74.5s73.333 -74.5 136 -74.5c68 0 132 24.167 192 72.5s98.667 105.5 116 171.5l32 117c-70.667 -40.667 -143.667 -61 -219 -61c-87.333 0 -160 27.833 -218 83.5s-87 126.834 -87 213.501c0 32 4.33301 64.333 13 97l161 600
c10 37.333 33.333 56 70 56c52 0 78 -24 78 -72c0 -7.33301 -1 -14.666 -3 -21.999l-161 -600c-5.33301 -20.667 -8 -40.334 -8 -59.001c0 -45.333 14.333 -81.166 43 -107.499s66 -39.5 112 -39.5c67.333 0 131.166 24.333 191.499 73s99.166 105.667 116.499 171l161 600
c10 37.333 33.333 56 70 56c52 0 78 -24 78 -72z" />
    <glyph glyph-name="z" unicode="z" horiz-adv-x="1006" 
d="M1074 974c0 -20.667 -11.667 -42 -35 -64l-837 -760h555c50 0 75 -25 75 -75s-25 -75 -75 -75l-748 -1c-51.333 0 -77 25.667 -77 77c0 20.667 11.667 42 35 64l837 760h-555c-50 0 -75 25 -75 75s25 75 75 75l748 1c51.333 0 77 -25.667 77 -77z" />
    <glyph glyph-name="braceleft" unicode="{" horiz-adv-x="706" 
d="M894 1425c0 -50 -24.499 -74.999 -73.499 -74.999s-93 -16.5 -132 -49.5s-66.5 -73.167 -82.5 -120.5c-24.667 -100 -64.667 -250 -120 -450c-28.667 -92.667 -82.667 -165.334 -162 -218.001c34.667 -42.667 52 -94 52 -154c0 -22 -3.66699 -47.667 -11 -77
c-4 -17.333 -30 -98 -78 -242c-32 -96.667 -48 -179 -48 -247c0 -49.333 28.833 -79.5 86.5 -90.5s86.5 -36.5 86.5 -76.5c0 -50 -25 -75 -75 -75c-70.667 0 -129.667 22.667 -177 68s-71 103.333 -71 174c0 22 3.66699 47.667 11 77c4 17.333 29.667 98 77 242
c32.667 96.667 49 179 49 247c0 49.333 -28.833 79.5 -86.5 90.5s-86.5 36.5 -86.5 76.5c0 50 25 75 75 75c48 0 92 17 132 51c38 32 65 71.667 81 119c24.667 100 64.667 250 120 450c24.667 79.333 70.167 145.833 136.5 199.5s140.166 80.5 221.499 80.5
c50 0 75 -25 75 -75z" />
    <glyph glyph-name="bar" unicode="|" horiz-adv-x="450" 
d="M544 1428c0 -7.33301 -1 -14.666 -3 -21.999l-482 -1800c-10 -37.333 -33.333 -56 -70 -56c-52 0 -78 24 -78 72c0 7.33301 1 14.666 3 21.999l482 1800c10 37.333 33.667 56 71 56c51.333 0 77 -24 77 -72z" />
    <glyph glyph-name="braceright" unicode="}" horiz-adv-x="706" 
d="M653 525c0 -50 -24.501 -75.001 -73.501 -75.001s-93 -16.5 -132 -49.5s-66.5 -73.167 -82.5 -120.5c-24.667 -100 -64.667 -250 -120 -450c-24.667 -79.333 -69.667 -145.333 -135 -198c-67.333 -54.667 -141.666 -82 -222.999 -82c-50 0 -75 25 -75 75s25 75 75 75
c48 0 92 17 132 51c38 32 65 71.667 81 119c24.667 100 64.667 250 120 450c28.667 92.667 82.667 165.334 162 218.001c-34.667 42.667 -52 94 -52 154c0 22 3.66699 47.667 11 77c4 17.333 30 98 78 242c32 96.667 48 179 48 247c0 49.333 -28.833 79.5 -86.5 90.5
s-86.5 36.5 -86.5 76.5c0 50 25 75 75 75c70.667 0 129.667 -22.667 177 -68s71 -103.333 71 -174c0 -22 -3.66699 -47.667 -11 -77c-4 -17.333 -29.667 -98 -77 -242c-32.667 -96.667 -49 -179 -49 -247c0 -49.333 28.833 -79.5 86.5 -90.5s86.5 -36.5 86.5 -76.5z" />
    <glyph glyph-name="asciitilde" unicode="~" horiz-adv-x="852" 
d="M802 527c0 -45.333 -31 -83.333 -93 -114c-51.333 -25.333 -102.333 -38 -153 -38c-58.667 0 -112.667 25 -162 75s-82 75 -98 75c-42 0 -76.5 -12.667 -103.5 -38s-48.5 -38 -64.5 -38c-20 0 -38 7.33301 -54 22s-24 32 -24 52c0 45.333 30.667 83.333 92 114
c52 25.333 103.333 38 154 38c58 0 111.833 -25 161.5 -75s82.5 -75 98.5 -75c42 0 76.333 12.667 103 38s48 38 64 38c20.667 0 39 -7.33301 55 -22s24 -32 24 -52z" />
    <glyph glyph-name="exclamdown" unicode="&#xa1;" horiz-adv-x="450" 
d="M450 946c0 -33.333 -12.498 -61.833 -37.498 -85.5s-54.167 -35.5 -87.5 -35.5c-28.667 0 -53.334 9.66699 -74.001 29s-31 43.666 -31 72.999c0 32.667 12.667 61.334 38 86.001s54.666 37 87.999 37c28.667 0 53.167 -10.167 73.5 -30.5s30.5 -44.833 30.5 -73.5z
M321.002 603c0 -7.33301 -1 -14.666 -3 -21.999l-262 -975c-10 -37.333 -33.333 -56 -70 -56c-52 0 -78 24 -78 72c0 7.33301 1 14.666 3 21.999l262 975c10 37.333 33.333 56 70 56c52 0 78 -24 78 -72z" />
    <glyph glyph-name="cent" unicode="&#xa2;" horiz-adv-x="1025" 
d="M1058 843c0 -20.667 -8.00195 -38.5 -24.002 -53.5s-34 -22.5 -54 -22.5c-13.333 0 -41.666 19 -84.999 57c-46 40 -92.667 64 -140 72l-196 -733c48 11.333 116.333 45.333 205 102c18 11.333 33.667 17 47 17c20 0 37.5 -7.83301 52.5 -23.5s22.5 -33.834 22.5 -54.501
c0 -19.333 -9.66699 -38.333 -29 -57c-85.333 -80.667 -199 -128.667 -341 -144l-53 -197c-10 -37.333 -33.333 -56 -70 -56c-52 0 -78 24 -78 72c0 10 15.667 72.333 47 187c-98.667 20 -177.5 66.333 -236.5 139s-88.5 159.334 -88.5 260.001
c0 156.667 62 298.667 186 426c120.667 124.667 259.667 195.667 417 213l53 197c10 37.333 33.667 56 71 56c51.333 0 77 -24 77 -72c0 -10 -15.667 -72.333 -47 -187c116.667 -23.333 199.334 -74.333 248.001 -153c10.667 -17.333 16 -32.333 16 -45zM597.998 887
c-108 -26.667 -202.333 -85 -283 -175c-85.333 -94.667 -128 -196 -128 -304c0 -66.667 19.333 -123 58 -169s90.667 -74.333 156 -85z" />
    <glyph glyph-name="sterling" unicode="&#xa3;" horiz-adv-x="1159" 
d="M1030 1364c0 -58.667 -22.001 -87.999 -66.001 -87.999c-16 0 -35.667 12.333 -59 37s-51 37 -83 37c-113.333 0 -201.666 -100 -264.999 -300h145c50 0 75 -25 75 -75s-25 -75 -75 -75h-185c-10 -41.333 -21 -91.333 -33 -150h137c50 0 75 -25 75 -75s-25 -75 -75 -75
h-167c-21.333 -104.667 -39.666 -183 -54.999 -235c-28 -96.667 -60.333 -168.334 -97 -215.001h609c50 0 75 -25 75 -75s-25 -75 -75 -75h-900c-52.667 0 -79 25 -79 75s26.333 75 79 75c88 0 159 55.667 213 167c28.667 60 57 154.333 85 283h-138c-50 0 -75 25 -75 75
s25 75 75 75h168l31 150h-118c-50 0 -75 25 -75 75s25 75 75 75h155c82 300 220.333 450 415 450c53.333 0 98.666 -9.33301 135.999 -28c48 -24.667 72 -60.667 72 -108z" />
    <glyph glyph-name="currency" unicode="&#xa4;" horiz-adv-x="1158" 
d="M1226 973c0 -22 -10.001 -41 -30.001 -57l-116 -91c26.667 -55.333 40 -116.333 40 -183c0 -166 -69 -314.667 -207 -446c48 -63.333 72 -104 72 -122c0 -20 -8 -37.5 -24 -52.5s-34.333 -22.5 -55 -22.5c-26 0 -63 34.667 -111 104
c-109.333 -68.667 -221.666 -103 -336.999 -103s-212.333 35 -291 105c-87.333 -70.667 -140.333 -106 -159 -106c-20 0 -37.667 7.83301 -53 23.5s-23 33.834 -23 54.501c0 22 10 41 30 57l115 91c-26 55.333 -39 116.333 -39 183c0 166 69 314.667 207 446
c-48 63.333 -72 104 -72 122c0 20 8 37.5 24 52.5s34 22.5 54 22.5c26.667 0 64 -34.667 112 -104c109.333 68.667 221.333 103 336 103c116 0 213.333 -35 292 -105c87.333 70.667 140.333 106 159 106c20 0 37.667 -7.83301 53 -23.5s23 -33.834 23 -54.501zM969.999 642
c0 78.667 -25.334 141.334 -76.001 188.001s-115.667 70 -195 70c-124.667 0 -240.667 -50.333 -348 -151c-108.667 -102.667 -163 -216.334 -163 -341.001c0 -78.667 25.333 -141.334 76 -188.001s115.334 -70 194.001 -70c125.333 0 242 50.833 350 152.5
s162 214.834 162 339.501z" />
    <glyph glyph-name="yen" unicode="&#xa5;" horiz-adv-x="1306" 
d="M1497 1424c0 -20 -8.33301 -37.667 -25 -53l-571 -546h113c50 0 75 -25 75 -75s-25 -75 -75 -75h-242l-40 -150h202c50 0 75 -25 75 -75s-25 -75 -75 -75h-243l-85 -319c-10 -37.333 -33.333 -56 -70 -56c-52 0 -78 24 -78 72c0 8.66699 26 109.667 78 303h-202
c-50 0 -75 25 -75 75s25 75 75 75h242l41 150h-203c-50 0 -75 25 -75 75s25 75 75 75h178l-289 566c-6 12 -9 24 -9 36c0 20.667 8 38.167 24 52.5s34.333 21.5 55 21.5c28.667 0 50 -14 64 -42l298 -585l633 605c16 14.667 33.333 22 52 22c20 0 37.833 -7.66699 53.5 -23
s23.5 -33.333 23.5 -54z" />
    <glyph glyph-name="brokenbar" unicode="&#xa6;" horiz-adv-x="453" 
d="M543 1428c0 -7.33301 -1 -14.666 -3 -21.999l-201 -750c-10 -37.333 -33.333 -56 -70 -56c-52 0 -78 24 -78 72c0 7.33301 1 14.666 3 21.999l201 750c10 37.333 33.333 56 70 56c52 0 78 -24 78 -72zM262 378c0 -7.33301 -1 -14.666 -3 -21.999l-201 -750
c-10 -37.333 -33.667 -56 -71 -56c-51.333 0 -77 24 -77 72c0 7.33301 1 14.666 3 21.999l201 750c10 37.333 33.333 56 70 56c52 0 78 -24 78 -72z" />
    <glyph glyph-name="section" unicode="&#xa7;" horiz-adv-x="856" 
d="M965 1271c0 -48 -26.001 -72.001 -78.001 -72.001c-26 0 -53 25.167 -81 75.5s-73.667 75.5 -137 75.5c-76.667 0 -148 -31 -214 -93c-68 -63.333 -102 -133.333 -102 -210c0 -45.333 14.5 -81.166 43.5 -107.499s66.167 -39.5 111.5 -39.5
c87.333 0 160.166 -27.833 218.499 -83.5s87.5 -126.834 87.5 -213.501c0 -78.667 -23.667 -154 -71 -226c-44 -67.333 -101.667 -122 -173 -164c55.333 -55.333 83 -125.333 83 -210c0 -118 -48.167 -223 -144.5 -315s-203.5 -138 -321.5 -138
c-147.333 0 -244.666 68 -291.999 204c-2.66699 7.33301 -4 15.666 -4 24.999c0 48 26 72 78 72c26 0 53 -25.167 81 -75.5s73.667 -75.5 137 -75.5c76.667 0 148.5 31.333 215.5 94s100.5 132.334 100.5 209.001c0 45.333 -14.5 81.166 -43.5 107.499
s-66.167 39.5 -111.5 39.5c-87.333 0 -160.166 27.833 -218.499 83.5s-87.5 126.834 -87.5 213.501c0 78.667 23.667 154 71 226c44.667 67.333 102.667 122 174 164c-56 55.333 -84 125.333 -84 210c0 118 48.667 223.333 146 316c95.333 91.333 202 137 320 137
c148 0 245.333 -68 292 -204c2.66699 -7.33301 4 -15.666 4 -24.999zM663.999 602.999c0 45.333 -14.5 81.165 -43.5 107.498s-66.167 39.5 -111.5 39.5c-77.333 0 -149 -31 -215 -93c-68 -63.333 -102 -133.333 -102 -210c0 -45.333 14.5 -81.166 43.5 -107.499
s66.5 -39.5 112.5 -39.5c76.667 0 148.5 31.333 215.5 94s100.5 132.334 100.5 209.001z" />
    <glyph glyph-name="dieresis" unicode="&#xa8;" horiz-adv-x="780" 
d="M940 1323c0 -33.333 -12.5 -62.168 -37.5 -86.501s-53.833 -36.5 -86.5 -36.5c-29.333 0 -54 9.83301 -74 29.5s-30 43.834 -30 72.501c0 33.333 12.333 62.166 37 86.499s53.667 36.5 87 36.5c28.667 0 53.167 -9.66699 73.5 -29s30.5 -43.666 30.5 -72.999zM490 1323
c0 -33.333 -12.5 -62.168 -37.5 -86.501s-53.833 -36.5 -86.5 -36.5c-29.333 0 -54 9.83301 -74 29.5s-30 43.834 -30 72.501c0 33.333 12.333 62.166 37 86.499s53.667 36.5 87 36.5c28.667 0 53.167 -9.66699 73.5 -29s30.5 -43.666 30.5 -72.999z" />
    <glyph glyph-name="copyright" unicode="&#xa9;" horiz-adv-x="1607" 
d="M1638 925c0 -238 -100.001 -452.333 -300.001 -643c-197.333 -188 -415.666 -282 -654.999 -282c-170.667 0 -311.667 53 -423 159c-113.333 107.333 -170 246 -170 416c0 238 99.667 452.333 299 643c197.333 188 416 282 656 282c170.667 0 312.167 -53.333 424.5 -160
s168.5 -245 168.5 -415zM1488 925c0 128.667 -41.5 231.667 -124.5 309s-189.167 116 -318.5 116c-198.667 0 -382 -79.333 -550 -238c-170 -161.333 -255 -340.333 -255 -537c0 -128.667 42 -232 126 -310c82 -76.667 187.667 -115 317 -115c198 0 381 79.333 549 238
c170.667 161.333 256 340.333 256 537zM1243 988c0 -20 -8.00098 -37.502 -24.001 -52.502s-34.333 -22.5 -55 -22.5c-14 0 -39.667 16.667 -77 50s-81.666 50 -132.999 50c-88.667 0 -171.667 -36.333 -249 -109s-116 -153.334 -116 -242.001
c0 -53.333 17.167 -95.666 51.5 -126.999s78.5 -47 132.5 -47c48 0 102.5 16.667 163.5 50s95.167 50 102.5 50c20 0 37.5 -8 52.5 -24s22.5 -34 22.5 -54c0 -19.333 -9.66699 -38.666 -29 -57.999c-34.667 -33.333 -83.334 -61 -146.001 -83
c-59.333 -20.667 -114.666 -31 -165.999 -31c-95.333 0 -174.833 30.333 -238.5 91s-95.5 138.334 -95.5 233.001c0 130 53.333 246 160 348s225 153 355 153c124.667 0 215.667 -43.333 273 -130c10.667 -16 16 -31 16 -45z" />
    <glyph glyph-name="ordfeminine" unicode="&#xaa;" horiz-adv-x="857" 
d="M1034 1380c0 -9.33301 -23.8301 -104.333 -71.4971 -285s-74.834 -278.667 -81.501 -294c-16.667 -37.333 -40.334 -56 -71.001 -56c-44.667 0 -70.334 20.667 -77.001 62c-72.667 -41.333 -147.667 -62 -225 -62c-86 0 -158.333 26 -217 78
c-61.333 54 -92 123.333 -92 208c0 130.667 60.333 246.667 181 348c115.333 97.333 239.333 146 372 146c55.333 0 112.333 -11.333 171 -34c74 -28 111 -65 111 -111zM804.003 525c0 -50 -25 -75 -75 -75h-600c-50 0 -75 25 -75 75s25 75 75 75h600c50 0 75 -25 75 -75z
M873.003 1351c-32.667 16 -72.999 24 -120.999 24c-90.667 0 -179.334 -34 -266.001 -102c-91.333 -72 -137 -152.333 -137 -241c0 -44 16 -78.333 48 -103c28.667 -22.667 65.667 -34 111 -34c65.333 0 127.833 21.833 187.5 65.5s98.167 96.5 115.5 158.5
c0 0.666992 20.667 78 62 232z" />
    <glyph glyph-name="guillemotleft" unicode="&#xab;" horiz-adv-x="855" 
d="M923 976c0 -16.667 -5.66602 -32.333 -16.999 -47l-324 -422l96 -415c2 -6.66699 3 -13.334 3 -20.001c0 -48 -26 -72 -78 -72c-38 0 -61.667 19.333 -71 58l-101 439c-4 16 -6 25 -6 27c0 16.667 8 35.334 24 56.001l338 441c15.333 20 34.666 30 57.999 30
c20 0 38 -7.5 54 -22.5s24 -32.5 24 -52.5zM548.001 976.001c0 -16.667 -5.66602 -32.333 -16.999 -47l-324 -422l96 -415c2 -6.66699 3 -13.334 3 -20.001c0 -48 -26 -72 -78 -72c-38 -0 -61.667 19.333 -71 58l-101 439c-4 16 -6 25 -6 27c0 16.667 8 35.334 24 56.001
l338 441c15.333 20 34.666 30 57.999 30c20 0 38 -7.5 54 -22.5s24 -32.5 24 -52.5z" />
    <glyph glyph-name="logicalnot" unicode="&#xac;" horiz-adv-x="1150" 
d="M1001 527c0 -6.66699 -2 -16.666 -6 -29.999l-118 -441c-10 -37.333 -33.333 -56 -70 -56c-52 0 -78 24 -78 72c0 7.33301 1 14.666 3 21.999l95 356h-702c-50 0 -75 25 -75 75s25 75 75 75h802c49.333 0 74 -24.333 74 -73z" />
    <glyph glyph-name="minus" unicode="&#xad;" horiz-adv-x="1150" 
d="M1131 641c0 -50 -25 -75 -75 -75h-900c-50 0 -75 25 -75 75s25 75 75 75h900c50 0 75 -25 75 -75z" />
    <glyph glyph-name="minus" unicode="&#x2212;" horiz-adv-x="1150" 
d="M1131 641c0 -50 -25 -75 -75 -75h-900c-50 0 -75 25 -75 75s25 75 75 75h900c50 0 75 -25 75 -75z" />
    <glyph glyph-name="registered" unicode="&#xae;" horiz-adv-x="1607" 
d="M1638 925c0 -238 -100.001 -452.333 -300.001 -643c-197.333 -188 -415.666 -282 -654.999 -282c-170.667 0 -311.667 53 -423 159c-113.333 107.333 -170 246 -170 416c0 238 99.667 452.333 299 643c197.333 188 416 282 656 282c170.667 0 312.167 -53.333 424.5 -160
s168.5 -245 168.5 -415zM1488 925c0 128.667 -41.5 231.667 -124.5 309s-189.167 116 -318.5 116c-198.667 0 -382 -79.333 -550 -238c-170 -161.333 -255 -340.333 -255 -537c0 -128.667 42 -232 126 -310c82 -76.667 187.667 -115 317 -115c198 0 381 79.333 549 238
c170.667 161.333 256 340.333 256 537zM1211 949c0 -76 -28.667 -144.169 -86 -204.502s-124 -95.166 -200 -104.499l134 -183c10.667 -14.667 16 -29.667 16 -45c0 -20.667 -8 -38.5 -24 -53.5s-34.333 -22.5 -55 -22.5c-20 0 -39.333 10.667 -58 32
c-66.667 76.667 -128 157.334 -184 242.001l-58 -217c-10 -37.333 -33.667 -56 -71 -56c-51.333 0 -77 24.333 -77 73c0 6.66699 1 14 3 22l181 675c3.33301 13.333 12.833 26 28.5 38s30.167 18 43.5 18h188c62 0 114 -20.167 156 -60.5s63 -91.5 63 -153.5zM1061 948.998
c0 42.667 -23 64 -69 64h-130l-61 -225h90c40 0 78.333 16.833 115 50.5s55 70.5 55 110.5z" />
    <glyph glyph-name="macron" unicode="&#xaf;" horiz-adv-x="1156" 
d="M1445 1800c0 -50 -25 -75 -75 -75h-900c-50 0 -75 25 -75 75s25 75 75 75h900c50 0 75 -25 75 -75z" />
    <glyph glyph-name="macron" unicode="&#x2c9;" horiz-adv-x="1156" 
d="M1445 1800c0 -50 -25 -75 -75 -75h-900c-50 0 -75 25 -75 75s25 75 75 75h900c50 0 75 -25 75 -75z" />
    <glyph glyph-name="degree" unicode="&#xb0;" horiz-adv-x="856" 
d="M974 1203c0 -118 -48 -223 -144 -315s-203.333 -138 -322 -138c-87.333 0 -160 27.833 -218 83.5s-87 126.834 -87 213.501c0 118 48.167 223 144.5 315s203.5 138 321.5 138c87.333 0 160 -27.833 218 -83.5s87 -126.834 87 -213.501zM824 1203
c0 45.333 -14.333 81.166 -43 107.499s-66 39.5 -112 39.5c-76.667 0 -148.5 -31.333 -215.5 -94s-100.5 -132.334 -100.5 -209.001c0 -45.333 14.5 -81.166 43.5 -107.499s66.167 -39.5 111.5 -39.5c77.333 0 149.333 31.333 216 94s100 132.334 100 209.001z" />
    <glyph glyph-name="plusminus" unicode="&#xb1;" horiz-adv-x="1150" 
d="M1180 825c0 -50 -24.999 -75 -74.999 -75h-392l-106 -394c-10 -37.333 -33.333 -56 -70 -56c-52 0 -78 24 -78 72c0 25.333 14 86.333 42 183l57 195h-353c-50 0 -75 25 -75 75s25 75 75 75h393l106 394c9.33301 37.333 32.666 56 69.999 56c51.333 0 77 -24 77 -72
c0 -25.333 -13.667 -86.333 -41 -183l-57 -195h352c50 0 75 -25 75 -75zM979.001 75c0 -50 -25 -75 -75 -75h-900c-50 0 -75 25 -75 75s25 75 75 75h900c50 0 75 -25 75 -75z" />
    <glyph glyph-name="twosuperior" unicode="&#xb2;" horiz-adv-x="827" 
d="M952 1226c0 -85.333 -29.332 -162.331 -87.999 -230.998c-44.667 -52.667 -112.334 -105.667 -203.001 -159l-223 -123l290 -1c50 0 75 -25 75 -75s-25 -75 -75 -75h-563c-58 0 -87 22.667 -87 68c0 25.333 16.333 49.333 49 72c13.333 9.33301 63 35 149 77
c350.667 170.667 526 319.667 526 447c0 82.667 -48.333 124 -145 124c-49.333 0 -98.833 -14.833 -148.5 -44.5s-85.834 -66.5 -108.501 -110.5l-22 -52c-15.333 -37.333 -38.666 -56 -69.999 -56c-52 0 -78 24.333 -78 73c0 7.33301 1 14.666 3 21.999
c26 91.333 79.5 167.166 160.5 227.499s168.833 90.5 263.5 90.5c82.667 0 152 -24.667 208 -74c58 -51.333 87 -118 87 -200z" />
    <glyph glyph-name="threesuperior" unicode="&#xb3;" horiz-adv-x="840" 
d="M1034 1434c0 -26.667 -14.668 -50.3301 -44.001 -70.9971l-351 -244c66.667 -18.667 119.5 -52.834 158.5 -102.501s58.5 -108.834 58.5 -177.501c0 -116 -50 -218 -150 -306c-96.667 -85.333 -203.667 -128 -321 -128c-68 0 -128.667 16.333 -182 49
c-57.333 35.333 -96.666 83.666 -117.999 144.999c-3.33301 10 -5 19.333 -5 28c0 20.667 7.83301 38 23.5 52s33.834 21 54.501 21c24 0 44 -12.667 60 -38c26 -40 42.333 -63 49 -69c27.333 -25.333 66.666 -38 117.999 -38c76 0 147.667 28 215 84
c70.667 59.333 106 126 106 200c0 46 -16.667 82 -50 108c-30.667 23.333 -69.667 35 -117 35c-42.667 0 -91.667 -14.333 -147 -43s-88 -43 -98 -43c-20 0 -37.333 7.66699 -52 23s-22 33 -22 53c0 25.333 12 46.333 36 63l452 315h-338c-50 0 -75 25 -75 75s25 75 75 75
h577c58 0 87 -22 87 -66z" />
    <glyph glyph-name="acute" unicode="&#xb4;" horiz-adv-x="553" 
d="M743 1422c0 -30.667 -15 -52.667 -45 -66l-340 -150c-11.333 -4.66699 -22.333 -7 -33 -7c-20.667 0 -38 8 -52 24s-21 34.333 -21 55c0 30.667 15 52.667 45 66l340 150c11.333 4.66699 22.333 7 33 7c20 0 37.167 -8 51.5 -24s21.5 -34.333 21.5 -55z" />
    <glyph glyph-name="mu1" unicode="&#xb5;" horiz-adv-x="1055" 
d="M1024 978c0 -7.33301 -0.99707 -14.667 -2.99707 -22l-241 -900c-10 -37.333 -33.667 -56 -71 -56c-46.667 0 -72.334 21.667 -77.001 65c-72.667 -43.333 -147.667 -65 -225 -65c-88.667 -0 -162 28.333 -220 85l-128 -479c-10 -37.333 -33.333 -56 -70 -56
c-52 0 -78 24 -78 72c0 7.33301 1 14.666 3 21.999l362 1350c10 37.333 33.333 56 70 56c52 0 78 -24 78 -72c0 -7.33301 -1 -14.666 -3 -21.999l-161 -600c-5.33301 -20.667 -8 -40.334 -8 -59.001c0 -45.333 14.333 -81.166 43 -107.499s66 -39.5 112 -39.5
c67.333 0 131.166 24.333 191.499 73s99.166 105.667 116.499 171l161 600c10 37.333 33.333 56 70 56c52 0 78 -24 78 -72z" />
    <glyph glyph-name="paragraph" unicode="&#xb6;" horiz-adv-x="1105" 
d="M1195 1430c0 -8 -1.33301 -15.998 -4 -23.998l-361 -1350c-10 -37.333 -33.667 -56 -71 -56c-51.333 0 -77 24 -77 72c0 7.33301 1 14.666 3 21.999l336 1256h-295l-346 -1294c-10 -37.333 -33.667 -56 -71 -56c-51.333 0 -77 24 -77 72c0 7.33301 1 14.666 3 21.999
l179 669c-65.333 18.667 -116.833 53.667 -154.5 105s-56.5 111 -56.5 179c0 116 47.667 220.5 143 313.5s201.333 139.5 318 139.5h455c50.667 0 76 -23.333 76 -70zM565 1329c-57.333 -24 -106.333 -61.334 -147 -112.001c-43.333 -54 -65 -110.667 -65 -170
c0 -73.333 33.333 -119.666 100 -138.999z" />
    <glyph glyph-name="middot" unicode="&#xb7;" horiz-adv-x="1150" 
d="M720 647c0 -33.333 -12.667 -62.168 -38 -86.501s-54.333 -36.5 -87 -36.5c-29.333 0 -54.166 10 -74.499 30s-30.5 44.667 -30.5 74c0 32.667 12.5 61 37.5 85s54.167 36 87.5 36c29.333 0 54.166 -9.66699 74.499 -29s30.5 -43.666 30.5 -72.999z" />
    <glyph glyph-name="cedilla" unicode="&#xb8;" horiz-adv-x="677" 
d="M451 -92c0 -93.333 -37.833 -176.333 -113.5 -249s-160.5 -109 -254.5 -109c-121.333 0 -200.333 55.333 -237 166c-2.66699 8 -4 16.333 -4 25c0 48 26 72 78 72c28 0 51.667 -18.833 71 -56.5s50 -56.5 92 -56.5c52.667 0 102.167 21.667 148.5 65s69.5 91 69.5 143
c0 49.333 -28.833 79.5 -86.5 90.5s-86.5 36.5 -86.5 76.5c0 50 25 75 75 75c70.667 0 129.667 -22.667 177 -68s71 -103.333 71 -174z" />
    <glyph glyph-name="onesuperior" unicode="&#xb9;" horiz-adv-x="630" 
d="M669 1424c0 -3.33301 -2.33301 -13.666 -7 -30.999l-182 -680c42 0 70.333 -2.66699 85 -8c28 -10.667 42 -33.334 42 -68.001c0 -50 -25 -75 -75 -75h-300c-50 0 -75 25 -75 75c0 40.667 20 65 60 73c7.33301 2 43 3 107 3l140 523l-108 -81
c-14 -10.667 -29 -16 -45 -16c-20 0 -37.667 7.83301 -53 23.5s-23 33.834 -23 54.501c0 23.333 10.667 42.666 32 57.999l270 202c21.333 16 40 24 56 24c20.667 0 38.5 -7.66699 53.5 -23s22.5 -33.333 22.5 -54z" />
    <glyph glyph-name="ordmasculine" unicode="&#xba;" horiz-adv-x="932" 
d="M1045 1187c0 -124.667 -53.667 -234.667 -161 -330c-104 -91.333 -219.333 -137 -346 -137c-94.667 0 -174 28.333 -238 85c-66.667 58.667 -100 134.667 -100 228c0 124.667 53.667 234.667 161 330c104 91.333 219.333 137 346 137c94.667 0 174 -28.333 238 -85
c66.667 -58.667 100 -134.667 100 -228zM878 525c0 -50 -25 -75 -75 -75h-675c-50 0 -75 25 -75 75s25 75 75 75h675c50 0 75 -25 75 -75zM895 1187c0 51.333 -18.667 92 -56 122c-34.667 27.333 -78.667 41 -132 41c-84.667 0 -164.334 -31.333 -239.001 -94
c-78.667 -66 -118 -140.333 -118 -223c0 -51.333 18.667 -92 56 -122c34.667 -27.333 78.667 -41 132 -41c84.667 0 164.334 31.333 239.001 94c78.667 66 118 140.333 118 223z" />
    <glyph glyph-name="guillemotright" unicode="&#xbb;" horiz-adv-x="855" 
d="M805 526c0 -16.667 -8 -35.335 -24 -56.002l-338 -441c-16 -20 -35.333 -30 -58 -30c-20.667 0 -38.834 7.5 -54.501 22.5s-23.5 32.5 -23.5 52.5c0 16.667 5.66699 32.334 17 47.001l324 422l-97 415c-1.33301 6.66699 -2 13.334 -2 20.001c0 48 25.667 72 77 72
c38.667 0 62.334 -19.333 71.001 -58l102 -439c4 -16 6 -25 6 -27zM430 525.999c0 -16.667 -8 -35.335 -24 -56.002l-338 -441c-16 -20 -35.333 -30 -58 -30c-20.667 0 -38.834 7.5 -54.501 22.5s-23.5 32.5 -23.5 52.5c0 16.667 5.66699 32.334 17 47.001l324 422l-97 415
c-1.33301 6.66699 -2 13.334 -2 20.001c0 48 25.667 72 77 72c38.667 0 62.334 -19.333 71.001 -58l102 -439c4 -16 6 -25 6 -27z" />
    <glyph glyph-name="onequarter" unicode="&#xbc;" horiz-adv-x="1817" 
d="M2007 1423c0 -22 -10 -41 -30 -57l-1712 -1350c-14.667 -11.333 -30.334 -17 -47.001 -17c-20 0 -37.667 7.83301 -53 23.5s-23 33.834 -23 54.501c0 22 10 41 30 57l1712 1350c14.667 11.333 30.334 17 47.001 17c20 0 37.667 -7.83301 53 -23.5s23 -33.834 23 -54.501z
M1702 232c0 -50 -25 -74.999 -75 -74.999h-167l-70 -259c-10 -37.333 -33.333 -56 -70 -56c-52 0 -78 24.333 -78 73c0 8 21 88.667 63 242h-353c-56 0 -84 21.333 -84 64c0 22 10.333 43.333 31 64l619 630c20.667 21.333 42.667 32 66 32c42.667 0 64 -24 64 -72
c0 -10.667 -1.33301 -21.334 -4 -32.001l-144 -536h127c50 0 75 -25 75 -75zM669 1424c0 -3.33301 -2.33301 -13.666 -7 -30.999l-182 -680c42 0 70.333 -2.66699 85 -8c28 -10.667 42 -33.334 42 -68.001c0 -50 -25 -75 -75 -75h-300c-50 0 -75 25 -75 75
c0 40.667 20 65 60 73c7.33301 2 43 3 107 3l140 523l-108 -81c-14 -10.667 -29 -16 -45 -16c-20 0 -37.667 7.83301 -53 23.5s-23 33.834 -23 54.501c0 23.333 10.667 42.666 32 57.999l270 202c21.333 16 40 24 56 24c20.667 0 38.5 -7.66699 53.5 -23
s22.5 -33.333 22.5 -54zM1425 607.001l-294 -300h214z" />
    <glyph glyph-name="onehalf" unicode="&#xbd;" horiz-adv-x="1968" 
d="M1959 664c0 -85.333 -29.332 -162.668 -87.999 -232.001c-44.667 -52 -112 -104.667 -202 -158l-224 -124h290c50 0 75 -25 75 -75s-25 -75 -75 -75h-562c-58 0 -87 22.667 -87 68c0 24.667 16 48.334 48 71.001c14 10 63.667 35.667 149 77
c350.667 170.667 526 320 526 448c0 82 -48 123 -144 123c-50 0 -99.833 -14.833 -149.5 -44.5s-85.834 -66.167 -108.501 -109.5l-21 -52c-16 -37.333 -39.667 -56 -71 -56c-51.333 0 -77 24 -77 72c0 8 1 15.333 3 22c26 91.333 79.333 167.166 160 227.499
s168.667 90.5 264 90.5c82.667 0 151.667 -24.667 207 -74c58 -51.333 87 -117.666 87 -198.999zM2007 1423c0 -22 -10 -41 -30 -57l-1712 -1350c-14.667 -11.333 -30.334 -17 -47.001 -17c-20 0 -37.667 7.83301 -53 23.5s-23 33.834 -23 54.501c0 22 10 41 30 57
l1712 1350c14.667 11.333 30.334 17 47.001 17c20 0 37.667 -7.83301 53 -23.5s23 -33.834 23 -54.501zM669.001 1424c0 -3.33301 -2.33301 -13.666 -7 -30.999l-182 -680c42 0 70.333 -2.66699 85 -8c28 -10.667 42 -33.334 42 -68.001c0 -50 -25 -75 -75 -75h-300
c-50 0 -75 25 -75 75c0 40.667 20 65 60 73c7.33301 2 43 3 107 3l140 523l-108 -81c-14 -10.667 -29 -16 -45 -16c-20 0 -37.667 7.83301 -53 23.5s-23 33.834 -23 54.501c0 23.333 10.667 42.666 32 57.999l270 202c21.333 16 40 24 56 24
c20.667 0 38.5 -7.66699 53.5 -23s22.5 -33.333 22.5 -54z" />
    <glyph glyph-name="threequarters" unicode="&#xbe;" horiz-adv-x="2022" 
d="M2211 1423c0 -22 -10 -41 -30 -57l-1711 -1350c-15.333 -11.333 -31 -17 -47 -17c-20.667 0 -38.5 7.83301 -53.5 23.5s-22.5 33.834 -22.5 54.501c0 22 10 41 30 57l1711 1350c15.333 11.333 31 17 47 17c20.667 0 38.5 -7.83301 53.5 -23.5s22.5 -33.834 22.5 -54.501z
M1907 232c0 -50 -25 -74.999 -75 -74.999h-168l-69 -259c-10 -37.333 -33.667 -56 -71 -56c-51.333 0 -77 24.333 -77 73c0 8 20.667 88.667 62 242h-352c-56 0 -84 21.333 -84 64c0 22 10 43.333 30 64l619 630c20.667 21.333 42.667 32 66 32c42.667 0 64 -24 64 -72
c0 -10.667 -1.33301 -21.334 -4 -32.001l-143 -536h127c50 0 75 -25 75 -75zM1034 1434c0 -26.667 -14.668 -50.3301 -44.001 -70.9971l-351 -244c66.667 -18.667 119.5 -52.834 158.5 -102.501s58.5 -108.834 58.5 -177.501c0 -116 -50 -218 -150 -306
c-96.667 -85.333 -203.667 -128 -321 -128c-68 0 -128.667 16.333 -182 49c-57.333 35.333 -96.666 83.666 -117.999 144.999c-3.33301 10 -5 19.333 -5 28c0 20.667 7.83301 38 23.5 52s33.834 21 54.501 21c24 0 44 -12.667 60 -38c26 -40 42.333 -63 49 -69
c27.333 -25.333 66.666 -38 117.999 -38c76 0 147.667 28 215 84c70.667 59.333 106 126 106 200c0 46 -16.667 82 -50 108c-30.667 24 -69.667 36 -117 36c-42.667 0 -91.667 -14.5 -147 -43.5s-88 -43.5 -98 -43.5c-20 0 -37.333 7.66699 -52 23s-22 33 -22 53
c0 25.333 12 46.333 36 63l452 315h-338c-50 0 -75 25 -75 75s25 75 75 75h577c58 0 87 -22 87 -66zM1629 607.005l-293 -300h213z" />
    <glyph glyph-name="questiondown" unicode="&#xbf;" horiz-adv-x="856" 
d="M653 946c0 -33.333 -12.5 -61.833 -37.5 -85.5s-54.167 -35.5 -87.5 -35.5c-29.333 0 -54.166 9.66699 -74.499 29s-30.5 43.666 -30.5 72.999c0 32.667 12.667 61.334 38 86.001s54.666 37 87.999 37c28.667 0 53.167 -10.167 73.5 -30.5s30.5 -44.833 30.5 -73.5z
M667 461c0 -81.333 -32.832 -153.501 -98.499 -216.501s-139.167 -94.5 -220.5 -94.5c-77.333 0 -149.333 -31.333 -216 -94s-100 -132.334 -100 -209.001c0 -45.333 14.333 -81.166 43 -107.499s66 -39.5 112 -39.5c52.667 0 105 16.333 157 49s91.333 72.334 118 119.001
l36 84c16 32 38.333 48 67 48c52 0 78 -24 78 -72c0 -8 -1 -15.333 -3 -22c-28.667 -100 -85.334 -184 -170.001 -252c-86.667 -69.333 -181 -104 -283 -104c-87.333 0 -160 27.833 -218 83.5s-87 126.834 -87 213.501c0 117.333 48.333 222.666 145 315.999
c95.333 91.333 202.333 137 321 137c40 0 78.167 16.833 114.5 50.5s54.5 70.5 54.5 110.5c0 42.667 -23 64 -69 64c-12 0 -29.167 -4.33301 -51.5 -13s-39.5 -13 -51.5 -13c-20 0 -37.167 8 -51.5 24s-21.5 34 -21.5 54c0 33.333 22.333 59 67 77c34 14 70.333 21 109 21
c62 0 114 -20.167 156 -60.5s63 -91.5 63 -153.5z" />
    <glyph glyph-name="Agrave" unicode="&#xc0;" horiz-adv-x="1605" 
d="M1364 1727c0 -20 -7.33398 -38 -22.001 -54s-32 -24 -52 -24c-13.333 0 -26.666 3.66699 -39.999 11l-260 150c-25.333 14.667 -38 35.667 -38 63c0 20 7.33301 38 22 54s32 24 52 24c13.333 0 26.333 -3.66699 39 -11l260 -150c26 -14.667 39 -35.667 39 -63zM1431 72
c0 -48 -25.666 -72 -76.999 -72c-38.667 -0 -62.334 19.333 -71.001 58l-92 393c-4.66699 -0.666992 -9.66699 -1 -15 -1h-750c-12 0 -23 2.33301 -33 7l-328 -428c-15.333 -20 -34.666 -30 -57.999 -30c-20 0 -38 7.5 -54 22.5s-24 32.5 -24 52.5
c0 16.667 5.66699 32.334 17 47.001l1028 1338c21.333 28 43.666 42 66.999 42c40.667 0 66.667 -24.333 78 -73l310 -1336c1.33301 -6.66699 2 -13.334 2 -20.001zM1157 600l-152 653l-502 -653h654z" />
    <glyph glyph-name="Aacute" unicode="&#xc1;" horiz-adv-x="1605" 
d="M1404 1872c0 -30.667 -15.334 -52.667 -46.001 -66l-340 -150c-11.333 -4.66699 -22.333 -7 -33 -7c-20 0 -37.167 8 -51.5 24s-21.5 34.333 -21.5 55c0 30.667 15 52.667 45 66l341 150c10.667 4.66699 21.334 7 32.001 7c20.667 0 38.167 -8 52.5 -24
s21.5 -34.333 21.5 -55zM1431 72c0 -48 -25.666 -72 -76.999 -72c-38.667 -0 -62.334 19.333 -71.001 58l-92 393c-4.66699 -0.666992 -9.66699 -1 -15 -1h-750c-12 0 -23 2.33301 -33 7l-328 -428c-15.333 -20 -34.666 -30 -57.999 -30c-20 0 -38 7.5 -54 22.5
s-24 32.5 -24 52.5c0 16.667 5.66699 32.334 17 47.001l1028 1338c21.333 28 43.666 42 66.999 42c40.667 0 66.667 -24.333 78 -73l310 -1336c1.33301 -6.66699 2 -13.334 2 -20.001zM1157 600l-152 653l-502 -653h654z" />
    <glyph glyph-name="Acircumflex" unicode="&#xc2;" horiz-adv-x="1605" 
d="M1424 1727c0 -20.667 -7.66797 -38.833 -23.001 -54.5s-33 -23.5 -53 -23.5c-16.667 0 -32.667 6 -48 18l-145 118l-220 -125c-13.333 -7.33301 -26.333 -11 -39 -11c-20 0 -37.333 8 -52 24s-22 34 -22 54c0 27.333 13 48.333 39 63l259 147c16.667 9.33301 31 14 43 14
c16.667 0 34.334 -7.33301 53.001 -22l179 -146c19.333 -15.333 29 -34 29 -56zM1431 72.001c0 -48 -25.666 -72 -76.999 -72c-38.667 0 -62.334 19.333 -71.001 58l-92 393c-4.66699 -0.666992 -9.66699 -1 -15 -1h-750c-12 0 -23 2.33301 -33 7l-328 -428
c-15.333 -20 -34.666 -30 -57.999 -30c-20 0 -38 7.5 -54 22.5s-24 32.5 -24 52.5c0 16.667 5.66699 32.334 17 47.001l1028 1338c21.333 28 43.666 42 66.999 42c40.667 0 66.667 -24.333 78 -73l310 -1336c1.33301 -6.66699 2 -13.334 2 -20.001zM1157 600.001l-152 653
l-502 -653h654z" />
    <glyph glyph-name="Atilde" unicode="&#xc3;" horiz-adv-x="1605" 
d="M1534 1802c0 -45.333 -31.001 -83.333 -93.001 -114c-51.333 -25.333 -102.333 -38 -153 -38c-58.667 0 -112.667 25 -162 75s-82 75 -98 75c-42 0 -76.5 -12.667 -103.5 -38s-48.5 -38 -64.5 -38c-20 0 -38 7.33301 -54 22s-24 32 -24 52c0 45.333 30.667 83.333 92 114
c52 25.333 103.333 38 154 38c58 0 111.833 -25 161.5 -75s82.5 -75 98.5 -75c42 0 76.333 12.667 103 38s48.334 38 65.001 38c20 0 38 -7.33301 54 -22s24 -32 24 -52zM1431 72c0 -48 -25.666 -72 -76.999 -72c-38.667 -0 -62.334 19.333 -71.001 58l-92 393
c-4.66699 -0.666992 -9.66699 -1 -15 -1h-750c-12 0 -23 2.33301 -33 7l-328 -428c-15.333 -20 -34.666 -30 -57.999 -30c-20 0 -38 7.5 -54 22.5s-24 32.5 -24 52.5c0 16.667 5.66699 32.334 17 47.001l1028 1338c21.333 28 43.666 42 66.999 42
c40.667 0 66.667 -24.333 78 -73l310 -1336c1.33301 -6.66699 2 -13.334 2 -20.001zM1157 600l-152 653l-502 -653h654z" />
    <glyph glyph-name="Adieresis" unicode="&#xc4;" horiz-adv-x="1605" 
d="M1472 1773c0 -33.333 -12.5 -62.168 -37.5 -86.501s-53.833 -36.5 -86.5 -36.5c-28.667 0 -53.167 9.83301 -73.5 29.5s-30.5 43.834 -30.5 72.501c0 33.333 12.333 62.166 37 86.499s53.667 36.5 87 36.5c29.333 0 54 -9.66699 74 -29s30 -43.666 30 -72.999zM1022 1773
c0 -33.333 -12.5 -62.168 -37.5 -86.501s-53.833 -36.5 -86.5 -36.5c-28.667 0 -53.167 9.83301 -73.5 29.5s-30.5 43.834 -30.5 72.501c0 33.333 12.333 62.166 37 86.499s53.667 36.5 87 36.5c29.333 0 54 -9.66699 74 -29s30 -43.666 30 -72.999zM1431 71.9961
c0 -48 -25.666 -72 -76.999 -72c-38.667 0 -62.334 19.333 -71.001 58l-92 393c-4.66699 -0.666992 -9.66699 -1 -15 -1h-750c-12 0 -23 2.33301 -33 7l-328 -428c-15.333 -20 -34.666 -30 -57.999 -30c-20 0 -38 7.5 -54 22.5s-24 32.5 -24 52.5
c0 16.667 5.66699 32.334 17 47.001l1028 1338c21.333 28 43.666 42 66.999 42c40.667 0 66.667 -24.333 78 -73l310 -1336c1.33301 -6.66699 2 -13.334 2 -20.001zM1157 599.996l-152 653l-502 -653h654z" />
    <glyph glyph-name="Aring" unicode="&#xc5;" horiz-adv-x="1605" 
d="M1347 1767c0 -66.667 -26.5 -124.999 -79.5 -174.999s-113.167 -75 -180.5 -75c-52 0 -95.833 16.667 -131.5 50s-53.5 75.666 -53.5 126.999c0 66.667 26.667 125.667 80 177s113.333 77 180 77c52 0 95.833 -17.167 131.5 -51.5s53.5 -77.5 53.5 -129.5zM1431 72.001
c0 -48 -25.666 -72 -76.999 -72c-38.667 0 -62.334 19.333 -71.001 58l-92 393c-4.66699 -0.666992 -9.66699 -1 -15 -1h-750c-12 0 -23 2.33301 -33 7l-328 -428c-15.333 -20 -34.666 -30 -57.999 -30c-20 0 -38 7.5 -54 22.5s-24 32.5 -24 52.5
c0 16.667 5.66699 32.334 17 47.001l1028 1338c21.333 28 43.666 42 66.999 42c40.667 0 66.667 -24.333 78 -73l310 -1336c1.33301 -6.66699 2 -13.334 2 -20.001zM1197 1767c0 20.667 -11.667 31 -35 31c-24.667 0 -49.167 -11 -73.5 -33s-36.5 -45.667 -36.5 -71
c0 -18 11.667 -27 35 -27c26 0 50.833 10.333 74.5 31s35.5 43.667 35.5 69zM1157 600.001l-152 653l-502 -653h654z" />
    <glyph glyph-name="AE" unicode="&#xc6;" horiz-adv-x="1904" 
d="M2093 1425c0 -50 -25 -75.001 -75 -75.001h-693l-141 -525h503c50 0 75 -25 75 -75s-25 -75 -75 -75h-543l-140 -525h652c50 0 75 -25 75 -75s-25 -75 -75 -75h-750c-50.667 0 -76 23.333 -76 70c0 8.66699 33 135.334 99 380.001h-470l-398 -426
c-16 -16.667 -34 -25 -54 -25c-20.667 0 -38.667 7.66699 -54 23s-23 33 -23 53c0 18.667 7 35.667 21 51l1262 1350c15.333 16.667 33.333 25 54 25l751 -1c50 0 75 -25 75 -75zM1118 1155l-519 -555h370z" />
    <glyph glyph-name="Ccedilla" unicode="&#xc7;" horiz-adv-x="1409" 
d="M1545 1227c0 -20.667 -8.00195 -38.501 -24.002 -53.501s-34 -22.5 -54 -22.5c-19.333 0 -39 10.667 -59 32c-9.33301 12 -24.333 29.333 -45 52c-79.333 76.667 -185.333 115 -318 115c-198.667 0 -382 -79.333 -550 -238c-170 -161.333 -255 -340.333 -255 -537
c0 -128.667 42 -232 126 -310c82 -76.667 187.667 -115 317 -115c90.667 0 176 17 256 51c50.667 22 126.334 65.333 227.001 130c18 12 33.667 18 47 18c20.667 0 38.5 -8 53.5 -24s22.5 -34 22.5 -54c0 -41.333 -54.667 -90.666 -164 -147.999
c-83.333 -43.333 -158.333 -74.333 -225 -93c20.667 -36.667 31 -77.334 31 -122.001c0 -93.333 -38 -176.333 -114 -249s-161 -109 -255 -109c-115.333 0 -194 55.333 -236 166c-2.66699 6.66699 -4 15 -4 25c0 48 26 72 78 72c28 0 51.5 -18.833 70.5 -56.5
s49.5 -56.5 91.5 -56.5c52.667 0 102.334 21.667 149.001 65s70 91 70 143c0 61.333 -32.667 92 -98 92c-170.667 0 -311.667 53 -423 159c-113.333 107.333 -170 246 -170 416c0 238 99.667 452.333 299 643c197.333 188 416 282 656 282c94.667 0 185 -18.667 271 -56
c93.333 -41.333 164.333 -98.666 213 -171.999c10.667 -16 16 -31 16 -45z" />
    <glyph glyph-name="Egrave" unicode="&#xc8;" horiz-adv-x="1107" 
d="M1151 1727c0 -20 -7.33203 -38 -21.999 -54s-32 -24 -52 -24c-13.333 0 -26.333 3.66699 -39 11l-260 150c-26 14.667 -39 35.667 -39 63c0 20 7.33301 38 22 54s32 24 52 24c13.333 0 26.666 -3.66699 39.999 -11l260 -150c25.333 -14.667 38 -35.667 38 -63zM1295 1425
c0 -50 -24.999 -75 -74.999 -75h-693l-140 -525h502c50 0 75 -25 75 -75s-25 -75 -75 -75h-543l-140 -525h652c50 0 75 -25 75 -75s-25 -75 -75 -75h-750c-50.667 -0 -76 23.333 -76 70c0 16 60.333 248.333 181 697c118.667 441.333 180 667 184 677
c15.333 37.333 39.666 56 72.999 56h750c50 0 75 -25 75 -75z" />
    <glyph glyph-name="Eacute" unicode="&#xc9;" horiz-adv-x="1107" 
d="M1191 1872c0 -30.667 -15.333 -52.667 -46 -66l-340 -150c-10.667 -4.66699 -21.667 -7 -33 -7c-20 0 -37.167 8 -51.5 24s-21.5 34.333 -21.5 55c0 30.667 15.333 52.667 46 66l340 150c11.333 4.66699 22.333 7 33 7c20 0 37.167 -8 51.5 -24s21.5 -34.333 21.5 -55z
M1295 1425c0 -50 -24.999 -75 -74.999 -75h-693l-140 -525h502c50 0 75 -25 75 -75s-25 -75 -75 -75h-543l-140 -525h652c50 0 75 -25 75 -75s-25 -75 -75 -75h-750c-50.667 -0 -76 23.333 -76 70c0 16 60.333 248.333 181 697c118.667 441.333 180 667 184 677
c15.333 37.333 39.666 56 72.999 56h750c50 0 75 -25 75 -75z" />
    <glyph glyph-name="Ecircumflex" unicode="&#xca;" horiz-adv-x="1107" 
d="M1226 1727c0 -20.667 -7.49902 -38.833 -22.499 -54.5s-32.833 -23.5 -53.5 -23.5c-16.667 0 -32.334 6 -47.001 18l-145 118l-221 -125c-12.667 -7.33301 -25.667 -11 -39 -11c-20 0 -37.333 8 -52 24s-22 34 -22 54c0 27.333 13 48.333 39 63l259 147
c17.333 9.33301 32 14 44 14c16 0 33.333 -7.33301 52 -22l179 -146c19.333 -15.333 29 -34 29 -56zM1295 1425c0 -50 -24.999 -75 -74.999 -75h-693l-140 -525h502c50 0 75 -25 75 -75s-25 -75 -75 -75h-543l-140 -525h652c50 0 75 -25 75 -75s-25 -75 -75 -75h-750
c-50.667 0 -76 23.333 -76 70c0 16 60.333 248.333 181 697c118.667 441.333 180 667 184 677c15.333 37.333 39.666 56 72.999 56h750c50 0 75 -25 75 -75z" />
    <glyph glyph-name="Edieresis" unicode="&#xcb;" horiz-adv-x="1107" 
d="M1275 1773c0 -33.333 -12.498 -62.168 -37.498 -86.501s-54.167 -36.5 -87.5 -36.5c-28.667 0 -53 9.83301 -73 29.5s-30 43.834 -30 72.501c0 33.333 12.167 62.166 36.5 86.499s53.166 36.5 86.499 36.5c29.333 0 54.166 -9.66699 74.499 -29
s30.5 -43.666 30.5 -72.999zM825.002 1773c0 -33.333 -12.498 -62.168 -37.498 -86.501s-54.167 -36.5 -87.5 -36.5c-28.667 0 -53 9.83301 -73 29.5s-30 43.834 -30 72.501c0 33.333 12.167 62.166 36.5 86.499s53.166 36.5 86.499 36.5
c29.333 0 54.166 -9.66699 74.499 -29s30.5 -43.666 30.5 -72.999zM1295 1425c0 -50 -24.999 -75 -74.999 -75h-693l-140 -525h502c50 0 75 -25 75 -75s-25 -75 -75 -75h-543l-140 -525h652c50 0 75 -25 75 -75s-25 -75 -75 -75h-750c-50.667 0 -76 23.333 -76 70
c0 16 60.333 248.333 181 697c118.667 441.333 180 667 184 677c15.333 37.333 39.666 56 72.999 56h750c50 0 75 -25 75 -75z" />
    <glyph glyph-name="Igrave" unicode="&#xcc;" horiz-adv-x="450" 
d="M772 1727c0 -20 -7.33301 -38 -22 -54s-32 -24 -52 -24c-12.667 0 -25.667 3.66699 -39 11l-260 150c-25.333 14.667 -38 35.667 -38 63c0 20 7.33301 38 22 54s32 24 52 24c13.333 0 26.333 -3.66699 39 -11l260 -150c25.333 -14.667 38 -35.667 38 -63zM539 1428
c0 -7.33301 -1 -14.666 -3 -21.999l-362 -1350c-10 -37.333 -33.667 -56 -71 -56c-51.333 0 -77 24 -77 72c0 7.33301 1 14.666 3 21.999l362 1350c10 37.333 33.333 56 70 56c52 0 78 -24 78 -72z" />
    <glyph glyph-name="Iacute" unicode="&#xcd;" horiz-adv-x="450" 
d="M812 1872c0 -30.667 -15 -52.667 -45 -66l-340 -150c-11.333 -4.66699 -22.333 -7 -33 -7c-20 0 -37.167 8 -51.5 24s-21.5 34.333 -21.5 55c0 30.667 15 52.667 45 66l340 150c11.333 4.66699 22.333 7 33 7c20.667 0 38 -8 52 -24s21 -34.333 21 -55zM539 1428
c0 -7.33301 -1 -14.666 -3 -21.999l-362 -1350c-10 -37.333 -33.667 -56 -71 -56c-51.333 0 -77 24 -77 72c0 7.33301 1 14.666 3 21.999l362 1350c10 37.333 33.333 56 70 56c52 0 78 -24 78 -72z" />
    <glyph glyph-name="Icircumflex" unicode="&#xce;" horiz-adv-x="450" 
d="M847 1727c0 -20.667 -7.66699 -38.833 -23 -54.5s-33 -23.5 -53 -23.5c-16.667 0 -32.667 6 -48 18l-145 118l-220 -125c-13.333 -7.33301 -26.333 -11 -39 -11c-20 0 -37.333 8 -52 24s-22 34 -22 54c0 27.333 13 48.333 39 63l259 147c16.667 9.33301 31 14 43 14
c16.667 0 34 -7.33301 52 -22l180 -146c19.333 -15.333 29 -34 29 -56zM541 1428c0 -7.33301 -1 -14.666 -3 -21.999l-362 -1350c-10 -37.333 -33.333 -56 -70 -56c-52 0 -78 24 -78 72c0 7.33301 1 14.666 3 21.999l362 1350c10 37.333 33.333 56 70 56c52 0 78 -24 78 -72
z" />
    <glyph glyph-name="Idieresis" unicode="&#xcf;" horiz-adv-x="450" 
d="M896 1773c0 -33.333 -12.498 -62.168 -37.498 -86.501s-54.167 -36.5 -87.5 -36.5c-28.667 0 -53 9.83301 -73 29.5s-30 43.834 -30 72.501c0 33.333 12.167 62.166 36.5 86.499s53.166 36.5 86.499 36.5c29.333 0 54.166 -9.66699 74.499 -29s30.5 -43.666 30.5 -72.999
zM446.002 1773c0 -33.333 -12.498 -62.168 -37.498 -86.501s-54.167 -36.5 -87.5 -36.5c-28.667 0 -53 9.83301 -73 29.5s-30 43.834 -30 72.501c0 33.333 12.167 62.166 36.5 86.499s53.166 36.5 86.499 36.5c29.333 0 54.166 -9.66699 74.499 -29
s30.5 -43.666 30.5 -72.999zM541.004 1428c0 -7.33301 -1 -14.666 -3 -21.999l-362 -1350c-10 -37.333 -33.333 -56 -70 -56c-52 0 -78 24 -78 72c0 7.33301 1 14.666 3 21.999l362 1350c10 37.333 33.667 56 71 56c51.333 0 77 -24 77 -72z" />
    <glyph glyph-name="Eth" unicode="&#xd0;" horiz-adv-x="1556" 
d="M1587 925c0 -238 -99.667 -452.333 -299 -643c-197.333 -188 -416 -282 -656 -282h-450c-50 -0 -75 23.333 -75 70c0 8 1 16 3 24l156 581h-128c-50 0 -75 25 -75 75s25 75 75 75h168l166 619c3.33301 13.333 12.833 26 28.5 38s30.167 18 43.5 18h450
c171.333 0 312.333 -53 423 -159c113.333 -107.333 170 -246 170 -416zM1437 925c0 128.667 -41.5 231.667 -124.5 309s-189.167 116 -318.5 116h-392l-141 -525h127c50 0 75 -25 75 -75s-25 -75 -75 -75h-167l-141 -525h352c198.667 0 382 79.333 550 238
c170 161.333 255 340.333 255 537z" />
    <glyph glyph-name="Ntilde" unicode="&#xd1;" horiz-adv-x="1505" 
d="M1471 1802c0 -45.333 -31 -83.333 -93 -114c-52 -25.333 -103.333 -38 -154 -38c-58 0 -111.833 25 -161.5 75s-82.5 75 -98.5 75c-42 0 -76.333 -12.667 -103 -38s-48 -38 -64 -38c-20.667 0 -39 7.33301 -55 22s-24 32 -24 52c0 45.333 31 83.333 93 114
c51.333 25.333 102.333 38 153 38c58.667 0 112.667 -25 162 -75s82 -75 98 -75c42 0 76.5 12.667 103.5 38s48.5 38 64.5 38c20 0 38.167 -7.33301 54.5 -22s24.5 -32 24.5 -52zM1594 1428c0 -7.33301 -0.999023 -14.666 -2.99902 -21.999l-358 -1337
c-12.667 -46.667 -38.334 -70 -77.001 -70c-30 0 -54 18 -72 54l-593 1164l-311 -1161c-10 -37.333 -33.667 -56 -71 -56c-51.333 0 -77 24 -77 72c0 7.33301 1 14.666 3 21.999l358 1337c12 46.667 37.667 70 77 70c29.333 0 53.333 -18 72 -54l593 -1164l311 1161
c10 37.333 33.667 56 71 56c51.333 0 77 -24 77 -72z" />
    <glyph glyph-name="Ograve" unicode="&#xd2;" horiz-adv-x="1607" 
d="M1366 1727c0 -20 -7.33301 -38 -22 -54s-32 -24 -52 -24c-13.333 0 -26.666 3.66699 -39.999 11l-259 150c-26 14.667 -39 35.667 -39 63c0 20 7.33301 38 22 54s32 24 52 24c13.333 0 26.666 -3.66699 39.999 -11l259 -150c26 -14.667 39 -35.667 39 -63zM1638 925
c0 -238 -100.001 -452.333 -300.001 -643c-197.333 -188 -415.666 -282 -654.999 -282c-170.667 0 -311.667 53 -423 159c-113.333 107.333 -170 246 -170 416c0 238 99.667 452.333 299 643c197.333 188 416 282 656 282c170.667 0 312.167 -53.333 424.5 -160
s168.5 -245 168.5 -415zM1488 925c0 128.667 -41.5 231.667 -124.5 309s-189.167 116 -318.5 116c-198.667 0 -382 -79.333 -550 -238c-170 -161.333 -255 -340.333 -255 -537c0 -128.667 42 -232 126 -310c82 -76.667 187.667 -115 317 -115c198 0 381 79.333 549 238
c170.667 161.333 256 340.333 256 537z" />
    <glyph glyph-name="Oacute" unicode="&#xd3;" horiz-adv-x="1607" 
d="M1406 1872c0 -30.667 -15.333 -52.667 -46 -66l-340 -150c-10.667 -4.66699 -21.667 -7 -33 -7c-20 0 -37.167 8 -51.5 24s-21.5 34.333 -21.5 55c0 30.667 15.333 52.667 46 66l340 150c11.333 4.66699 22.333 7 33 7c20 0 37.167 -8 51.5 -24s21.5 -34.333 21.5 -55z
M1638 925c0 -238 -100.001 -452.333 -300.001 -643c-197.333 -188 -415.666 -282 -654.999 -282c-170.667 0 -311.667 53 -423 159c-113.333 107.333 -170 246 -170 416c0 238 99.667 452.333 299 643c197.333 188 416 282 656 282c170.667 0 312.167 -53.333 424.5 -160
s168.5 -245 168.5 -415zM1488 925c0 128.667 -41.5 231.667 -124.5 309s-189.167 116 -318.5 116c-198.667 0 -382 -79.333 -550 -238c-170 -161.333 -255 -340.333 -255 -537c0 -128.667 42 -232 126 -310c82 -76.667 187.667 -115 317 -115c198 0 381 79.333 549 238
c170.667 161.333 256 340.333 256 537z" />
    <glyph glyph-name="Ocircumflex" unicode="&#xd4;" horiz-adv-x="1607" 
d="M1426 1727c0 -20.667 -7.49902 -38.833 -22.499 -54.5s-32.833 -23.5 -53.5 -23.5c-16.667 0 -32.334 6 -47.001 18l-145 118l-221 -125c-12.667 -7.33301 -25.667 -11 -39 -11c-20 0 -37.333 8 -52 24s-22 34 -22 54c0 27.333 13 48.333 39 63l259 147
c17.333 9.33301 31.666 14 42.999 14c16.667 0 34.334 -7.33301 53.001 -22l179 -146c19.333 -15.333 29 -34 29 -56zM1638 925.001c0 -238 -100.001 -452.333 -300.001 -643c-197.333 -188 -415.666 -282 -654.999 -282c-170.667 0 -311.667 53 -423 159
c-113.333 107.333 -170 246 -170 416c0 238 99.667 452.333 299 643c197.333 188 416 282 656 282c170.667 0 312.167 -53.333 424.5 -160s168.5 -245 168.5 -415zM1488 925.001c0 128.667 -41.5 231.667 -124.5 309s-189.167 116 -318.5 116
c-198.667 0 -382 -79.333 -550 -238c-170 -161.333 -255 -340.333 -255 -537c0 -128.667 42 -232 126 -310c82 -76.667 187.667 -115 317 -115c198 0 381 79.333 549 238c170.667 161.333 256 340.333 256 537z" />
    <glyph glyph-name="Otilde" unicode="&#xd5;" horiz-adv-x="1607" 
d="M1536 1802c0 -45.333 -30.667 -83.333 -92 -114c-52 -25.333 -103.333 -38 -154 -38c-58 0 -111.833 25 -161.5 75s-82.5 75 -98.5 75c-42 0 -76.5 -12.667 -103.5 -38s-48.5 -38 -64.5 -38c-20 0 -38 7.33301 -54 22s-24 32 -24 52c0 45.333 30.667 83.333 92 114
c52 25.333 103.333 38 154 38c58 0 111.833 -25 161.5 -75s82.5 -75 98.5 -75c42 0 76.5 12.667 103.5 38s48.5 38 64.5 38c20 0 38 -7.33301 54 -22s24 -32 24 -52zM1638 925c0 -238 -100.001 -452.333 -300.001 -643c-197.333 -188 -415.666 -282 -654.999 -282
c-170.667 0 -311.667 53 -423 159c-113.333 107.333 -170 246 -170 416c0 238 99.667 452.333 299 643c197.333 188 416 282 656 282c170.667 0 312.167 -53.333 424.5 -160s168.5 -245 168.5 -415zM1488 925c0 128.667 -41.5 231.667 -124.5 309s-189.167 116 -318.5 116
c-198.667 0 -382 -79.333 -550 -238c-170 -161.333 -255 -340.333 -255 -537c0 -128.667 42 -232 126 -310c82 -76.667 187.667 -115 317 -115c198 0 381 79.333 549 238c170.667 161.333 256 340.333 256 537z" />
    <glyph glyph-name="Odieresis" unicode="&#xd6;" horiz-adv-x="1607" 
d="M1475 1773c0 -33.333 -12.498 -62.168 -37.498 -86.501s-54.167 -36.5 -87.5 -36.5c-28.667 0 -53 9.83301 -73 29.5s-30 43.834 -30 72.501c0 33.333 12.167 62.166 36.5 86.499s53.166 36.5 86.499 36.5c29.333 0 54.166 -9.66699 74.499 -29
s30.5 -43.666 30.5 -72.999zM1025 1773c0 -33.333 -12.498 -62.168 -37.498 -86.501s-54.167 -36.5 -87.5 -36.5c-28.667 0 -53 9.83301 -73 29.5s-30 43.834 -30 72.501c0 33.333 12.167 62.166 36.5 86.499s53.166 36.5 86.499 36.5c29.333 0 54.166 -9.66699 74.499 -29
s30.5 -43.666 30.5 -72.999zM1638 924.996c0 -238 -100.001 -452.333 -300.001 -643c-197.333 -188 -415.666 -282 -654.999 -282c-170.667 0 -311.667 53 -423 159c-113.333 107.333 -170 246 -170 416c0 238 99.667 452.333 299 643c197.333 188 416 282 656 282
c170.667 0 312.167 -53.333 424.5 -160s168.5 -245 168.5 -415zM1488 924.996c0 128.667 -41.5 231.667 -124.5 309s-189.167 116 -318.5 116c-198.667 0 -382 -79.333 -550 -238c-170 -161.333 -255 -340.333 -255 -537c0 -128.667 42 -232 126 -310
c82 -76.667 187.667 -115 317 -115c198 0 381 79.333 549 238c170.667 161.333 256 340.333 256 537z" />
    <glyph glyph-name="multiply" unicode="&#xd7;" horiz-adv-x="1150" 
d="M1055 842c0 -22.667 -10 -42 -30 -58l-347 -273l190 -260c10.667 -14.667 16 -29.667 16 -45c0 -20 -7.83301 -37.5 -23.5 -52.5s-33.834 -22.5 -54.501 -22.5c-23.333 0 -43 10.333 -59 31l-187 256l-342 -270c-14.667 -12 -30.334 -18 -47.001 -18
c-20 0 -37.667 8 -53 24s-23 34 -23 54c0 22.667 10 42 30 58l347 273l-190 260c-10.667 14.667 -16 29.667 -16 45c0 20 7.83301 37.5 23.5 52.5s33.834 22.5 54.501 22.5c23.333 0 43 -10.667 59 -32l187 -255l342 270c14.667 12 30.334 18 47.001 18
c20 0 37.667 -8 53 -24s23 -34 23 -54z" />
    <glyph glyph-name="Oslash" unicode="&#xd8;" horiz-adv-x="1607" 
d="M1796 1423c0 -22 -10.002 -41 -30.002 -57l-197 -156c46 -84.667 69 -179.667 69 -285c0 -238 -100 -452.333 -300 -643c-197.333 -188 -415.666 -282 -654.999 -282c-177.333 -0 -322.333 56.333 -435 169l-194 -153c-14.667 -11.333 -30.334 -17 -47.001 -17
c-20 0 -37.5 7.83301 -52.5 23.5s-22.5 33.834 -22.5 54.501c0 22 9.66699 41 29 57l198 156c-46 84.667 -69 179.667 -69 285c0 238 99.667 452.333 299 643c197.333 188 416 282 656 282c176.667 0 321.334 -56.333 434.001 -169l194 153
c14.667 11.333 30.334 17 47.001 17c20 0 37.667 -7.83301 53 -23.5s23 -33.834 23 -54.501zM1360 1237c-82 75.333 -187 112.999 -315 112.999c-198.667 0 -382 -79.333 -550 -238c-170 -161.333 -255 -340.333 -255 -537c0 -69.333 13 -132.666 39 -189.999zM1488 924.999
c0 69.333 -13.333 132.667 -40 190l-1081 -852c82 -75.333 187.333 -113 316 -113c198 0 381 79.333 549 238c170.667 161.333 256 340.333 256 537z" />
    <glyph glyph-name="Ugrave" unicode="&#xd9;" horiz-adv-x="1255" 
d="M1175 1727c0 -20 -7.33398 -38 -22.001 -54s-32 -24 -52 -24c-13.333 0 -26.333 3.66699 -39 11l-260 150c-26 14.667 -39 35.667 -39 63c0 20 7.33301 38 22 54s32.334 24 53.001 24c12.667 0 25.667 -3.66699 39 -11l260 -150c25.333 -14.667 38 -35.667 38 -63z
M1394 1428c0 -6.66699 -0.999023 -14.001 -2.99902 -22.001c-89.333 -364.667 -169.666 -664.667 -240.999 -900c-43.333 -142.667 -123.666 -261.667 -240.999 -357c-122.667 -99.333 -256.667 -149 -402 -149c-120.667 0 -220.834 38 -300.501 114s-119.5 174 -119.5 294
c0 44.667 6 90 18 136l241 900c10 37.333 33.667 56 71 56c51.333 0 77 -24 77 -72c0 -7.33301 -1 -14.666 -3 -21.999l-241 -900c-8.66699 -34 -13 -66.667 -13 -98c0 -78.667 25.667 -141.667 77 -189c49.333 -46 113.666 -69 192.999 -69
c111.333 0 214.666 39.333 309.999 118c92 75.333 154.667 167.333 188 276c1.33301 4 58.333 217 171 639l47 174c16 60 24.333 90.333 25 91c14.667 34.667 37.667 52 69 52c51.333 0 77 -24 77 -72z" />
    <glyph glyph-name="Uacute" unicode="&#xda;" horiz-adv-x="1255" 
d="M1215 1872c0 -30.667 -14.999 -52.667 -44.999 -66l-341 -150c-10.667 -4.66699 -21.334 -7 -32.001 -7c-20.667 0 -38 8 -52 24s-21 34.333 -21 55c0 30.667 15 52.667 45 66l340 150c11.333 4.66699 22.333 7 33 7c20 0 37.167 -8 51.5 -24s21.5 -34.333 21.5 -55z
M1394 1428c0 -6.66699 -0.999023 -14.001 -2.99902 -22.001c-89.333 -364.667 -169.666 -664.667 -240.999 -900c-43.333 -142.667 -123.666 -261.667 -240.999 -357c-122.667 -99.333 -256.667 -149 -402 -149c-120.667 0 -220.834 38 -300.501 114s-119.5 174 -119.5 294
c0 44.667 6 90 18 136l241 900c10 37.333 33.667 56 71 56c51.333 0 77 -24 77 -72c0 -7.33301 -1 -14.666 -3 -21.999l-241 -900c-8.66699 -34 -13 -66.667 -13 -98c0 -78.667 25.667 -141.667 77 -189c49.333 -46 113.666 -69 192.999 -69
c111.333 0 214.666 39.333 309.999 118c92 75.333 154.667 167.333 188 276c1.33301 4 58.333 217 171 639l47 174c16 60 24.333 90.333 25 91c14.667 34.667 37.667 52 69 52c51.333 0 77 -24 77 -72z" />
    <glyph glyph-name="Ucircumflex" unicode="&#xdb;" horiz-adv-x="1255" 
d="M1250 1727c0 -20.667 -7.49902 -38.833 -22.499 -54.5s-32.833 -23.5 -53.5 -23.5c-16.667 0 -32.334 6 -47.001 18l-145 118l-221 -125c-12.667 -7.33301 -25.667 -11 -39 -11c-20 0 -37.333 8 -52 24s-22 34 -22 54c0 27.333 13 48.333 39 63l259 147
c17.333 9.33301 32 14 44 14c16 0 33.333 -7.33301 52 -22l179 -146c19.333 -15.333 29 -34 29 -56zM1394 1428c0 -6.66699 -0.999023 -14.001 -2.99902 -22.001c-89.333 -364.667 -169.666 -664.667 -240.999 -900c-43.333 -142.667 -123.666 -261.667 -240.999 -357
c-122.667 -99.333 -256.667 -149 -402 -149c-120.667 0 -220.834 38 -300.501 114s-119.5 174 -119.5 294c0 44.667 6 90 18 136l241 900c10 37.333 33.667 56 71 56c51.333 0 77 -24 77 -72c0 -7.33301 -1 -14.666 -3 -21.999l-241 -900c-8.66699 -34 -13 -66.667 -13 -98
c0 -78.667 25.667 -141.667 77 -189c49.333 -46 113.666 -69 192.999 -69c111.333 0 214.666 39.333 309.999 118c92 75.333 154.667 167.333 188 276c1.33301 4 58.333 217 171 639l47 174c16 60 24.333 90.333 25 91c14.667 34.667 37.667 52 69 52
c51.333 0 77 -24 77 -72z" />
    <glyph glyph-name="Udieresis" unicode="&#xdc;" horiz-adv-x="1255" 
d="M1299 1773c0 -33.333 -12.5 -62.168 -37.5 -86.501s-54.167 -36.5 -87.5 -36.5c-28.667 0 -53 9.83301 -73 29.5s-30 43.834 -30 72.501c0 33.333 12.333 62.166 37 86.499s53.334 36.5 86.001 36.5c29.333 0 54.166 -9.66699 74.499 -29s30.5 -43.666 30.5 -72.999z
M849 1773c0 -33.333 -12.5 -62.168 -37.5 -86.501s-54.167 -36.5 -87.5 -36.5c-28.667 0 -53 9.83301 -73 29.5s-30 43.834 -30 72.501c0 33.333 12.333 62.166 37 86.499s53.334 36.5 86.001 36.5c29.333 0 54.166 -9.66699 74.499 -29s30.5 -43.666 30.5 -72.999z
M1394 1428c0 -6.66699 -0.999023 -14.001 -2.99902 -22.001c-89.333 -364.667 -169.666 -664.667 -240.999 -900c-43.333 -142.667 -123.666 -261.667 -240.999 -357c-122.667 -99.333 -256.667 -149 -402 -149c-120.667 0 -220.834 38 -300.501 114s-119.5 174 -119.5 294
c0 44.667 6 90 18 136l241 900c10 37.333 33.667 56 71 56c51.333 0 77 -24 77 -72c0 -7.33301 -1 -14.666 -3 -21.999l-241 -900c-8.66699 -34 -13 -66.667 -13 -98c0 -78.667 25.667 -141.667 77 -189c49.333 -46 113.666 -69 192.999 -69
c111.333 0 214.666 39.333 309.999 118c92 75.333 154.667 167.333 188 276c1.33301 4 58.333 217 171 639l47 174c16 60 24.333 90.333 25 91c14.667 34.667 37.667 52 69 52c51.333 0 77 -24 77 -72z" />
    <glyph glyph-name="Yacute" unicode="&#xdd;" horiz-adv-x="1256" 
d="M1241 1872c0 -30.667 -15 -52.667 -45 -66l-340 -150c-11.333 -4.66699 -22.333 -7 -33 -7c-20 0 -37.167 8 -51.5 24s-21.5 34.333 -21.5 55c0 30.667 15 52.667 45 66l340 150c11.333 4.66699 22.333 7 33 7c20.667 0 38 -8 52 -24s21 -34.333 21 -55zM1497 1424
c0 -20 -8.33301 -37.666 -25 -52.999l-691 -661l-175 -654c-10 -37.333 -33.333 -56 -70 -56c-52 0 -78 24 -78 72c0 7.33301 1 14.666 3 21.999l173 648l-331 649c-6 12 -9 24 -9 36c0 20.667 8 38.167 24 52.5s34.333 21.5 55 21.5c28.667 0 50 -14 64 -42l298 -585
l633 605c16 14.667 33.333 22 52 22c20 0 37.833 -7.66699 53.5 -23s23.5 -33.333 23.5 -54z" />
    <glyph glyph-name="Thorn" unicode="&#xde;" horiz-adv-x="1256" 
d="M1279 867c0 -166 -68.5 -314.499 -205.5 -445.499s-289.167 -196.5 -456.5 -196.5h-392l-45 -169c-10 -37.333 -33.667 -56 -71 -56c-51.333 0 -77 24 -77 72c0 7.33301 21.667 92.666 65 255.999l299 1116c10 37.333 33.667 56 71 56c51.333 0 77 -24 77 -72
c0 -12.667 -12.667 -63.667 -38 -153h353c120 0 220 -38 300 -114s120 -174 120 -294zM1129 867.001c0 78.667 -25.332 141.332 -75.999 187.999s-115.334 70 -194.001 70h-393l-201 -750h352c125.333 0 242 50.833 350 152.5s162 214.834 162 339.501z" />
    <glyph glyph-name="germandbls" unicode="&#xdf;" horiz-adv-x="1164" 
d="M1070 406c0 -106 -43.1689 -200.166 -129.502 -282.499s-182.166 -123.5 -287.499 -123.5c-72 0 -135 23 -189 69c-58 48 -87 107 -87 177c0 48.667 25.667 73 77 73c30.667 0 52.334 -14.667 65.001 -44l32 -81c19.333 -29.333 53.333 -44 102 -44
c64 0 124.5 26.5 181.5 79.5s85.5 111.833 85.5 176.5c0 69.333 -44 109 -132 119c-146 16 -219 87.333 -219 214c0 72 27 136 81 192l149 131c53.333 52 80 109.333 80 172c0 77.333 -41 116 -123 116c-63.333 0 -123.666 -23 -180.999 -69s-94.333 -100.333 -111 -163
l-405 -1512c-10 -37.333 -33.333 -56 -70 -56c-52 0 -78 24 -78 72c0 7.33301 1 14.666 3 21.999l405 1513c26 95.333 81 176.333 165 243s174.667 100 272 100c78 0 143 -25 195 -75s78 -113.667 78 -191c0 -85.333 -26.667 -161 -80 -227
c-14.667 -18.667 -64.334 -65 -149.001 -139c-54 -47.333 -81 -90.333 -81 -129c0 -34.667 23 -56 69 -64h5c80.667 0 147 -25 199 -75s78 -114.667 78 -194z" />
    <glyph glyph-name="agrave" unicode="&#xe0;" horiz-adv-x="1155" 
d="M1055 1277c0 -20 -7.33203 -38 -21.999 -54s-32.334 -24 -53.001 -24c-12.667 0 -25.667 3.66699 -39 11l-260 150c-25.333 14.667 -38 35.667 -38 63c0 20 7.33301 38 22 54s32 24 52 24c13.333 0 26.333 -3.66699 39 -11l260 -150c26 -14.667 39 -35.667 39 -63z
M1098 874c0 -3.33301 -2.33301 -13.332 -7 -29.999l-211 -788c-10 -37.333 -33.667 -56 -71 -56c-51.333 0 -77 24 -77 72c0 11.333 2.33301 24.666 7 39.999c-104.667 -74.667 -215.334 -112 -332.001 -112c-109.333 0 -200.333 34.667 -273 104s-109 158.333 -109 267
c0 46 5.66699 87 17 123c48 157.333 136.333 288.333 265 393c134 108.667 281 163 441 163c152.667 0 261.334 -40 326.001 -120c16 -20 24 -38.667 24 -56zM938.001 852.001c-50.667 32 -114.001 48.001 -190.001 48.001c-134 0 -262 -54.333 -384 -163
c-126 -112 -189 -234 -189 -366c0 -67.333 21.667 -121 65 -161s99 -60 167 -60c98 0 188.333 34.333 271 103c78.667 64.667 133.334 145 164.001 241c0.666992 3.33301 32.667 122.666 96 357.999z" />
    <glyph glyph-name="aacute" unicode="&#xe1;" horiz-adv-x="1155" 
d="M1094 1422c0 -30.667 -15.001 -52.667 -45.001 -66l-340 -150c-11.333 -4.66699 -22.333 -7 -33 -7c-20 0 -37.167 8 -51.5 24s-21.5 34.333 -21.5 55c0 30.667 15 52.667 45 66l341 150c10.667 4.66699 21.334 7 32.001 7c20.667 0 38 -8 52 -24s21 -34.333 21 -55z
M1098 874c0 -3.33301 -2.33301 -13.332 -7 -29.999l-211 -788c-10 -37.333 -33.667 -56 -71 -56c-51.333 0 -77 24 -77 72c0 11.333 2.33301 24.666 7 39.999c-104.667 -74.667 -215.334 -112 -332.001 -112c-109.333 0 -200.333 34.667 -273 104s-109 158.333 -109 267
c0 46 5.66699 87 17 123c48 157.333 136.333 288.333 265 393c134 108.667 281 163 441 163c152.667 0 261.334 -40 326.001 -120c16 -20 24 -38.667 24 -56zM937.999 852.001c-50.667 32 -114.001 48.001 -190.001 48.001c-134 0 -262 -54.333 -384 -163
c-126 -112 -189 -234 -189 -366c0 -67.333 21.667 -121 65 -161s99 -60 167 -60c98 0 188.333 34.333 271 103c78.667 64.667 133.334 145 164.001 241c0.666992 3.33301 32.667 122.666 96 357.999z" />
    <glyph glyph-name="acircumflex" unicode="&#xe2;" horiz-adv-x="1155" 
d="M1130 1277c0 -20.667 -7.66699 -38.833 -23 -54.5s-33 -23.5 -53 -23.5c-16.667 0 -32.667 6 -48 18l-145 118l-220 -125c-13.333 -7.33301 -26.333 -11 -39 -11c-20 0 -37.333 8 -52 24s-22 34 -22 54c0 27.333 13 48.333 39 63l259 147c16.667 9.33301 31 14 43 14
c16.667 0 34 -7.33301 52 -22l180 -146c19.333 -15.333 29 -34 29 -56zM1098 874.001c0 -3.33301 -2.33301 -13.332 -7 -29.999l-211 -788c-10 -37.333 -33.667 -56 -71 -56c-51.333 0 -77 24 -77 72c0 11.333 2.33301 24.666 7 39.999
c-104.667 -74.667 -215.334 -112 -332.001 -112c-109.333 0 -200.333 34.667 -273 104s-109 158.333 -109 267c0 46 5.66699 87 17 123c48 157.333 136.333 288.333 265 393c134 108.667 281 163 441 163c152.667 0 261.334 -40 326.001 -120c16 -20 24 -38.667 24 -56z
M938 852.002c-50.667 32 -114.001 48.001 -190.001 48.001c-134 0 -262 -54.333 -384 -163c-126 -112 -189 -234 -189 -366c0 -67.333 21.667 -121 65 -161s99 -60 167 -60c98 0 188.333 34.333 271 103c78.667 64.667 133.334 145 164.001 241
c0.666992 3.33301 32.667 122.666 96 357.999z" />
    <glyph glyph-name="atilde" unicode="&#xe3;" horiz-adv-x="1155" 
d="M1225 1352c0 -45.333 -30.998 -83.333 -92.998 -114c-51.333 -25.333 -102.333 -38 -153 -38c-58 0 -111.833 25 -161.5 75s-82.5 75 -98.5 75c-41.333 0 -75.833 -12.667 -103.5 -38s-49.167 -38 -64.5 -38c-20 0 -38.167 7.33301 -54.5 22s-24.5 32 -24.5 52
c0 45.333 31 83.333 93 114c52 25.333 103.333 38 154 38c58 0 111.833 -25 161.5 -75s82.5 -75 98.5 -75c41.333 0 75.666 12.667 102.999 38s48.666 38 63.999 38c20.667 0 39 -7.33301 55 -22s24 -32 24 -52zM1098 874c0 -3.33301 -2.33301 -13.332 -7 -29.999l-211 -788
c-10 -37.333 -33.667 -56 -71 -56c-51.333 0 -77 24 -77 72c0 11.333 2.33301 24.666 7 39.999c-104.667 -74.667 -215.334 -112 -332.001 -112c-109.333 0 -200.333 34.667 -273 104s-109 158.333 -109 267c0 46 5.66699 87 17 123c48 157.333 136.333 288.333 265 393
c134 108.667 281 163 441 163c152.667 0 261.334 -40 326.001 -120c16 -20 24 -38.667 24 -56zM938.002 852.001c-50.667 32 -114.001 48.001 -190.001 48.001c-134 0 -262 -54.333 -384 -163c-126 -112 -189 -234 -189 -366c0 -67.333 21.667 -121 65 -161s99 -60 167 -60
c98 0 188.333 34.333 271 103c78.667 64.667 133.334 145 164.001 241c0.666992 3.33301 32.667 122.666 96 357.999z" />
    <glyph glyph-name="adieresis" unicode="&#xe4;" horiz-adv-x="1155" 
d="M1178 1323c0 -32.667 -12.5 -61.332 -37.5 -85.999s-53.833 -37 -86.5 -37c-28.667 0 -53.167 9.83301 -73.5 29.5s-30.5 43.834 -30.5 72.501c0 33.333 12.333 62.166 37 86.499s53.667 36.5 87 36.5c28.667 0 53.167 -9.83301 73.5 -29.5s30.5 -43.834 30.5 -72.501z
M728 1323c0 -32.667 -12.5 -61.332 -37.5 -85.999s-53.833 -37 -86.5 -37c-28.667 0 -53.167 9.83301 -73.5 29.5s-30.5 43.834 -30.5 72.501c0 33.333 12.333 62.166 37 86.499s53.667 36.5 87 36.5c28.667 0 53.167 -9.83301 73.5 -29.5s30.5 -43.834 30.5 -72.501z
M1098 874.004c0 -3.33301 -2.33301 -13.332 -7 -29.999l-211 -788c-10 -37.333 -33.667 -56 -71 -56c-51.333 0 -77 24 -77 72c0 11.333 2.33301 24.666 7 39.999c-104.667 -74.667 -215.334 -112 -332.001 -112c-109.333 0 -200.333 34.667 -273 104s-109 158.333 -109 267
c0 46 5.66699 87 17 123c48 157.333 136.333 288.333 265 393c134 108.667 281 163 441 163c152.667 0 261.334 -40 326.001 -120c16 -20 24 -38.667 24 -56zM938 852.005c-50.667 32 -114.001 48.001 -190.001 48.001c-134 0 -262 -54.333 -384 -163
c-126 -112 -189 -234 -189 -366c0 -67.333 21.667 -121 65 -161s99 -60 167 -60c98 0 188.333 34.333 271 103c78.667 64.667 133.334 145 164.001 241c0.666992 3.33301 32.667 122.666 96 357.999z" />
    <glyph glyph-name="aring" unicode="&#xe5;" horiz-adv-x="1155" 
d="M1061 1347c0 -66.667 -26.5 -124.999 -79.5 -174.999s-113.167 -75 -180.5 -75c-52 0 -95.833 16.667 -131.5 50s-53.5 75.666 -53.5 126.999c0 66.667 26.667 125.667 80 177s113.333 77 180 77c52 0 95.833 -17.167 131.5 -51.5s53.5 -77.5 53.5 -129.5zM1098 874.001
c0 -3.33301 -2.33301 -13.332 -7 -29.999l-211 -788c-10 -37.333 -33.667 -56 -71 -56c-51.333 0 -77 24 -77 72c0 11.333 2.33301 24.666 7 39.999c-104.667 -74.667 -215.334 -112 -332.001 -112c-109.333 0 -200.333 34.667 -273 104s-109 158.333 -109 267
c0 46 5.66699 87 17 123c48 157.333 136.333 288.333 265 393c134 108.667 281 163 441 163c152.667 0 261.334 -40 326.001 -120c16 -20 24 -38.667 24 -56zM911 1347c0 20.667 -11.667 31 -35 31c-25.333 0 -50 -11 -74 -33s-36 -45.667 -36 -71c0 -18 11.667 -27 35 -27
c26 0 50.833 10.333 74.5 31s35.5 43.667 35.5 69zM938 852.002c-50.667 32 -114.001 48.001 -190.001 48.001c-134 0 -262 -54.333 -384 -163c-126 -112 -189 -234 -189 -366c0 -67.333 21.667 -121 65 -161s99 -60 167 -60c98 0 188.333 34.333 271 103
c78.667 64.667 133.334 145 164.001 241c0.666992 3.33301 32.667 122.666 96 357.999z" />
    <glyph glyph-name="ae" unicode="&#xe6;" horiz-adv-x="1715" 
d="M1734 820c0 -62.667 -19.166 -121.497 -57.499 -176.497s-86.833 -96.833 -145.5 -125.5l-506 -253c48.667 -76.667 126 -115 232 -115c46.667 0 110.334 14.667 191.001 44c14.667 5.33301 26 8 34 8c20.667 0 38.167 -7.83301 52.5 -23.5s21.5 -33.834 21.5 -54.501
c0 -42 -41 -74.667 -123 -98c-60 -17.333 -118.667 -26 -176 -26c-152 0 -267.667 56 -347 168c-15.333 -63.333 -24.333 -98.333 -27 -105c-16.667 -42 -41.334 -63 -74.001 -63c-51.333 0 -77 24 -77 72c0 11.333 2.33301 24.666 7 39.999
c-104.667 -74.667 -215.334 -112 -332.001 -112c-109.333 0 -200.333 34.667 -273 104s-109 158.333 -109 267c0 44 5.66699 85 17 123c45.333 156 133.666 287 264.999 393c135.333 108.667 282.333 163 441 163c141.333 0 250 -40 326 -120
c10 -10.667 16.667 -21.334 20 -32.001c126.667 101.333 261.334 152 404.001 152c67.333 0 123.5 -21.667 168.5 -65s67.5 -98.333 67.5 -165zM1584 820.003c0 53.333 -28.667 80.002 -86 80.002c-125.333 0 -241.333 -50.333 -348 -151
c-108.667 -102.667 -163 -216.334 -163 -341.001c398 163.333 597 300.666 597 411.999zM938.001 852.005c-50 32 -113.334 48.001 -190.001 48.001c-133.333 0 -261.333 -54.333 -384 -163c-126 -112 -189 -234 -189 -366c0 -67.333 21.667 -121 65 -161s99 -60 167 -60
c98.667 0 189 34.333 271 103c76.667 64 131.334 144.333 164.001 241c1.33301 5.33301 33.333 124.666 96 357.999z" />
    <glyph glyph-name="ccedilla" unicode="&#xe7;" horiz-adv-x="1025" 
d="M1058 843c0 -20.667 -8 -38.4971 -24 -53.4971s-34 -22.5 -54 -22.5c-10.667 0 -42.5 22.167 -95.5 66.5s-114.833 66.5 -185.5 66.5c-125.333 0 -241.666 -50.333 -348.999 -151c-108.667 -102.667 -163 -216.334 -163 -341.001c0 -78 25.333 -140.5 76 -187.5
s115.667 -70.5 195 -70.5c64 0 137.667 22 221 66s127.333 66 132 66c20 0 37.5 -7.83301 52.5 -23.5s22.5 -33.834 22.5 -54.501c0 -54 -72.333 -108.667 -217 -164c24 -38.667 36 -82.667 36 -132c0 -93.333 -37.833 -176.333 -113.5 -249s-160.5 -109 -254.5 -109
c-117.333 0 -196.333 55.333 -237 166c-2.66699 7.33301 -4 15.666 -4 24.999c0 48 26 72 78 72c28 0 51.833 -18.833 71.5 -56.5s50.167 -56.5 91.5 -56.5c52.667 0 102.167 21.667 148.5 65s69.5 91 69.5 143c0 61.333 -32.333 92 -97 92c-120.667 0 -221 38 -301 114
s-120 174 -120 294c0 166.667 69 315.667 207 447c136 130 287.667 195 455 195c66.667 0 130.667 -13.333 192 -40c67.333 -29.333 117.666 -70 150.999 -122c10.667 -16.667 16 -31.667 16 -45z" />
    <glyph glyph-name="egrave" unicode="&#xe8;" horiz-adv-x="916" 
d="M1005 1277c0 -20 -7.33398 -38 -22.001 -54s-32 -24 -52 -24c-13.333 0 -26.333 3.66699 -39 11l-260 150c-26 14.667 -39 35.667 -39 63c0 20 7.33301 38 22 54s32.334 24 53.001 24c12.667 0 25.667 -3.66699 39 -11l260 -150c25.333 -14.667 38 -35.667 38 -63z
M933.999 820c0 -62.667 -19.167 -121.499 -57.5 -176.499s-86.5 -96.833 -144.5 -125.5l-506 -253c48 -76.667 125.333 -115 232 -115c46 0 109.667 14.667 191 44c14.667 5.33301 26 8 34 8c20 0 37.167 -7.83301 51.5 -23.5s21.5 -33.834 21.5 -54.501
c0 -42 -41 -74.667 -123 -98c-60 -17.333 -118.333 -26 -175 -26c-120.667 0 -221 38 -301 114s-120 174 -120 294c0 166 69 315 207 447c136 130 287.667 195 455 195c66.667 0 122.5 -21.667 167.5 -65s67.5 -98.333 67.5 -165zM783.999 820.001
c0 53.333 -28.333 80.001 -85 80.001c-126 0 -242.333 -50.333 -349 -151c-108.667 -102.667 -163 -216.334 -163 -341.001c398 162.667 597 300 597 412z" />
    <glyph glyph-name="eacute" unicode="&#xe9;" horiz-adv-x="916" 
d="M1045 1422c0 -30.667 -14.999 -52.667 -44.999 -66l-341 -150c-10.667 -4.66699 -21.334 -7 -32.001 -7c-20.667 0 -38.167 8 -52.5 24s-21.5 34.333 -21.5 55c0 30.667 15.333 52.667 46 66l340 150c11.333 4.66699 22.333 7 33 7c20 0 37.167 -8 51.5 -24
s21.5 -34.333 21.5 -55zM934.001 820c0 -62.667 -19.167 -121.499 -57.5 -176.499s-86.5 -96.833 -144.5 -125.5l-506 -253c48 -76.667 125.333 -115 232 -115c46 0 109.667 14.667 191 44c14.667 5.33301 26 8 34 8c20 0 37.167 -7.83301 51.5 -23.5
s21.5 -33.834 21.5 -54.501c0 -42 -41 -74.667 -123 -98c-60 -17.333 -118.333 -26 -175 -26c-120.667 0 -221 38 -301 114s-120 174 -120 294c0 166 69 315 207 447c136 130 287.667 195 455 195c66.667 0 122.5 -21.667 167.5 -65s67.5 -98.333 67.5 -165z
M784.001 820.001c0 53.333 -28.333 80.001 -85 80.001c-126 0 -242.333 -50.333 -349 -151c-108.667 -102.667 -163 -216.334 -163 -341.001c398 162.667 597 300 597 412z" />
    <glyph glyph-name="ecircumflex" unicode="&#xea;" horiz-adv-x="932" 
d="M1080 1277c0 -20.667 -7.49902 -38.833 -22.499 -54.5s-32.833 -23.5 -53.5 -23.5c-16.667 0 -32.334 6 -47.001 18l-145 118l-221 -125c-12.667 -7.33301 -25.667 -11 -39 -11c-20 0 -37.333 8 -52 24s-22 34 -22 54c0 27.333 13 48.333 39 63l259 147
c17.333 9.33301 32 14 44 14c16 0 33.333 -7.33301 52 -22l179 -146c19.333 -15.333 29 -34 29 -56zM934.001 820.001c0 -62.667 -19.167 -121.499 -57.5 -176.499s-86.5 -96.833 -144.5 -125.5l-506 -253c48 -76.667 125.333 -115 232 -115c46 0 109.667 14.667 191 44
c14.667 5.33301 26 8 34 8c20 0 37.167 -7.83301 51.5 -23.5s21.5 -33.834 21.5 -54.501c0 -42 -41 -74.667 -123 -98c-60 -17.333 -118.333 -26 -175 -26c-120.667 0 -221 38 -301 114s-120 174 -120 294c0 166 69 315 207 447c136 130 287.667 195 455 195
c66.667 0 122.5 -21.667 167.5 -65s67.5 -98.333 67.5 -165zM784.001 820.002c0 53.333 -28.333 80.001 -85 80.001c-126 0 -242.333 -50.333 -349 -151c-108.667 -102.667 -163 -216.334 -163 -341.001c398 162.667 597 300 597 412z" />
    <glyph glyph-name="edieresis" unicode="&#xeb;" horiz-adv-x="932" 
d="M1129 1323c0 -32.667 -12.5 -61.332 -37.5 -85.999s-54.167 -37 -87.5 -37c-28.667 0 -53 9.83301 -73 29.5s-30 43.834 -30 72.501c0 33.333 12.333 62.166 37 86.499s53.334 36.5 86.001 36.5c29.333 0 54.166 -9.83301 74.499 -29.5s30.5 -43.834 30.5 -72.501z
M679 1323c0 -32.667 -12.5 -61.332 -37.5 -85.999s-54.167 -37 -87.5 -37c-28.667 0 -53 9.83301 -73 29.5s-30 43.834 -30 72.501c0 33.333 12.333 62.166 37 86.499s53.334 36.5 86.001 36.5c29.333 0 54.166 -9.83301 74.499 -29.5s30.5 -43.834 30.5 -72.501z
M934 820.004c0 -62.667 -19.167 -121.499 -57.5 -176.499s-86.5 -96.833 -144.5 -125.5l-506 -253c48 -76.667 125.333 -115 232 -115c46 0 109.667 14.667 191 44c14.667 5.33301 26 8 34 8c20 0 37.167 -7.83301 51.5 -23.5s21.5 -33.834 21.5 -54.501
c0 -42 -41 -74.667 -123 -98c-60 -17.333 -118.333 -26 -175 -26c-120.667 0 -221 38 -301 114s-120 174 -120 294c0 166 69 315 207 447c136 130 287.667 195 455 195c66.667 0 122.5 -21.667 167.5 -65s67.5 -98.333 67.5 -165zM784 820.005
c0 53.333 -28.333 80.001 -85 80.001c-126 0 -242.333 -50.333 -349 -151c-108 -102.667 -162.333 -216.334 -163 -341.001c398 162.667 597 300 597 412z" />
    <glyph glyph-name="igrave" unicode="&#xec;" horiz-adv-x="450" 
d="M652 1277c0 -20 -7.33301 -38 -22 -54s-32 -24 -52 -24c-13.333 0 -26.666 3.66699 -39.999 11l-259 150c-26 14.667 -39 35.667 -39 63c0 20 7.33301 38 22 54s32 24 52 24c13.333 0 26.666 -3.66699 39.999 -11l259 -150c26 -14.667 39 -35.667 39 -63zM421 978
c0 -7.33301 -1 -14.666 -3 -21.999l-241 -900c-10 -37.333 -33.333 -56 -70 -56c-52 0 -78 24 -78 72c0 7.33301 1 14.666 3 21.999l241 900c10 37.333 33.333 56 70 56c52 0 78 -24 78 -72z" />
    <glyph glyph-name="iacute" unicode="&#xed;" horiz-adv-x="450" 
d="M692 1422c0 -30.667 -15.333 -52.667 -46 -66l-340 -150c-10.667 -4.66699 -21.667 -7 -33 -7c-20 0 -37.167 8 -51.5 24s-21.5 34.333 -21.5 55c0 30.667 15.333 52.667 46 66l340 150c11.333 4.66699 22.333 7 33 7c20 0 37.167 -8 51.5 -24s21.5 -34.333 21.5 -55z
M421 978c0 -7.33301 -1 -14.666 -3 -21.999l-241 -900c-10 -37.333 -33.333 -56 -70 -56c-52 0 -78 24 -78 72c0 7.33301 1 14.666 3 21.999l241 900c10 37.333 33.333 56 70 56c52 0 78 -24 78 -72z" />
    <glyph glyph-name="icircumflex" unicode="&#xee;" horiz-adv-x="450" 
d="M726 1277c0 -20.667 -7.49902 -38.833 -22.499 -54.5s-32.833 -23.5 -53.5 -23.5c-16.667 0 -32.334 6 -47.001 18l-145 118l-221 -125c-12.667 -7.33301 -25.667 -11 -39 -11c-20 0 -37.333 8 -52 24s-22 34 -22 54c0 27.333 13 48.333 39 63l259 147
c17.333 9.33301 32 14 44 14c16 0 33.333 -7.33301 52 -22l179 -146c19.333 -15.333 29 -34 29 -56zM420.001 978.001c0 -7.33301 -1 -14.666 -3 -21.999l-241 -900c-10 -37.333 -33.333 -56 -70 -56c-52 0 -78 24 -78 72c0 7.33301 1 14.666 3 21.999l241 900
c10 37.333 33.667 56 71 56c51.333 0 77 -24 77 -72z" />
    <glyph glyph-name="idieresis" unicode="&#xef;" horiz-adv-x="450" 
d="M775 1323c0 -32.667 -12.5 -61.332 -37.5 -85.999s-54.167 -37 -87.5 -37c-28.667 0 -53 9.83301 -73 29.5s-30 43.834 -30 72.501c0 33.333 12.333 62.166 37 86.499s53.667 36.5 87 36.5c28.667 0 53.167 -9.83301 73.5 -29.5s30.5 -43.834 30.5 -72.501zM325 1323
c0 -32.667 -12.5 -61.332 -37.5 -85.999s-54.167 -37 -87.5 -37c-28.667 0 -53 9.83301 -73 29.5s-30 43.834 -30 72.501c0 33.333 12.333 62.166 37 86.499s53.667 36.5 87 36.5c28.667 0 53.167 -9.83301 73.5 -29.5s30.5 -43.834 30.5 -72.501zM421 978.004
c0 -7.33301 -1 -14.666 -3 -21.999l-242 -900c-10 -37.333 -33.333 -56 -70 -56c-52 0 -78 24 -78 72c0 7.33301 1 14.666 3 21.999l242 900c10 37.333 33.333 56 70 56c52 0 78 -24 78 -72z" />
    <glyph glyph-name="eth" unicode="&#xf0;" horiz-adv-x="1156" 
d="M1229 1275c0 -50 -25 -74.999 -75 -74.999h-340l233 -318c48 -64.667 72 -144.667 72 -240c0 -166 -68.5 -314.5 -205.5 -445.5s-289.167 -196.5 -456.5 -196.5c-120 0 -220 38 -300 114s-120 174 -120 294c0 165.333 68.5 313.666 205.5 444.999s288.833 197 455.5 197
c14 0 28 -0.666992 42 -2l-112 152h-224c-50 0 -75 25 -75 75s25 75 75 75h114c-25.333 28.667 -38 54 -38 76c0 20 8 37.5 24 52.5s34 22.5 54 22.5c23.333 0 43 -10.667 59 -32l87 -119h450c50 0 75 -25 75 -75zM969 642.001c0 78 -25.6689 141 -77.002 189
c-50 46 -114.333 69 -193 69c-125.333 0 -241.666 -50.333 -348.999 -151c-108.667 -102.667 -163 -216.334 -163 -341.001c0 -78 25.333 -140.5 76 -187.5s115.334 -70.5 194.001 -70.5c125.333 0 242 50.833 350 152.5s162 214.834 162 339.501z" />
    <glyph glyph-name="ntilde" unicode="&#xf1;" horiz-adv-x="1005" 
d="M1125 1352c0 -45.333 -30.998 -83.333 -92.998 -114c-51.333 -25.333 -102.333 -38 -153 -38c-58 0 -111.833 25 -161.5 75s-82.5 75 -98.5 75c-41.333 0 -75.833 -12.667 -103.5 -38s-49.167 -38 -64.5 -38c-20 0 -38.167 7.33301 -54.5 22s-24.5 32 -24.5 52
c0 45.333 31 83.333 93 114c52 25.333 103.333 38 154 38c58 0 111.833 -25 161.5 -75s82.5 -75 98.5 -75c41.333 0 75.666 12.667 102.999 38s48.666 38 63.999 38c20.667 0 39 -7.33301 55 -22s24 -32 24 -52zM953.002 753c0 -32 -4.33398 -64.3301 -13.001 -96.9971
l-160 -600c-10 -37.333 -33.667 -56 -71 -56c-51.333 0 -77 24 -77 72c0 7.33301 1 14.666 3 21.999l160 600c5.33301 20.667 8 40.334 8 59.001c0 45.333 -14.333 81.166 -43 107.499s-66 39.5 -112 39.5c-67.333 0 -131 -24.167 -191 -72.5s-99 -105.5 -117 -171.5
l-160 -600c-10 -37.333 -33.667 -56 -71 -56c-51.333 0 -77 24 -77 72c0 7.33301 1 14.666 3 21.999l241 900c10 37.333 33.333 56 70 56c46.667 0 72.334 -21.667 77.001 -65c72.667 43.333 147.667 65 225 65c87.333 0 160 -27.833 218 -83.5s87 -126.834 87 -213.501z
" />
    <glyph glyph-name="ograve" unicode="&#xf2;" horiz-adv-x="1156" 
d="M1005 1277c0 -20 -7.33398 -38 -22.001 -54s-32 -24 -52 -24c-13.333 0 -26.333 3.66699 -39 11l-260 150c-26 14.667 -39 35.667 -39 63c0 20 7.33301 38 22 54s32.334 24 53.001 24c12.667 0 25.667 -3.66699 39 -11l260 -150c25.333 -14.667 38 -35.667 38 -63z
M1119 642c0 -166.667 -68.501 -315.333 -205.501 -446s-288.833 -196 -455.5 -196c-120.667 0 -221 38 -301 114s-120 174 -120 294c0 166.667 69 315.667 207 447c136 130 287.667 195 455 195c120.667 0 220.834 -38 300.501 -114s119.5 -174 119.5 -294zM968.998 642.001
c0 78 -25.668 141 -77.001 189c-50 46 -114.333 69 -193 69c-125.333 0 -241.666 -50.333 -348.999 -151c-108.667 -102.667 -163 -216.334 -163 -341.001c0 -78 25.333 -140.5 76 -187.5s115.667 -70.5 195 -70.5c124.667 0 241 50.833 349 152.5s162 214.834 162 339.501z
" />
    <glyph glyph-name="oacute" unicode="&#xf3;" horiz-adv-x="1156" 
d="M1045 1422c0 -30.667 -14.999 -52.667 -44.999 -66l-341 -150c-10.667 -4.66699 -21.334 -7 -32.001 -7c-20.667 0 -38.167 8 -52.5 24s-21.5 34.333 -21.5 55c0 30.667 15.333 52.667 46 66l340 150c11.333 4.66699 22.333 7 33 7c20 0 37.167 -8 51.5 -24
s21.5 -34.333 21.5 -55zM1119 642c0 -166.667 -68.501 -315.333 -205.501 -446s-288.833 -196 -455.5 -196c-120.667 0 -221 38 -301 114s-120 174 -120 294c0 166.667 69 315.667 207 447c136 130 287.667 195 455 195c120.667 0 220.834 -38 300.501 -114
s119.5 -174 119.5 -294zM969 642.001c0 78 -25.668 141 -77.001 189c-50 46 -114.333 69 -193 69c-125.333 0 -241.666 -50.333 -348.999 -151c-108.667 -102.667 -163 -216.334 -163 -341.001c0 -78 25.333 -140.5 76 -187.5s115.667 -70.5 195 -70.5
c124.667 0 241 50.833 349 152.5s162 214.834 162 339.501z" />
    <glyph glyph-name="ocircumflex" unicode="&#xf4;" horiz-adv-x="1156" 
d="M1080 1277c0 -20.667 -7.49902 -38.833 -22.499 -54.5s-32.833 -23.5 -53.5 -23.5c-16.667 0 -32.334 6 -47.001 18l-145 118l-221 -125c-12.667 -7.33301 -25.667 -11 -39 -11c-20 0 -37.333 8 -52 24s-22 34 -22 54c0 27.333 13 48.333 39 63l259 147
c17.333 9.33301 32 14 44 14c16 0 33.333 -7.33301 52 -22l179 -146c19.333 -15.333 29 -34 29 -56zM1119 642.001c0 -166.667 -68.501 -315.333 -205.501 -446s-288.833 -196 -455.5 -196c-120.667 0 -221 38 -301 114s-120 174 -120 294c0 166.667 69 315.667 207 447
c136 130 287.667 195 455 195c120.667 0 220.834 -38 300.501 -114s119.5 -174 119.5 -294zM969 642.002c0 78 -25.668 141 -77.001 189c-50 46 -114.333 69 -193 69c-125.333 0 -241.666 -50.333 -348.999 -151c-108.667 -102.667 -163 -216.334 -163 -341.001
c0 -78 25.333 -140.5 76 -187.5s115.667 -70.5 195 -70.5c124.667 0 241 50.833 349 152.5s162 214.834 162 339.501z" />
    <glyph glyph-name="otilde" unicode="&#xf5;" horiz-adv-x="1156" 
d="M1175 1352c0 -45.333 -30.668 -83.333 -92.001 -114c-52 -25.333 -103.333 -38 -154 -38c-58 0 -111.833 25 -161.5 75s-82.5 75 -98.5 75c-41.333 0 -75.666 -12.667 -102.999 -38s-48.666 -38 -63.999 -38c-20.667 0 -39 7.33301 -55 22s-24 32 -24 52
c0 45.333 31 83.333 93 114c51.333 25.333 102.333 38 153 38c58 0 111.833 -25 161.5 -75s82.5 -75 98.5 -75c41.333 0 75.666 12.667 102.999 38s49 38 65 38c20 0 38 -7.33301 54 -22s24 -32 24 -52zM1119 642c0 -166.667 -68.501 -315.333 -205.501 -446
s-288.833 -196 -455.5 -196c-120.667 0 -221 38 -301 114s-120 174 -120 294c0 166.667 69 315.667 207 447c136 130 287.667 195 455 195c120.667 0 220.834 -38 300.501 -114s119.5 -174 119.5 -294zM968.998 642.001c0 78 -25.668 141 -77.001 189
c-50 46 -114.333 69 -193 69c-125.333 0 -241.666 -50.333 -348.999 -151c-108.667 -102.667 -163 -216.334 -163 -341.001c0 -78 25.333 -140.5 76 -187.5s115.667 -70.5 195 -70.5c124.667 0 241 50.833 349 152.5s162 214.834 162 339.501z" />
    <glyph glyph-name="odieresis" unicode="&#xf6;" horiz-adv-x="1156" 
d="M1129 1323c0 -32.667 -12.5 -61.332 -37.5 -85.999s-54.167 -37 -87.5 -37c-28.667 0 -53 9.83301 -73 29.5s-30 43.834 -30 72.501c0 33.333 12.333 62.166 37 86.499s53.334 36.5 86.001 36.5c29.333 0 54.166 -9.83301 74.499 -29.5s30.5 -43.834 30.5 -72.501z
M679 1323c0 -32.667 -12.5 -61.332 -37.5 -85.999s-54.167 -37 -87.5 -37c-28.667 0 -53 9.83301 -73 29.5s-30 43.834 -30 72.501c0 33.333 12.333 62.166 37 86.499s53.334 36.5 86.001 36.5c29.333 0 54.166 -9.83301 74.499 -29.5s30.5 -43.834 30.5 -72.501z
M1119 642.004c0 -166.667 -68.501 -315.333 -205.501 -446s-288.833 -196 -455.5 -196c-120.667 0 -221 38 -301 114s-120 174 -120 294c0 166.667 69 315.667 207 447c136 130 287.667 195 455 195c120.667 0 220.834 -38 300.501 -114s119.5 -174 119.5 -294z
M968.999 642.005c0 78 -25.668 141 -77.001 189c-50 46 -114.333 69 -193 69c-125.333 0 -241.666 -50.333 -348.999 -151c-108.667 -102.667 -163 -216.334 -163 -341.001c0 -78 25.333 -140.5 76 -187.5s115.667 -70.5 195 -70.5c124.667 0 241 50.833 349 152.5
s162 214.834 162 339.501z" />
    <glyph glyph-name="divide" unicode="&#xf7;" horiz-adv-x="1150" 
d="M831 1061c0 -32.667 -12.667 -61.332 -38 -85.999s-54.333 -37 -87 -37c-29.333 0 -54.166 10.167 -74.499 30.5s-30.5 44.833 -30.5 73.5c0 32.667 12.5 61 37.5 85s54.167 36 87.5 36c29.333 0 54.166 -9.83301 74.499 -29.5s30.5 -43.834 30.5 -72.501zM980 638.002
c0 -50 -25 -75 -75 -75h-600c-50 0 -75 25 -75 75s25 75 75 75h600c50 0 75 -25 75 -75zM610 236.002c0 -32.667 -12.667 -61.332 -38 -85.999s-54.333 -37 -87 -37c-29.333 0 -54.166 10.167 -74.499 30.5s-30.5 44.833 -30.5 73.5c0 32.667 12.5 61 37.5 85
s54.167 36 87.5 36c29.333 0 54.166 -9.83301 74.499 -29.5s30.5 -43.834 30.5 -72.501z" />
    <glyph glyph-name="oslash" unicode="&#xf8;" horiz-adv-x="1156" 
d="M1225 973c0 -22 -10 -41 -30 -57l-115 -91c26 -56 39 -117 39 -183c0 -166 -68.5 -314.5 -205.5 -445.5s-288.833 -196.5 -455.5 -196.5c-116 0 -213.333 35 -292 105c-84.667 -70.667 -137.667 -106 -159 -106c-20 0 -37.667 7.83301 -53 23.5s-23 33.834 -23 54.501
c0 22 10 41 30 57l116 91c-26.667 56 -40 117 -40 183c0 166.667 69 315.667 207 447c136 130 287.667 195 455 195c115.333 0 212.333 -35 291 -105c85.333 70.667 138.333 106 159 106s38.5 -7.83301 53.5 -23.5s22.5 -33.834 22.5 -54.501zM869 850
c-47.333 33.333 -104.001 50.001 -170.001 50.001c-125.333 0 -241.666 -50.333 -348.999 -151c-108.667 -102.667 -163 -216.334 -163 -341.001c0 -30 4.33301 -58.667 13 -86zM968.999 642.001c0 30 -4 58.666 -12 85.999l-670 -528c47.333 -33.333 104.333 -50 171 -50
c124.667 0 241 50.833 349 152.5s162 214.834 162 339.501z" />
    <glyph glyph-name="ugrave" unicode="&#xf9;" horiz-adv-x="955" 
d="M905 1277c0 -20 -7.33203 -38 -21.999 -54s-32.334 -24 -53.001 -24c-12.667 0 -25.667 3.66699 -39 11l-260 150c-25.333 14.667 -38 35.667 -38 63c0 20 7.33301 38 22 54s32 24 52 24c13.333 0 26.333 -3.66699 39 -11l260 -150c26 -14.667 39 -35.667 39 -63z
M974.001 978c0 -7.33301 -1 -14.6689 -3 -22.002l-161 -600c-26.667 -99.333 -83 -183.333 -169 -252c-88 -69.333 -182.667 -104 -284 -104c-87.333 0 -160 27.833 -218 83.5s-87 126.834 -87 213.501c0 32 4.33301 64.333 13 97l161 600c10 37.333 33.333 56 70 56
c52 0 78 -24 78 -72c0 -7.33301 -1 -14.666 -3 -21.999l-161 -600c-5.33301 -20.667 -8 -40.334 -8 -59.001c0 -45.333 14.333 -81.166 43 -107.499s66 -39.5 112 -39.5c67.333 0 131 24.167 191 72.5s99 105.5 117 171.5l161 600c10 37.333 33.333 56 70 56
c52 0 78 -24 78 -72z" />
    <glyph glyph-name="uacute" unicode="&#xfa;" horiz-adv-x="955" 
d="M944 1422c0 -30.667 -15.001 -52.667 -45.001 -66l-340 -150c-11.333 -4.66699 -22.333 -7 -33 -7c-20 0 -37.167 8 -51.5 24s-21.5 34.333 -21.5 55c0 30.667 15 52.667 45 66l341 150c10.667 4.66699 21.334 7 32.001 7c20.667 0 38 -8 52 -24s21 -34.333 21 -55z
M973.999 978c0 -7.33301 -1 -14.6689 -3 -22.002l-161 -600c-26.667 -99.333 -83 -183.333 -169 -252c-88 -69.333 -182.667 -104 -284 -104c-87.333 0 -160 27.833 -218 83.5s-87 126.834 -87 213.501c0 32 4.33301 64.333 13 97l161 600c10 37.333 33.333 56 70 56
c52 0 78 -24 78 -72c0 -7.33301 -1 -14.666 -3 -21.999l-161 -600c-5.33301 -20.667 -8 -40.334 -8 -59.001c0 -45.333 14.333 -81.166 43 -107.499s66 -39.5 112 -39.5c67.333 0 131 24.167 191 72.5s99 105.5 117 171.5l161 600c10 37.333 33.333 56 70 56
c52 0 78 -24 78 -72z" />
    <glyph glyph-name="ucircumflex" unicode="&#xfb;" horiz-adv-x="955" 
d="M980 1277c0 -20.667 -7.66699 -38.833 -23 -54.5s-33 -23.5 -53 -23.5c-16.667 0 -32.667 6 -48 18l-145 118l-220 -125c-13.333 -7.33301 -26.333 -11 -39 -11c-20 0 -37.333 8 -52 24s-22 34 -22 54c0 27.333 13 48.333 39 63l259 147c16.667 9.33301 31 14 43 14
c16.667 0 34 -7.33301 52 -22l180 -146c19.333 -15.333 29 -34 29 -56zM974 978.001c0 -7.33301 -1 -14.6689 -3 -22.002l-161 -600c-26.667 -99.333 -83 -183.333 -169 -252c-88 -69.333 -182.667 -104 -284 -104c-87.333 0 -160 27.833 -218 83.5s-87 126.834 -87 213.501
c0 32 4.33301 64.333 13 97l161 600c10 37.333 33.333 56 70 56c52 0 78 -24 78 -72c0 -7.33301 -1 -14.666 -3 -21.999l-161 -600c-5.33301 -20.667 -8 -40.334 -8 -59.001c0 -45.333 14.333 -81.166 43 -107.499s66 -39.5 112 -39.5c67.333 0 131 24.167 191 72.5
s99 105.5 117 171.5l161 600c10 37.333 33.333 56 70 56c52 0 78 -24 78 -72z" />
    <glyph glyph-name="udieresis" unicode="&#xfc;" horiz-adv-x="955" 
d="M1028 1323c0 -32.667 -12.5 -61.332 -37.5 -85.999s-53.833 -37 -86.5 -37c-28.667 0 -53.167 9.83301 -73.5 29.5s-30.5 43.834 -30.5 72.501c0 33.333 12.333 62.166 37 86.499s53.667 36.5 87 36.5c28.667 0 53.167 -9.83301 73.5 -29.5s30.5 -43.834 30.5 -72.501z
M578 1323c0 -32.667 -12.5 -61.332 -37.5 -85.999s-53.833 -37 -86.5 -37c-28.667 0 -53.167 9.83301 -73.5 29.5s-30.5 43.834 -30.5 72.501c0 33.333 12.333 62.166 37 86.499s53.667 36.5 87 36.5c28.667 0 53.167 -9.83301 73.5 -29.5s30.5 -43.834 30.5 -72.501z
M974 978.004c0 -7.33301 -0.998047 -14.6689 -2.99805 -22.002l-161 -600c-26.667 -99.333 -83 -183.333 -169 -252c-88 -69.333 -182.667 -104 -284 -104c-87.333 0 -160 27.833 -218 83.5s-87 126.834 -87 213.501c0 32 4.33301 64.333 13 97l161 600
c10 37.333 33.333 56 70 56c52 0 78 -24 78 -72c0 -7.33301 -1 -14.666 -3 -21.999l-161 -600c-5.33301 -20.667 -8 -40.334 -8 -59.001c0 -45.333 14.333 -81.166 43 -107.499s66 -39.5 112 -39.5c67.333 0 131.166 24.167 191.499 72.5s99.166 105.5 116.499 171.5
l161 600c10 37.333 33.333 56 70 56c52 0 78 -24 78 -72z" />
    <glyph glyph-name="yacute" unicode="&#xfd;" horiz-adv-x="1060" 
d="M994 1422c0 -30.667 -15.001 -52.667 -45.001 -66l-340 -150c-11.333 -4.66699 -22.333 -7 -33 -7c-20 0 -37.167 8 -51.5 24s-21.5 34.333 -21.5 55c0 30.667 15 52.667 45 66l341 150c10.667 4.66699 21.334 7 32.001 7c20.667 0 38 -8 52 -24s21 -34.333 21 -55z
M1024 978c0 -7.33301 -1.00098 -14.6719 -3.00098 -22.0049l-161 -600l-91 -351c-43.333 -140 -97 -245.667 -161 -317c-82.667 -92 -190 -138 -322 -138c-67.333 0 -127 17.333 -179 52c-54 36.667 -91 86.334 -111 149.001c-3.33301 8.66699 -5 17.334 -5 26.001
c0 20.667 8 37.834 24 51.501s34 20.5 54 20.5c26 0 53.167 -24.833 81.5 -74.5s73.5 -74.5 135.5 -74.5c68.667 0 132.834 24.167 192.501 72.5s98.167 105.5 115.5 171.5l32 117c-70.667 -40.667 -143.667 -61 -219 -61c-87.333 0 -160 27.833 -218 83.5
s-87 126.834 -87 213.501c0 32 4.33301 64.333 13 97l161 600c10 37.333 33.333 56 70 56c52 0 78 -24 78 -72c0 -7.33301 -1 -14.666 -3 -21.999l-161 -600c-5.33301 -20.667 -8 -40.334 -8 -59.001c0 -45.333 14.333 -81.166 43 -107.499s66 -39.5 112 -39.5
c67.333 0 131 24.167 191 72.5s99 105.5 117 171.5l161 600c10 37.333 33.333 56 70 56c52 0 78 -24 78 -72z" />
    <glyph glyph-name="thorn" unicode="&#xfe;" horiz-adv-x="1155" 
d="M1130 678c0 -42.667 -5.33301 -83.333 -16 -122c-44.667 -155.333 -133.334 -286 -266.001 -392c-135.333 -109.333 -282.333 -164 -441 -164c-81.333 0 -157.666 16.667 -228.999 50l-119 -444c-10 -37.333 -33.333 -56 -70 -56c-52 0 -78 24 -78 72
c0 7.33301 1 14.666 3 21.999l482 1800c10 37.333 33.667 56 71 56c51.333 0 77 -24 77 -72c0 -30 -18 -108.667 -54 -236l-74 -254c105.333 74.667 216 112 332 112c110 0 201.167 -34.667 273.5 -104s108.5 -158.666 108.5 -267.999zM980 679.001
c0 67.333 -21.666 121 -64.999 161s-99 60 -167 60c-96.667 0 -187 -34.333 -271 -103c-80 -66 -134.667 -146.333 -164 -241c-0.666992 -2.66699 -32.334 -121.667 -95.001 -357c46.667 -32.667 109.667 -49 189 -49c134 0 262 54.333 384 163c126 112 189 234 189 366z
" />
    <glyph glyph-name="ydieresis" unicode="&#xff;" horiz-adv-x="1060" 
d="M1075 1310c0 -32.667 -12.5 -61.332 -37.5 -85.999s-54.167 -37 -87.5 -37c-28.667 0 -53 9.83301 -73 29.5s-30 43.834 -30 72.501c0 33.333 12.333 62.166 37 86.499s53.334 36.5 86.001 36.5c29.333 0 54.166 -9.83301 74.499 -29.5s30.5 -43.834 30.5 -72.501z
M625 1310c0 -32.667 -12.5 -61.332 -37.5 -85.999s-54.167 -37 -87.5 -37c-28.667 0 -53 9.83301 -73 29.5s-30 43.834 -30 72.501c0 33.333 12.333 62.166 37 86.499s53.334 36.5 86.001 36.5c29.333 0 54.166 -9.83301 74.499 -29.5s30.5 -43.834 30.5 -72.501z
M1024 978.004c0 -7.33301 -1.00098 -14.6719 -3.00098 -22.0049l-161 -600l-91 -351c-43.333 -140 -97 -245.667 -161 -317c-82.667 -92 -190 -138 -322 -138c-67.333 0 -127 17.333 -179 52c-54 36.667 -91 86.334 -111 149.001c-3.33301 8.66699 -5 17.334 -5 26.001
c0 20.667 8 37.834 24 51.501s34 20.5 54 20.5c26 0 53.167 -24.833 81.5 -74.5s73.5 -74.5 135.5 -74.5c68.667 0 132.834 24.167 192.501 72.5s98.167 105.5 115.5 171.5l32 117c-70.667 -40.667 -143.667 -61 -219 -61c-87.333 0 -160 27.833 -218 83.5
s-87 126.834 -87 213.501c0 32 4.33301 64.333 13 97l161 600c10 37.333 33.333 56 70 56c52 0 78 -24 78 -72c0 -7.33301 -1 -14.666 -3 -21.999l-161 -600c-5.33301 -20.667 -8 -40.334 -8 -59.001c0 -45.333 14.333 -81.166 43 -107.499s66 -39.5 112 -39.5
c67.333 0 131 24.167 191 72.5s99 105.5 117 171.5l161 600c10 37.333 33.333 56 70 56c52 0 78 -24 78 -72z" />
    <glyph glyph-name="Amacron" unicode="&#x100;" horiz-adv-x="1605" 
d="M1894 1800c0 -50 -25 -75 -75 -75h-1350c-50 0 -75 25 -75 75s25 75 75 75h1350c50 0 75 -25 75 -75zM1432 72c0 -48 -25.667 -72 -77 -72c-38.667 -0 -62.667 19.333 -72 58l-91 393c-4.66699 -0.666992 -9.66699 -1 -15 -1h-750c-12 0 -23 2.33301 -33 7l-328 -428
c-15.333 -20 -34.666 -30 -57.999 -30c-20 0 -38 7.5 -54 22.5s-24 32.5 -24 52.5c0 16.667 5.66699 32.334 17 47.001l1028 1338c21.333 28 43.666 42 66.999 42c40.667 0 66.667 -24.333 78 -73l310 -1336c1.33301 -6.66699 2 -13.334 2 -20.001zM1158 600l-152 653
l-502 -653h654z" />
    <glyph glyph-name="amacron" unicode="&#x101;" horiz-adv-x="1156" 
d="M1224 1350c0 -50 -25 -75 -75 -75h-600c-50 0 -75 25 -75 75s25 75 75 75h600c50 0 75 -25 75 -75zM1098 874c0 -3.33301 -2.33105 -13.333 -6.99805 -30l-211 -788c-10 -37.333 -33.667 -56 -71 -56c-51.333 0 -77 24 -77 72c0 10.667 2.33301 24 7 40
c-104.667 -74.667 -215.334 -112 -332.001 -112c-109.333 0 -200.333 34.667 -273 104s-109 158.333 -109 267c0 45.333 5.66699 86.333 17 123c47.333 156.667 135.666 287.667 264.999 393c134 108.667 281 163 441 163c151.333 0 260 -40 326 -120
c16 -19.333 24 -38 24 -56zM938.002 852c-50 32 -113.333 48.001 -190 48.001c-133.333 0 -261.333 -54.333 -384 -163c-126 -112 -189 -234 -189 -366c0 -67.333 21.667 -121 65 -161s99 -60 167 -60c97.333 0 187.666 34.333 270.999 103
c80.667 66 135.334 146.333 164.001 241c0 1.33301 32 120.666 96 357.999z" />
    <glyph glyph-name="Abreve" unicode="&#x102;" horiz-adv-x="1605" 
d="M1464 1875c0 -15.333 -6.66992 -31.667 -20.0029 -49c-32.667 -43.333 -77.667 -83 -135 -119c-63.333 -38.667 -119.333 -58 -168 -58c-46 0 -96.667 20.333 -152 61c-49.333 36.667 -87 77.667 -113 123c-9.33301 16.667 -14 31 -14 43c0 20 7.83301 37.5 23.5 52.5
s33.834 22.5 54.501 22.5c22.667 0 54.834 -25.333 96.501 -76s76.5 -76 104.5 -76c36.667 0 82.334 25.333 137.001 76s91 76 109 76c20 0 37.833 -7.66699 53.5 -23s23.5 -33 23.5 -53zM1431 71.999c0 -48 -25.666 -72 -76.999 -72c-38.667 0 -62.334 19.333 -71.001 58
l-92 393c-4.66699 -0.666992 -9.66699 -1 -15 -1h-750c-12 0 -23 2.33301 -33 7l-328 -428c-15.333 -20 -34.666 -30 -57.999 -30c-20 0 -38 7.5 -54 22.5s-24 32.5 -24 52.5c0 16.667 5.66699 32.334 17 47.001l1028 1338c21.333 28 43.666 42 66.999 42
c40.667 0 66.667 -24.333 78 -73l310 -1336c1.33301 -6.66699 2 -13.334 2 -20.001zM1157 599.999l-152 653l-502 -653h654z" />
    <glyph glyph-name="abreve" unicode="&#x103;" horiz-adv-x="1155" 
d="M1170 1425c0 -15.333 -6.66895 -31.6689 -20.002 -49.002c-32 -43.333 -77 -83 -135 -119c-63.333 -39.333 -119 -59 -167 -59c-46.667 0 -97.334 20.667 -152.001 62c-50 36.667 -88 77.334 -114 122.001c-9.33301 16.667 -14 31.334 -14 44.001
c0 20 7.83301 37.5 23.5 52.5s33.834 22.5 54.501 22.5c22.667 0 54.834 -25.5 96.501 -76.5s76.834 -76.5 105.501 -76.5c36 0 81.333 25.5 136 76.5s91 76.5 109 76.5c20 0 37.833 -7.66699 53.5 -23s23.5 -33 23.5 -53zM1098 873.997
c0 -3.33301 -2.33105 -13.333 -6.99805 -30l-211 -788c-10 -37.333 -33.667 -56 -71 -56c-51.333 0 -77 24 -77 72c0 10.667 2.33301 24 7 40c-104.667 -74.667 -215.334 -112 -332.001 -112c-109.333 0 -200.333 34.667 -273 104s-109 158.333 -109 267
c0 45.333 5.66699 86.333 17 123c47.333 156.667 135.666 287.667 264.999 393c134 108.667 281 163 441 163c151.333 0 260 -40 326 -120c16 -19.333 24 -38 24 -56zM938 851.997c-50 32 -113.333 48.001 -190 48.001c-133.333 0 -261.333 -54.333 -384 -163
c-126 -112 -189 -234 -189 -366c0 -67.333 21.667 -121 65 -161s99 -60 167 -60c97.333 0 187.666 34.333 270.999 103c80.667 66 135.334 146.333 164.001 241c0 1.33301 32 120.666 96 357.999z" />
    <glyph glyph-name="Aogonek" unicode="&#x104;" horiz-adv-x="1605" 
d="M1537 -262c0 -15.333 -6.33496 -31.334 -19.002 -48.001c-30.667 -40.667 -72.667 -74.167 -126 -100.5s-105.666 -39.5 -156.999 -39.5c-70.667 0 -129.667 22.667 -177 68s-71 103.333 -71 174c0 77.333 27.667 149.333 83 216c52.667 63.333 117.334 106 194.001 128
l-73 315c-4.66699 -0.666992 -9.66699 -1 -15 -1h-750c-12 0 -23 2.33301 -33 7l-328 -428c-15.333 -20 -34.666 -30 -57.999 -30c-20 0 -38 7.5 -54 22.5s-24 32.5 -24 52.5c0 16.667 5.66699 32.334 17 47.001l1028 1338c21.333 28 43.666 42 66.999 42
c40.667 0 66.667 -24.333 78 -73l310 -1336c1.33301 -7.33301 2 -14.333 2 -21c0 -47.333 -25 -71 -75 -71c-52.667 -0 -102.334 -21.667 -149.001 -65s-70 -91 -70 -143c0 -61.333 32.667 -92 98 -92c45.333 0 90.5 19 135.5 57s74.5 57 88.5 57
c20.667 0 38.834 -7.66699 54.501 -23s23.5 -33 23.5 -53zM1157 599.999l-152 653l-502 -653h654z" />
    <glyph glyph-name="aogonek" unicode="&#x105;" horiz-adv-x="1156" 
d="M1098 874c0 -3.33301 -2.33203 -13.333 -6.99902 -30l-210 -784c-10.667 -40 -36.667 -60 -78 -60c-50.667 0 -99 -22 -145 -66s-69 -91.333 -69 -142c0 -61.333 32.667 -92 98 -92c46 0 91.333 19 136 57s74 57 88 57c20 0 37.833 -7.66699 53.5 -23s23.5 -33 23.5 -53
c0 -14.667 -6.33301 -30.667 -19 -48c-28 -40 -69.5 -73.333 -124.5 -100s-107.5 -40 -157.5 -40c-70.667 0 -129.667 22.667 -177 68s-71 103.333 -71 174c0 80.667 29.667 154.667 89 222c-40.667 -9.33301 -81 -14 -121 -14c-109.333 0 -200.333 34.667 -273 104
s-109 158.333 -109 267c0 45.333 5.66699 86.333 17 123c47.333 156.667 135.666 287.667 264.999 393c134.667 108.667 281.667 163 441 163c151.333 0 260 -40 326 -120c16 -19.333 24 -38 24 -56zM938.001 852c-50 32 -113.333 48 -190 48
c-133.333 0 -261.333 -54.333 -384 -163c-126 -112 -189 -234 -189 -366c0 -67.333 21.667 -121 65 -161s99 -60 167 -60c97.333 0 187.666 34.333 270.999 103c80.667 66 135.334 146.333 164.001 241c0.666992 2 32.667 121.333 96 358z" />
    <glyph glyph-name="Cacute" unicode="&#x106;" horiz-adv-x="1409" 
d="M1391 1872c0 -30.667 -15.333 -52.667 -46 -66l-340 -150c-10.667 -4.66699 -21.667 -7 -33 -7c-20 0 -37.167 8 -51.5 24s-21.5 34.333 -21.5 55c0 30.667 15.333 52.667 46 66l340 150c11.333 4.66699 22.333 7 33 7c20 0 37.167 -8 51.5 -24s21.5 -34.333 21.5 -55z
M1545 1227c0 -20.667 -7.99805 -38.5 -23.998 -53.5s-34 -22.5 -54 -22.5c-19.333 0 -39 10.667 -59 32c-8.66699 11.333 -22.334 27.333 -41.001 48c-83.333 79.333 -190.666 119 -321.999 119c-198.667 0 -382 -79.333 -550 -238c-170 -161.333 -255 -340.333 -255 -537
c0 -128.667 42 -232 126 -310c82 -76.667 187.667 -115 317 -115c89.333 0 174.666 17.333 255.999 52c54 22.667 129.667 65.667 227 129c18 12 33.667 18 47 18c20.667 0 38.5 -8 53.5 -24s22.5 -34 22.5 -54c0 -19.333 -10 -38.333 -30 -57
c-64 -62 -154 -113.667 -270 -155c-110 -39.333 -212 -59 -306 -59c-171.333 0 -312.333 53 -423 159c-113.333 107.333 -170 246 -170 416c0 238 99.667 452.333 299 643c197.333 188 416 282 656 282c96 0 186 -18.667 270 -56c91.333 -40.667 162.666 -98 213.999 -172
c10.667 -15.333 16 -30.333 16 -45z" />
    <glyph glyph-name="cacute" unicode="&#x107;" horiz-adv-x="1025" 
d="M1045 1422c0 -30.667 -14.999 -52.667 -44.999 -66l-341 -150c-10.667 -4.66699 -21.334 -7 -32.001 -7c-20.667 0 -38.167 8 -52.5 24s-21.5 34.333 -21.5 55c0 30.667 15.333 52.667 46 66l340 150c11.333 4.66699 22.333 7 33 7c20 0 37.167 -8 51.5 -24
s21.5 -34.333 21.5 -55zM1058 843c0 -20.667 -8.00195 -38.4961 -24.002 -53.4961s-34 -22.5 -54 -22.5c-11.333 0 -43.5 22.167 -96.5 66.5s-114.5 66.5 -184.5 66.5c-125.333 0 -241.666 -50.333 -348.999 -151c-108.667 -102.667 -163 -216.334 -163 -341.001
c0 -78.667 25.333 -141.334 76 -188.001s115.667 -70 195 -70c67.333 0 141.833 22 223.5 66s124.834 66 129.501 66c20 0 37.5 -7.83301 52.5 -23.5s22.5 -33.834 22.5 -54.501c0 -18.667 -10 -37.667 -30 -57c-44 -42.667 -106 -78.334 -186 -107.001
c-76 -26.667 -146.667 -40 -212 -40c-120.667 0 -221 38 -301 114s-120 174 -120 294c0 166 69 315 207 447c136 130 287.667 195 455 195c156 0 270.333 -54 343 -162c10.667 -16 16 -31 16 -45z" />
    <glyph glyph-name="Ccircumflex" unicode="&#x108;" horiz-adv-x="1409" 
d="M1426 1727c0 -20.667 -7.49902 -38.833 -22.499 -54.5s-32.833 -23.5 -53.5 -23.5c-16.667 0 -32.334 6 -47.001 18l-145 118l-221 -125c-12.667 -7.33301 -25.667 -11 -39 -11c-20 0 -37.333 8 -52 24s-22 34 -22 54c0 27.333 13 48.333 39 63l259 147
c17.333 9.33301 31.666 14 42.999 14c16.667 0 34.334 -7.33301 53.001 -22l179 -146c19.333 -15.333 29 -34 29 -56zM1545 1227c0 -20.667 -7.99805 -38.5 -23.998 -53.5s-34 -22.5 -54 -22.5c-19.333 0 -39 10.667 -59 32c-8.66699 11.333 -22.334 27.333 -41.001 48
c-83.333 79.333 -190.666 119 -321.999 119c-198.667 0 -382 -79.333 -550 -238c-170 -161.333 -255 -340.333 -255 -537c0 -128.667 42 -232 126 -310c82 -76.667 187.667 -115 317 -115c89.333 0 174.666 17.333 255.999 52c54 22.667 129.667 65.667 227 129
c18 12 33.667 18 47 18c20.667 0 38.5 -8 53.5 -24s22.5 -34 22.5 -54c0 -19.333 -10 -38.333 -30 -57c-64 -62 -154 -113.667 -270 -155c-110 -39.333 -212 -59 -306 -59c-171.333 0 -312.333 53 -423 159c-113.333 107.333 -170 246 -170 416
c0 238 99.667 452.333 299 643c197.333 188 416 282 656 282c96 0 186 -18.667 270 -56c91.333 -40.667 162.666 -98 213.999 -172c10.667 -15.333 16 -30.333 16 -45z" />
    <glyph glyph-name="ccircumflex" unicode="&#x109;" horiz-adv-x="1025" 
d="M1080 1277c0 -20.667 -7.49902 -38.833 -22.499 -54.5s-32.833 -23.5 -53.5 -23.5c-16.667 0 -32.334 6 -47.001 18l-145 118l-221 -125c-12.667 -7.33301 -25.667 -11 -39 -11c-20 0 -37.333 8 -52 24s-22 34 -22 54c0 27.333 13 48.333 39 63l259 147
c17.333 9.33301 32 14 44 14c16 0 33.333 -7.33301 52 -22l179 -146c19.333 -15.333 29 -34 29 -56zM1058 843.001c0 -20.667 -8.00195 -38.4961 -24.002 -53.4961s-34 -22.5 -54 -22.5c-11.333 0 -43.5 22.167 -96.5 66.5s-114.5 66.5 -184.5 66.5
c-125.333 0 -241.666 -50.333 -348.999 -151c-108.667 -102.667 -163 -216.334 -163 -341.001c0 -78.667 25.333 -141.334 76 -188.001s115.667 -70 195 -70c67.333 0 141.833 22 223.5 66s124.834 66 129.501 66c20 0 37.5 -7.83301 52.5 -23.5s22.5 -33.834 22.5 -54.501
c0 -18.667 -10 -37.667 -30 -57c-44 -42.667 -106 -78.334 -186 -107.001c-76 -26.667 -146.667 -40 -212 -40c-120.667 0 -221 38 -301 114s-120 174 -120 294c0 166 69 315 207 447c136 130 287.667 195 455 195c156 0 270.333 -54 343 -162c10.667 -16 16 -31 16 -45z
" />
    <glyph glyph-name="Cdot" unicode="&#x10a;" horiz-adv-x="1409" 
d="M1249 1773c0 -33.333 -12.332 -62.168 -36.999 -86.501s-53.667 -36.5 -87 -36.5c-28.667 0 -53 9.83301 -73 29.5s-30 43.834 -30 72.501c0 33.333 12.167 62.166 36.5 86.499s53.166 36.5 86.499 36.5c29.333 0 54 -9.66699 74 -29s30 -43.666 30 -72.999zM1545 1227
c0 -20.667 -7.99902 -38.5 -23.999 -53.5s-34 -22.5 -54 -22.5c-19.333 0 -39 10.667 -59 32c-8.66699 11.333 -22.334 27.333 -41.001 48c-83.333 79.333 -190.666 119 -321.999 119c-198.667 0 -382 -79.333 -550 -238c-170 -161.333 -255 -340.333 -255 -537
c0 -128.667 42 -232 126 -310c82 -76.667 187.667 -115 317 -115c90 0 175.333 17.333 256 52c53.333 22.667 129 65.667 227 129c18 12 33.667 18 47 18c20.667 0 38.5 -8 53.5 -24s22.5 -34 22.5 -54c0 -19.333 -10 -38.333 -30 -57c-64 -62 -154 -113.667 -270 -155
c-110 -39.333 -212 -59 -306 -59c-171.333 0 -312.333 53 -423 159c-113.333 107.333 -170 246 -170 416c0 238 99.667 452.333 299 643c197.333 188 416 282 656 282c96 0 186 -18.667 270 -56c91.333 -40.667 162.666 -98 213.999 -172c10.667 -15.333 16 -30.333 16 -45z
" />
    <glyph glyph-name="cdot" unicode="&#x10b;" horiz-adv-x="1025" 
d="M924 1396c0 -33.333 -12.5 -61.833 -37.5 -85.5s-54.167 -35.5 -87.5 -35.5c-29.333 0 -54.166 9.66699 -74.499 29s-30.5 43.666 -30.5 72.999c0 32.667 12.667 61.334 38 86.001s54.333 37 87 37c29.333 0 54.166 -10.167 74.499 -30.5s30.5 -44.833 30.5 -73.5z
M1058 843c0 -20.667 -8.00195 -38.4971 -24.002 -53.4971s-34 -22.5 -54 -22.5c-11.333 0 -43.5 22.167 -96.5 66.5s-114.5 66.5 -184.5 66.5c-125.333 0 -241.666 -50.333 -348.999 -151c-108.667 -102.667 -163 -216.334 -163 -341.001
c0 -78.667 25.333 -141.334 76 -188.001s115.667 -70 195 -70c67.333 0 141.833 22 223.5 66s124.834 66 129.501 66c20 0 37.5 -7.83301 52.5 -23.5s22.5 -33.834 22.5 -54.501c0 -18.667 -10 -37.667 -30 -57c-44 -42.667 -106 -78 -186 -106
c-76 -27.333 -146.667 -41 -212 -41c-120.667 0 -221 38 -301 114s-120 174 -120 294c0 166 69 315 207 447c136 130 287.667 195 455 195c156 0 270.333 -54 343 -162c10.667 -16 16 -31 16 -45z" />
    <glyph glyph-name="Ccaron" unicode="&#x10c;" horiz-adv-x="1409" 
d="M1466 1873c0 -27.333 -13.001 -48.334 -39.001 -63.001l-259 -147c-17.333 -9.33301 -31.666 -14 -42.999 -14c-16.667 0 -34.334 7.33301 -53.001 22l-179 146c-19.333 15.333 -29 34 -29 56c0 20.667 7.66699 38.834 23 54.501s33 23.5 53 23.5
c16.667 0 32.334 -6 47.001 -18l145 -118l221 125c12.667 7.33301 25.667 11 39 11c20 0 37.333 -8 52 -24s22 -34 22 -54zM1545 1227c0 -20.667 -7.99805 -38.5 -23.998 -53.5s-34 -22.5 -54 -22.5c-19.333 0 -39 10.667 -59 32c-8.66699 11.333 -22.334 27.333 -41.001 48
c-83.333 79.333 -190.666 119 -321.999 119c-198.667 0 -382 -79.333 -550 -238c-170 -161.333 -255 -340.333 -255 -537c0 -128.667 42 -232 126 -310c82 -76.667 187.667 -115 317 -115c89.333 0 174.666 17.333 255.999 52c54 22.667 129.667 65.667 227 129
c18 12 33.667 18 47 18c20.667 0 38.5 -8 53.5 -24s22.5 -34 22.5 -54c0 -19.333 -10 -38.333 -30 -57c-64 -62 -154 -113.667 -270 -155c-110 -39.333 -212 -59 -306 -59c-171.333 0 -312.333 53 -423 159c-113.333 107.333 -170 246 -170 416
c0 238 99.667 452.333 299 643c197.333 188 416 282 656 282c96 0 186 -18.667 270 -56c91.333 -40.667 162.666 -98 213.999 -172c10.667 -15.333 16 -30.333 16 -45z" />
    <glyph glyph-name="ccaron" unicode="&#x10d;" horiz-adv-x="1025" 
d="M1120 1423c0 -25.333 -13 -46.334 -39 -63.001l-104 -62c-104 -63.333 -167.333 -95 -190 -95c-46 0 -126 54.667 -240 164c-19.333 18 -29 36.667 -29 56c0 20.667 7.66699 38.834 23 54.501s33 23.5 53 23.5c16.667 0 32.667 -6 48 -18l145 -118
c158.667 90.667 245 136 259 136c20 0 37.333 -8 52 -24s22 -34 22 -54zM1058 842.999c0 -20.667 -8.00195 -38.4971 -24.002 -53.4971s-34 -22.5 -54 -22.5c-11.333 0 -43.5 22.167 -96.5 66.5s-114.5 66.5 -184.5 66.5c-125.333 0 -241.666 -50.333 -348.999 -151
c-108.667 -102.667 -163 -216.334 -163 -341.001c0 -78.667 25.333 -141.334 76 -188.001s115.667 -70 195 -70c67.333 0 141.833 22 223.5 66s124.834 66 129.501 66c20 0 37.5 -7.83301 52.5 -23.5s22.5 -33.834 22.5 -54.501c0 -18.667 -10 -37.667 -30 -57
c-44 -42.667 -106 -78 -186 -106c-76 -27.333 -146.667 -41 -212 -41c-120.667 0 -221 38 -301 114s-120 174 -120 294c0 166 69 315 207 447c136 130 287.667 195 455 195c156 0 270.333 -54 343 -162c10.667 -16 16 -31 16 -45z" />
    <glyph glyph-name="Dcaron" unicode="&#x10e;" horiz-adv-x="1481" 
d="M1340 1873c0 -27.333 -13 -48.334 -39 -63.001l-259 -147c-16.667 -9.33301 -31 -14 -43 -14c-16.667 0 -34 7.33301 -52 22l-180 146c-19.333 15.333 -29 34 -29 56c0 20.667 7.66699 38.834 23 54.501s33 23.5 53 23.5c16.667 0 32.667 -6 48 -18l145 -118l220 125
c13.333 7.33301 26.333 11 39 11c20 0 37.333 -8 52 -24s22 -34 22 -54zM1512 924.999c0 -238 -100.001 -452.333 -300.001 -643c-197.333 -188 -415.666 -282 -654.999 -282h-450c-50.667 0 -76 23.333 -76 70c0 8 1.33301 16 4 24l361 1350c4 13.333 13.667 26 29 38
s30 18 44 18h450c170.667 0 312.167 -53.333 424.5 -160s168.5 -245 168.5 -415zM1362 924.999c0 128.667 -41.5 231.667 -124.5 309s-189.167 116 -318.5 116h-393l-321 -1200h352c198 0 381 79.333 549 238c170.667 161.333 256 340.333 256 537z" />
    <glyph glyph-name="dcaron" unicode="&#x10f;" horiz-adv-x="1155" 
d="M1215 1873c0 -27.333 -13 -48.334 -39 -63.001l-259 -147c-16.667 -9.33301 -31 -14 -43 -14c-16.667 0 -34 7.33301 -52 22l-180 146c-19.333 15.333 -29 34 -29 56c0 20.667 7.66699 38.834 23 54.501s33 23.5 53 23.5c16.667 0 32.667 -6 48 -18l145 -118l220 125
c13.333 7.33301 26.333 11 39 11c20 0 37.333 -8 52 -24s22 -34 22 -54zM1244 1428c0 -7.33301 -0.998047 -14.667 -2.99805 -22l-361 -1350c-10 -37.333 -33.667 -56 -71 -56c-51.333 0 -77 24 -77 72c0 10.667 2.33301 24 7 40c-105.333 -74.667 -216 -112 -332 -112
c-110 0 -200.667 34.333 -272 103c-73.333 70 -110 159.667 -110 269c0 44 5.66699 84.667 17 122c45.333 156 133.666 286.667 264.999 392c135.333 109.333 282.333 164 441 164c81.333 0 157.666 -16.667 228.999 -50l119 444c10 37.333 33.667 56 71 56
c51.333 0 77 -24 77 -72zM937.002 850.998c-46.667 32.667 -109.669 49 -189.002 49c-133.333 0 -261.333 -54.333 -384 -163c-126 -112 -189 -234 -189 -366c0 -67.333 21.667 -121 65 -161s99 -60 167 -60c96.667 0 187 34.333 271 103
c80.667 66 135.334 146.333 164.001 241c0.666992 2 32.334 121 95.001 357z" />
    <glyph glyph-name="Dslash" unicode="&#x110;" horiz-adv-x="1554" 
d="M1585 925c0 -238 -100 -452.332 -300 -642.999c-196.667 -188 -415 -282 -655 -282h-450c-50 0 -75 23.333 -75 70c0 8 1 16 3 24l146 545c-78.667 -26.667 -125.667 -40 -141 -40c-48 0 -72 26 -72 78c0 35.333 17.667 58.666 53 69.999l206 63l170 634
c3.33301 13.333 12.833 26 28.5 38s30.167 18 43.5 18h450c170.667 0 312.167 -53.333 424.5 -160s168.5 -245 168.5 -415zM1435 925.001c0 128.667 -41.501 231.666 -124.501 308.999s-189.167 116 -318.5 116h-392l-131 -489c76.667 26.667 123.334 40 140.001 40
c48.667 0 73 -26 73 -78c0 -35.333 -18 -58.666 -54 -69.999l-205 -63l-145 -540h352c198.667 0 381.667 79.333 549 238c170.667 161.333 256 340.333 256 537z" />
    <glyph glyph-name="dcroat" unicode="&#x111;" horiz-adv-x="1231" 
d="M1409 1200c0 -50 -24.998 -74.999 -74.998 -74.999h-168l-286 -1069c-10 -37.333 -33.667 -56 -71 -56c-51.333 0 -77 24 -77 72c0 11.333 2.33301 24.666 7 39.999c-105.333 -74.667 -216 -112 -332 -112c-110 -0 -200.667 34.333 -272 103
c-73.333 70 -110 159.667 -110 269c0 45.333 5.66699 86 17 122c47.333 156.667 135.666 287.667 264.999 393c134 108.667 281 163 441 163c81.333 0 157.666 -16.667 228.999 -50l34 125h-352c-50 0 -75 25 -75 75s25 75 75 75h392l45 169c10 37.333 33.667 56 71 56
c51.333 0 77 -24 77 -72c0 -8.66699 -12.667 -59.667 -38 -153h128c50 0 75 -25 75 -75zM937.002 851.001c-46.667 32.667 -109.668 49 -189.001 49c-134 0 -262 -54.333 -384 -163c-126 -112 -189 -234 -189 -366c0 -67.333 21.833 -121 65.5 -161s99.167 -60 166.5 -60
c98 0 188.333 34.333 271 103c78.667 64.667 133.334 145 164.001 241c1.33301 4 33 123 95 357z" />
    <glyph glyph-name="Emacron" unicode="&#x112;" horiz-adv-x="1107" 
d="M1395 1800c0 -50 -25 -75 -75 -75h-750c-50 0 -75 25 -75 75s25 75 75 75h750c50 0 75 -25 75 -75zM1295 1425c0 -50 -24.999 -75 -74.999 -75h-693l-140 -525h502c50 0 75 -25 75 -75s-25 -75 -75 -75h-543l-140 -525h652c50 0 75 -25 75 -75s-25 -75 -75 -75h-750
c-50.667 -0 -76 23.333 -76 70c0 16 60.333 248.333 181 697c118.667 441.333 180 667 184 677c15.333 37.333 39.666 56 72.999 56h750c50 0 75 -25 75 -75z" />
    <glyph glyph-name="emacron" unicode="&#x113;" horiz-adv-x="916" 
d="M1083 1350c0 -50 -25 -75 -75 -75h-659c-50 0 -75 25 -75 75s25 75 75 75h659c50 0 75 -25 75 -75zM934 820c0 -62.667 -19.168 -121.499 -57.501 -176.499s-86.5 -96.833 -144.5 -125.5l-506 -253c48 -76.667 125.333 -115 232 -115c48.667 0 112.334 14.667 191.001 44
c14 5.33301 25.333 8 34 8c20 0 37.167 -7.83301 51.5 -23.5s21.5 -33.834 21.5 -54.501c0 -42 -41 -74.667 -123 -98c-60 -17.333 -118.333 -26 -175 -26c-120.667 0 -221 38 -301 114s-120 174 -120 294c0 166 69 315 207 447c136 130 287.667 195 455 195
c66.667 0 122.5 -21.667 167.5 -65s67.5 -98.333 67.5 -165zM783.999 820.001c0 53.333 -28.333 80 -85 80c-126 0 -242.333 -50.333 -349 -151c-108.667 -102.667 -163 -216.334 -163 -341.001c162 66.667 279.333 120.334 352 161.001c163.333 91.333 245 175 245 251z
" />
    <glyph glyph-name="Ebreve" unicode="&#x114;" horiz-adv-x="1107" 
d="M1267 1875c0 -15.333 -6.66797 -31.667 -20.001 -49c-32.667 -43.333 -78 -83 -136 -119c-63.333 -38.667 -119 -58 -167 -58c-46.667 0 -97.334 20.333 -152.001 61c-50 36.667 -88 77.667 -114 123c-9.33301 16.667 -14 31 -14 43c0 20 8 37.5 24 52.5s34 22.5 54 22.5
c22.667 0 54.834 -25.333 96.501 -76s76.834 -76 105.501 -76c36 0 81.333 25.333 136 76s91 76 109 76c20 0 38 -7.66699 54 -23s24 -33 24 -53zM1295 1425c0 -50 -24.999 -75 -74.999 -75h-693l-140 -525h502c50 0 75 -25 75 -75s-25 -75 -75 -75h-543l-140 -525h652
c50 0 75 -25 75 -75s-25 -75 -75 -75h-750c-50.667 0 -76 23.333 -76 70c0 16 60.333 248.333 181 697c118.667 441.333 180 667 184 677c15.333 37.333 39.666 56 72.999 56h750c50 0 75 -25 75 -75z" />
    <glyph glyph-name="ebreve" unicode="&#x115;" horiz-adv-x="916" 
d="M1106 1425c0 -15.333 -6.66797 -31.667 -20.001 -49c-32.667 -43.333 -78 -83 -136 -119c-63.333 -38.667 -119 -58 -167 -58c-46.667 0 -97.334 20.333 -152.001 61c-49.333 36.667 -87 77.667 -113 123c-10 16.667 -15 31 -15 43c0 20 8 37.5 24 52.5
s34.333 22.5 55 22.5c22.667 0 54.834 -25.333 96.501 -76s76.5 -76 104.5 -76c36.667 0 82.167 25.333 136.5 76s90.5 76 108.5 76c20.667 0 38.834 -7.66699 54.501 -23s23.5 -33 23.5 -53zM933.999 819.999c0 -62.667 -19.168 -121.499 -57.501 -176.499
s-86.5 -96.833 -144.5 -125.5l-506 -253c48 -76.667 125.333 -115 232 -115c48.667 0 112.334 14.667 191.001 44c14 5.33301 25.333 8 34 8c20 0 37.167 -7.83301 51.5 -23.5s21.5 -33.834 21.5 -54.501c0 -42 -41 -74.667 -123 -98c-60 -17.333 -118.333 -26 -175 -26
c-120.667 0 -221 38 -301 114s-120 174 -120 294c0 166 69 315 207 447c136 130 287.667 195 455 195c66.667 0 122.5 -21.667 167.5 -65s67.5 -98.333 67.5 -165zM783.998 820c0 53.333 -28.333 80 -85 80c-126 0 -242.333 -50.333 -349 -151
c-108.667 -102.667 -163 -216.334 -163 -341.001c162 66.667 279.333 120.334 352 161.001c163.333 91.333 245 175 245 251z" />
    <glyph glyph-name="Edot" unicode="&#x116;" horiz-adv-x="1107" 
d="M1050 1773c0 -33.333 -12.498 -62.168 -37.498 -86.501s-54.167 -36.5 -87.5 -36.5c-28.667 0 -53 9.83301 -73 29.5s-30 43.834 -30 72.501c0 33.333 12.167 62.166 36.5 86.499s53.166 36.5 86.499 36.5c29.333 0 54.166 -9.66699 74.499 -29
s30.5 -43.666 30.5 -72.999zM1295 1425c0 -50 -24.999 -75 -74.999 -75h-693l-140 -525h502c50 0 75 -25 75 -75s-25 -75 -75 -75h-543l-140 -525h652c50 0 75 -25 75 -75s-25 -75 -75 -75h-750c-50.667 0 -76 23.333 -76 70c0 16 60.333 248.333 181 697
c118.667 441.333 180 667 184 677c15.333 37.333 39.666 56 72.999 56h750c50 0 75 -25 75 -75z" />
    <glyph glyph-name="edot" unicode="&#x117;" horiz-adv-x="916" 
d="M924 1396c0 -33.333 -12.5 -61.833 -37.5 -85.5s-54.167 -35.5 -87.5 -35.5c-29.333 0 -54.166 9.66699 -74.499 29s-30.5 43.666 -30.5 72.999c0 32.667 12.667 61.334 38 86.001s54.333 37 87 37c29.333 0 54.166 -10.167 74.499 -30.5s30.5 -44.833 30.5 -73.5z
M934 820c0 -62.667 -19.1689 -121.499 -57.502 -176.499s-86.5 -96.833 -144.5 -125.5l-506 -253c48 -76.667 125.333 -115 232 -115c48.667 0 112.334 14.667 191.001 44c14 5.33301 25.333 8 34 8c20 0 37.167 -7.83301 51.5 -23.5s21.5 -33.834 21.5 -54.501
c0 -42 -41 -74.667 -123 -98c-60 -17.333 -118.333 -26 -175 -26c-120.667 0 -221 38 -301 114s-120 174 -120 294c0 166 69 315 207 447c136.667 130 288.334 195 455.001 195c66.667 0 122.5 -21.667 167.5 -65s67.5 -98.333 67.5 -165zM783.998 820.001
c0 53.333 -28.333 80 -85 80c-126 0 -242.333 -50.333 -349 -151c-108.667 -102.667 -163 -216.334 -163 -341.001c162 66.667 279.333 120.334 352 161.001c163.333 91.333 245 175 245 251z" />
    <glyph glyph-name="Eogonek" unicode="&#x118;" horiz-adv-x="1107" 
d="M1295 1425c0 -50 -25.002 -75 -75.002 -75h-693l-140 -525h502c50 0 75 -25 75 -75s-25 -75 -75 -75h-543l-140 -525h652c52 0 78 -25 78 -75s-26.167 -75 -78.5 -75s-101.666 -21.667 -147.999 -65s-69.5 -91 -69.5 -143c0 -61.333 32.333 -92 97 -92
c46 0 91.5 19 136.5 57s74.167 57 87.5 57c20.667 0 38.834 -7.66699 54.501 -23s23.5 -33 23.5 -53c0 -14.667 -6.33301 -30.667 -19 -48c-29.333 -40.667 -71.166 -74.167 -125.499 -100.5s-106.833 -39.5 -157.5 -39.5c-70.667 0 -129.5 22.667 -176.5 68
s-70.5 103.333 -70.5 174c0 74 25.333 143.333 76 208h-458c-50.667 -0 -76 23.333 -76 70c0 15.333 60 246.333 180 693c118 440.667 179.667 667.667 185 681c15.333 37.333 39.666 56 72.999 56h750c50 0 75 -25 75 -75z" />
    <glyph glyph-name="eogonek" unicode="&#x119;" horiz-adv-x="916" 
d="M934 820c0 -62.667 -19.1689 -121.499 -57.502 -176.499s-86.5 -96.833 -144.5 -125.5l-506 -253c48 -76.667 125.333 -115 232 -115c48.667 0 112.334 14.667 191.001 44c14 5.33301 25.333 8 34 8c20 0 37.167 -7.83301 51.5 -23.5s21.5 -33.834 21.5 -54.501
c0 -42 -41 -74.667 -123 -98c-60 -17.333 -118.333 -26 -175 -26c-52.667 -0 -102.334 -21.667 -149.001 -65s-70 -91 -70 -143c0 -61.333 32.667 -92 98 -92c46.667 0 92.167 19 136.5 57s73.5 57 87.5 57c20.667 0 38.834 -7.66699 54.501 -23s23.5 -33 23.5 -53
c0 -14.667 -6.33301 -30.667 -19 -48c-29.333 -40.667 -71.166 -74.167 -125.499 -100.5s-106.833 -39.5 -157.5 -39.5c-70.667 0 -129.667 22.667 -177 68s-71 103.333 -71 174c0 104 45.667 193.667 137 269c-126 75.333 -189 191 -189 347c0 166 69 315 207 447
c136 130 287.667 195 455 195c66.667 0 122.5 -21.667 167.5 -65s67.5 -98.333 67.5 -165zM783.998 820.001c0 53.333 -28.333 80 -85 80c-126 0 -242.333 -50.333 -349 -151c-108 -102.667 -162.333 -216.334 -163 -341.001c162 66.667 279.333 120.334 352 161.001
c163.333 91.333 245 175 245 251z" />
    <glyph glyph-name="Ecaron" unicode="&#x11a;" horiz-adv-x="1107" 
d="M1266 1873c0 -27.333 -12.999 -48.334 -38.999 -63.001l-259 -147c-16.667 -9.33301 -31 -14 -43 -14c-16.667 0 -34.334 7.33301 -53.001 22l-179 146c-19.333 15.333 -29 34 -29 56c0 20.667 7.66699 38.834 23 54.501s33 23.5 53 23.5c16.667 0 32.667 -6 48 -18
l145 -118l220 125c13.333 7.33301 26.333 11 39 11c20 0 37.333 -8 52 -24s22 -34 22 -54zM1295 1425c0 -50 -24.999 -75 -74.999 -75h-693l-140 -525h502c50 0 75 -25 75 -75s-25 -75 -75 -75h-543l-140 -525h652c50 0 75 -25 75 -75s-25 -75 -75 -75h-750
c-50.667 0 -76 23.333 -76 70c0 16 60.333 248.333 181 697c118.667 441.333 180 667 184 677c15.333 37.333 39.666 56 72.999 56h750c50 0 75 -25 75 -75z" />
    <glyph glyph-name="ecaron" unicode="&#x11b;" horiz-adv-x="930" 
d="M1120 1423c0 -25.333 -13 -46.334 -39 -63.001l-104 -62c-104 -63.333 -167.333 -95 -190 -95c-46 0 -126 54.667 -240 164c-19.333 18 -29 36.667 -29 56c0 20.667 7.66699 38.834 23 54.501s33 23.5 53 23.5c16.667 0 32.667 -6 48 -18l145 -118
c158.667 90.667 245 136 259 136c20 0 37.333 -8 52 -24s22 -34 22 -54zM934 819.999c0 -62.667 -19.168 -121.499 -57.501 -176.499s-86.5 -96.833 -144.5 -125.5l-506 -253c48 -76.667 125.333 -115 232 -115c48.667 0 112.334 14.667 191.001 44
c14 5.33301 25.333 8 34 8c20 0 37.167 -7.83301 51.5 -23.5s21.5 -33.834 21.5 -54.501c0 -42 -41 -74.667 -123 -98c-60 -17.333 -118.333 -26 -175 -26c-120.667 0 -221 38 -301 114s-120 174 -120 294c0 166 69 315 207 447c136 130 287.667 195 455 195
c66.667 0 122.5 -21.667 167.5 -65s67.5 -98.333 67.5 -165zM783.999 820c0 53.333 -28.333 80 -85 80c-126 0 -242.333 -50.333 -349 -151c-108.667 -102.667 -163 -216.334 -163 -341.001c162 66.667 279.333 120.334 352 161.001c163.333 91.333 245 175 245 251z" />
    <glyph glyph-name="Gcircumflex" unicode="&#x11c;" horiz-adv-x="1459" 
d="M1426 1727c0 -20.667 -7.49902 -38.833 -22.499 -54.5s-32.833 -23.5 -53.5 -23.5c-16.667 0 -32.334 6 -47.001 18l-145 118l-221 -125c-12.667 -7.33301 -25.667 -11 -39 -11c-20 0 -37.333 8 -52 24s-22 34 -22 54c0 27.333 13 48.333 39 63l259 147
c17.333 9.33301 31.666 14 42.999 14c16.667 0 34.334 -7.33301 53.001 -22l179 -146c19.333 -15.333 29 -34 29 -56zM1545 1227c0 -20.667 -7.99902 -38.501 -23.999 -53.501s-34 -22.5 -54 -22.5s-39.667 10.667 -59 32c-8.66699 11.333 -22.334 27.333 -41.001 48
c-84.667 79.333 -192 119 -322 119c-198.667 0 -382 -79.333 -550 -238c-170 -161.333 -255 -340.333 -255 -537c0 -128.667 42 -232 126 -310c82 -76.667 187.667 -115 317 -115c160.667 0 315.334 55.333 464.001 166l121 453c10 37.333 33.667 56 71 56
c51.333 0 77 -24 77 -72c0 -17.333 -19.167 -98.5 -57.5 -243.5s-62.833 -230.5 -73.5 -256.5c-28 -69.333 -117 -130.666 -267 -183.999c-128.667 -46 -240.334 -69 -335.001 -69c-171.333 0 -312.333 53 -423 159c-113.333 107.333 -170 246 -170 416
c0 238 99.667 452.333 299 643c197.333 188 416 282 656 282c216.667 0 378 -76 484 -228c10.667 -15.333 16 -30.333 16 -45z" />
    <glyph glyph-name="gcircumflex" unicode="&#x11d;" horiz-adv-x="1005" 
d="M1004 1277c0 -20.667 -7.66699 -38.833 -23 -54.5s-33 -23.5 -53 -23.5c-16.667 0 -32.667 6 -48 18l-145 118l-220 -125c-13.333 -7.33301 -26.333 -11 -39 -11c-20 0 -37.333 8 -52 24s-22 34 -22 54c0 27.333 13 48.333 39 63l259 147c16.667 9.33301 31 14 43 14
c16.667 0 34 -7.33301 52 -22l180 -146c19.333 -15.333 29 -34 29 -56zM1072 975.001c0 -51.333 -37.334 -76.998 -112.001 -76.998c5.33301 0 -17.334 0.666992 -68.001 2c24 -44 36 -93 36 -147c0 -158 -76.667 -285 -230 -381c84 -67.333 126 -159 126 -275
c0 -141.333 -58.333 -267.833 -175 -379.5s-246 -167.5 -388 -167.5c-104 0 -190.5 33 -259.5 99s-103.5 150.667 -103.5 254c0 115.333 28.667 173 86 173c20 0 37.833 -8 53.5 -24s23.5 -34.333 23.5 -55c0 -10.667 -2.16699 -26.334 -6.5 -47.001
s-6.5 -36.334 -6.5 -47.001c0 -62 19.833 -111.333 59.5 -148s90.834 -55 153.501 -55c100.667 0 194.667 41.167 282 123.5s131 173.5 131 273.5c0 62 -19.833 111.333 -59.5 148s-90.5 55 -152.5 55c-87.333 0 -160.166 27.833 -218.499 83.5s-87.5 126.834 -87.5 213.501
c0 117.333 48.667 222.666 146 315.999c95.333 91.333 202 137 320 137h375c50 0 75 -25 75 -75zM777.999 753.003c0 45.333 -14.5 81.165 -43.5 107.498s-66.5 39.5 -112.5 39.5c-76.667 0 -148 -31 -214 -93c-68 -63.333 -102 -133.333 -102 -210
c0 -45.333 14.5 -81.166 43.5 -107.499s66.167 -39.5 111.5 -39.5c77.333 0 149.5 31.333 216.5 94s100.5 132.334 100.5 209.001z" />
    <glyph glyph-name="Gbreve" unicode="&#x11e;" horiz-adv-x="1459" 
d="M1466 1875c0 -15.333 -6.66895 -31.667 -20.002 -49c-32 -43.333 -77 -83 -135 -119c-63.333 -38.667 -119.333 -58 -168 -58c-46 0 -96.333 20.333 -151 61c-50 36.667 -88 77.667 -114 123c-9.33301 16.667 -14 31 -14 43c0 20 8 37.5 24 52.5s34 22.5 54 22.5
c22.667 0 54.834 -25.333 96.501 -76s76.5 -76 104.5 -76c36.667 0 82.334 25.333 137.001 76s91 76 109 76c20 0 37.833 -7.66699 53.5 -23s23.5 -33 23.5 -53zM1545 1227c0 -20.667 -7.99902 -38.501 -23.999 -53.501s-34 -22.5 -54 -22.5s-39.667 10.667 -59 32
c-8.66699 11.333 -22.334 27.333 -41.001 48c-84.667 79.333 -192 119 -322 119c-198.667 0 -382 -79.333 -550 -238c-170 -161.333 -255 -340.333 -255 -537c0 -128.667 42 -232 126 -310c82 -76.667 187.667 -115 317 -115c160.667 0 315.334 55.333 464.001 166l121 453
c10 37.333 33.667 56 71 56c51.333 0 77 -24 77 -72c0 -17.333 -19.167 -98.5 -57.5 -243.5s-62.833 -230.5 -73.5 -256.5c-28 -69.333 -117 -130.666 -267 -183.999c-128.667 -46 -240.334 -69 -335.001 -69c-171.333 0 -312.333 53 -423 159
c-113.333 107.333 -170 246 -170 416c0 238 99.667 452.333 299 643c197.333 188 416 282 656 282c216.667 0 378 -76 484 -228c10.667 -15.333 16 -30.333 16 -45z" />
    <glyph glyph-name="gbreve" unicode="&#x11f;" horiz-adv-x="1005" 
d="M1044 1425c0 -15.333 -6.66992 -31.667 -20.0029 -49c-32.667 -43.333 -77.667 -83 -135 -119c-63.333 -38.667 -119.333 -58 -168 -58c-46 0 -96.667 20.333 -152 61c-49.333 36.667 -87 77.667 -113 123c-9.33301 16.667 -14 31 -14 43c0 20 7.83301 37.5 23.5 52.5
s33.834 22.5 54.501 22.5c22.667 0 54.834 -25.333 96.501 -76s76.5 -76 104.5 -76c36.667 0 82.334 25.333 137.001 76s91 76 109 76c20 0 37.833 -7.66699 53.5 -23s23.5 -33 23.5 -53zM1072 974.999c0 -51.333 -37.334 -76.998 -112.001 -76.998
c5.33301 0 -17.334 0.666992 -68.001 2c24 -44 36 -93 36 -147c0 -158 -76.667 -285 -230 -381c84 -67.333 126 -159 126 -275c0 -141.333 -58.333 -267.833 -175 -379.5s-246 -167.5 -388 -167.5c-104 0 -190.5 33 -259.5 99s-103.5 150.667 -103.5 254
c0 115.333 28.667 173 86 173c20 0 37.833 -8 53.5 -24s23.5 -34.333 23.5 -55c0 -10.667 -2.16699 -26.334 -6.5 -47.001s-6.5 -36.334 -6.5 -47.001c0 -62 19.833 -111.333 59.5 -148s90.834 -55 153.501 -55c100.667 0 194.667 41.167 282 123.5s131 173.5 131 273.5
c0 62 -19.833 111.333 -59.5 148s-90.5 55 -152.5 55c-87.333 0 -160.166 27.833 -218.499 83.5s-87.5 126.834 -87.5 213.501c0 117.333 48.667 222.666 146 315.999c95.333 91.333 202 137 320 137h375c50 0 75 -25 75 -75zM777.996 753.001
c0 45.333 -14.5 81.165 -43.5 107.498s-66.5 39.5 -112.5 39.5c-76.667 0 -148 -31 -214 -93c-68 -63.333 -102 -133.333 -102 -210c0 -45.333 14.5 -81.166 43.5 -107.499s66.167 -39.5 111.5 -39.5c77.333 0 149.5 31.333 216.5 94s100.5 132.334 100.5 209.001z" />
    <glyph glyph-name="Gdot" unicode="&#x120;" horiz-adv-x="1459" 
d="M1249 1773c0 -33.333 -12.332 -62.168 -36.999 -86.501s-53.667 -36.5 -87 -36.5c-28.667 0 -53 9.83301 -73 29.5s-30 43.834 -30 72.501c0 33.333 12.167 62.166 36.5 86.499s53.166 36.5 86.499 36.5c29.333 0 54 -9.66699 74 -29s30 -43.666 30 -72.999zM1545 1227
c0 -20.667 -7.99902 -38.501 -23.999 -53.501s-34 -22.5 -54 -22.5s-39.667 10.667 -59 32c-8.66699 11.333 -22.334 27.333 -41.001 48c-84.667 79.333 -192 119 -322 119c-198.667 0 -382 -79.333 -550 -238c-170 -161.333 -255 -340.333 -255 -537
c0 -128.667 42 -232 126 -310c82 -76.667 187.667 -115 317 -115c160.667 0 315.334 55.333 464.001 166l121 453c10 37.333 33.667 56 71 56c51.333 0 77 -24 77 -72c0 -17.333 -19.167 -98.5 -57.5 -243.5s-62.833 -230.5 -73.5 -256.5
c-28 -69.333 -117 -130.666 -267 -183.999c-128.667 -46 -240.334 -69 -335.001 -69c-171.333 0 -312.333 53 -423 159c-113.333 107.333 -170 246 -170 416c0 238 99.667 452.333 299 643c197.333 188 416 282 656 282c216.667 0 378 -76 484 -228
c10.667 -15.333 16 -30.333 16 -45z" />
    <glyph glyph-name="gdot" unicode="&#x121;" horiz-adv-x="1005" 
d="M848 1396c0 -33.333 -12.5 -61.833 -37.5 -85.5s-54.167 -35.5 -87.5 -35.5c-29.333 0 -54.333 9.66699 -75 29s-31 43.666 -31 72.999c0 32.667 12.667 61.334 38 86.001s54.666 37 87.999 37c28.667 0 53.334 -10.167 74.001 -30.5s31 -44.833 31 -73.5zM1072 975
c0 -51.333 -37.334 -76.999 -112.001 -76.999c5.33301 0 -17.334 0.666992 -68.001 2c24 -44 36 -93 36 -147c0 -158 -76.667 -285 -230 -381c84 -67.333 126 -159 126 -275c0 -141.333 -58.333 -267.833 -175 -379.5s-246 -167.5 -388 -167.5c-104 0 -190.5 33 -259.5 99
s-103.5 150.667 -103.5 254c0 115.333 28.667 173 86 173c20 0 37.833 -8 53.5 -24s23.5 -34.333 23.5 -55c0 -10.667 -2.16699 -26.334 -6.5 -47.001s-6.5 -36.334 -6.5 -47.001c0 -62 19.833 -111.333 59.5 -148s90.834 -55 153.501 -55
c100.667 0 194.667 41.167 282 123.5s131 173.5 131 273.5c0 62 -19.833 111.333 -59.5 148s-90.5 55 -152.5 55c-87.333 0 -160.166 27.833 -218.499 83.5s-87.5 126.834 -87.5 213.501c0 118 48.667 223.333 146 316c95.333 91.333 202 137 320 137h375
c50 0 75 -25 75 -75zM777.999 753.001c0 45.333 -14.5 81.165 -43.5 107.498s-66.5 39.5 -112.5 39.5c-76.667 0 -148 -31 -214 -93c-68 -63.333 -102 -133.333 -102 -210c0 -45.333 14.5 -81.166 43.5 -107.499s66.167 -39.5 111.5 -39.5c77.333 0 149.5 31.333 216.5 94
s100.5 132.334 100.5 209.001z" />
    <glyph glyph-name="Gcedilla" unicode="&#x122;" horiz-adv-x="1459" 
d="M1545 1227c0 -20.667 -8.00293 -38.5 -24.0029 -53.5s-34 -22.5 -54 -22.5c-19.333 0 -39 10.667 -59 32c-9.33301 12 -24.333 29.333 -45 52c-79.333 76.667 -185.333 115 -318 115c-198.667 0 -382 -79.333 -550 -238c-170 -161.333 -255 -340.333 -255 -537
c0 -128.667 42 -232 126 -310c82 -76.667 187.667 -115 317 -115c160.667 0 315.334 55.333 464.001 166l121 453c10 37.333 33.667 56 71 56c51.333 0 77 -24 77 -72c0 -18.667 -19.333 -100.334 -58 -245.001c-37.333 -140.667 -61.666 -225.667 -72.999 -255
c-34.667 -90 -164 -162.667 -388 -218c22.667 -38 34 -80.333 34 -127c0 -93.333 -38 -176.333 -114 -249s-161 -109 -255 -109c-115.333 0 -194 55.333 -236 166c-2.66699 6.66699 -4 15 -4 25c0 48 26 72 78 72c28 0 51.5 -18.833 70.5 -56.5s49.5 -56.5 91.5 -56.5
c52.667 0 102.334 21.667 149.001 65s70 91 70 143c0 61.333 -32.667 92 -98 92c-170.667 0 -311.667 53 -423 159c-113.333 107.333 -170 246 -170 416c0 238 99.667 452.333 299 643c197.333 188 416 282 656 282c94.667 0 185 -18.667 271 -56
c93.333 -41.333 164.333 -98.666 213 -171.999c10.667 -16 16 -31 16 -45z" />
    <glyph glyph-name="gcedilla" unicode="&#x123;" horiz-adv-x="1005" 
d="M1030 1484c0 -48 -26 -72 -78 -72c-28 0 -51.667 18.833 -71 56.5s-49.666 56.5 -90.999 56.5c-52.667 0 -102.334 -21.667 -149.001 -65s-70 -91 -70 -143c0 -49.333 28.833 -79.5 86.5 -90.5s86.5 -36.5 86.5 -76.5c0 -50 -25 -75 -75 -75
c-70.667 0 -129.667 22.667 -177 68s-71 103.333 -71 174c0 93.333 38 176.333 114 249s161 109 255 109c121.333 0 200 -55.333 236 -166c2.66699 -8 4 -16.333 4 -25zM1072 975c0 -51.333 -37.334 -76.998 -112.001 -76.998c5.33301 0 -17.334 0.666992 -68.001 2
c24 -44 36 -93 36 -147c0 -158 -76.667 -285 -230 -381c84 -67.333 126 -159 126 -275c0 -141.333 -58.333 -267.833 -175 -379.5s-246 -167.5 -388 -167.5c-104 0 -190.5 33 -259.5 99s-103.5 150.667 -103.5 254c0 115.333 28.667 173 86 173c20 0 37.833 -8 53.5 -24
s23.5 -34.333 23.5 -55c0 -10.667 -2.16699 -26.334 -6.5 -47.001s-6.5 -36.334 -6.5 -47.001c0 -62 19.833 -111.333 59.5 -148s90.834 -55 153.501 -55c100.667 0 194.667 41.167 282 123.5s131 173.5 131 273.5c0 62 -19.833 111.333 -59.5 148s-90.5 55 -152.5 55
c-87.333 0 -160.166 27.833 -218.499 83.5s-87.5 126.834 -87.5 213.501c0 117.333 48.667 222.666 146 315.999c95.333 91.333 202 137 320 137h375c50 0 75 -25 75 -75zM777.999 753.002c0 45.333 -14.5 81.165 -43.5 107.498s-66.5 39.5 -112.5 39.5
c-76.667 0 -148 -31 -214 -93c-68 -63.333 -102 -133.333 -102 -210c0 -45.333 14.5 -81.166 43.5 -107.499s66.167 -39.5 111.5 -39.5c77.333 0 149.5 31.333 216.5 94s100.5 132.334 100.5 209.001z" />
    <glyph glyph-name="Hcircumflex" unicode="&#x124;" horiz-adv-x="1357" 
d="M1301 1727c0 -20.667 -7.49902 -38.833 -22.499 -54.5s-32.833 -23.5 -53.5 -23.5c-16.667 0 -32.334 6 -47.001 18l-145 118l-221 -125c-12.667 -7.33301 -25.667 -11 -39 -11c-20 0 -37.333 8 -52 24s-22 34 -22 54c0 27.333 13 48.333 39 63l259 147
c17.333 9.33301 32 14 44 14c16 0 33.333 -7.33301 52 -22l179 -146c19.333 -15.333 29 -34 29 -56zM1445 1428c0 -16 -59.3359 -245.999 -178.003 -689.999c-117.333 -436.667 -179.666 -664 -186.999 -682c-14 -37.333 -37.333 -56 -70 -56c-51.333 0 -77 24 -77 72
c0 7.33301 1 14.666 3 21.999l155 581h-745l-166 -619c-9.33301 -37.333 -32.666 -56 -69.999 -56c-51.333 0 -77 24 -77 72c0 16 59.333 246 178 690c117.333 437.333 179.333 664.666 186 681.999c14.667 37.333 38.334 56 71.001 56c51.333 0 77 -24 77 -72
c0 -7.33301 -1 -14.666 -3 -21.999l-155 -581h744l166 619c10 37.333 33.667 56 71 56c51.333 0 77 -24 77 -72z" />
    <glyph glyph-name="hcircumflex" unicode="&#x125;" horiz-adv-x="1005" 
d="M1150 1727c0 -20.667 -7.49902 -38.833 -22.499 -54.5s-32.833 -23.5 -53.5 -23.5c-16.667 0 -32.334 6 -47.001 18l-145 118l-221 -125c-12.667 -7.33301 -25.667 -11 -39 -11c-20 0 -37.333 8 -52 24s-22 34 -22 54c0 27.333 13 48.333 39 63l259 147
c17.333 9.33301 32 14 44 14c16 0 33.333 -7.33301 52 -22l179 -146c19.333 -15.333 29 -34 29 -56zM953.001 753.001c0 -32 -4.33398 -64.3301 -13.001 -96.9971l-160 -600c-10 -37.333 -33.667 -56 -71 -56c-51.333 0 -77 24 -77 72c0 7.33301 1 14.666 3 21.999l160 600
c5.33301 20.667 8 40.334 8 59.001c0 45.333 -14.333 81.166 -43 107.499s-66 39.5 -112 39.5c-67.333 0 -131 -24.333 -191 -73s-99 -105.667 -117 -171l-160 -600c-10 -37.333 -33.667 -56 -71 -56c-51.333 0 -77 24 -77 72c0 7.33301 1 14.666 3 21.999l361 1350
c10 37.333 33.667 56 71 56c51.333 0 77 -24 77 -72c0 -28 -16 -98.667 -48 -212l-66 -227c70.667 40.667 143.334 61 218.001 61c87.333 0 160 -27.833 218 -83.5s87 -126.834 87 -213.501z" />
    <glyph glyph-name="Hbar" unicode="&#x126;" horiz-adv-x="1357" 
d="M1535 1200c0 -40 -20.333 -64.3311 -61 -72.998c-7.33301 -1.33301 -43 -2 -107 -2l-286 -1069c-10 -37.333 -33.667 -56 -71 -56c-51.333 0 -77 24 -77 72c0 7.33301 1 14.666 3 21.999l155 581h-744l-166 -619c-10 -37.333 -33.667 -56 -71 -56
c-51.333 0 -77 24 -77 72c0 7.33301 1 14.666 3 21.999l276 1031c-42.667 0 -71.334 2.66699 -86.001 8c-27.333 10 -41 32.333 -41 67c0 40 20 64.333 60 73c7.33301 1.33301 43 2 107 2l45 169c10 37.333 33.667 56 71 56c51.333 0 77 -24 77 -72
c0 -8 -12.667 -59 -38 -153h745l45 169c10 37.333 33.667 56 71 56c51.333 0 77 -24 77 -72c0 -8 -12.667 -59 -38 -153c42.667 0 71.334 -2.66699 86.001 -8c28 -10 42 -32.333 42 -67zM1212 1125h-745l-80 -300h744z" />
    <glyph glyph-name="hbar" unicode="&#x127;" horiz-adv-x="1081" 
d="M1029 753c0 -32 -4.33301 -64.3301 -13 -96.9971l-161 -600c-10 -37.333 -33.333 -56 -70 -56c-52 0 -78 24 -78 72c0 7.33301 1 14.666 3 21.999l161 600c5.33301 20.667 8 40.334 8 59.001c0 45.333 -14.5 81.166 -43.5 107.499s-66.167 39.5 -111.5 39.5
c-68 0 -132 -24.333 -192 -73s-98.667 -105.667 -116 -171l-161 -600c-10 -37.333 -33.333 -56 -70 -56c-52 0 -78 24 -78 72c0 7.33301 1 14.666 3 21.999l276 1031h-127c-50 0 -75 25 -75 75s25 75 75 75h167l46 169c10 37.333 33.333 56 70 56c52 0 78 -24 78 -72
c0 -8.66699 -12.667 -59.667 -38 -153h127c50 0 75 -25 75 -75s-25 -75 -75 -75h-168l-36 -136c70.667 40.667 143.667 61 219 61c87.333 0 160 -27.833 218 -83.5s87 -126.834 87 -213.501z" />
    <glyph glyph-name="Itilde" unicode="&#x128;" horiz-adv-x="450" 
d="M943 1802c0 -45.333 -31 -83.333 -93 -114c-51.333 -25.333 -102.333 -38 -153 -38c-58.667 0 -112.667 25 -162 75s-82 75 -98 75c-42 0 -76.5 -12.667 -103.5 -38s-48.5 -38 -64.5 -38c-20.667 0 -39 7.33301 -55 22s-24 32 -24 52c0 45.333 31 83.333 93 114
c52 25.333 103.333 38 154 38c58 0 111.667 -25 161 -75s82.333 -75 99 -75c42 0 76.333 12.667 103 38s48 38 64 38c20.667 0 39 -7.33301 55 -22s24 -32 24 -52zM542 1428c0 -7.33301 -1 -14.666 -3 -21.999l-362 -1350c-10 -37.333 -33.667 -56 -71 -56
c-51.333 0 -77 24 -77 72c0 7.33301 1 14.666 3 21.999l362 1350c10 37.333 33.333 56 70 56c52 0 78 -24 78 -72z" />
    <glyph glyph-name="itilde" unicode="&#x129;" horiz-adv-x="450" 
d="M822 1352c0 -45.333 -30.667 -83.333 -92 -114c-52 -25.333 -103.333 -38 -154 -38c-58 0 -111.833 25 -161.5 75s-82.5 75 -98.5 75c-42 0 -76.5 -12.667 -103.5 -38s-48.5 -38 -64.5 -38c-20 0 -38 7.33301 -54 22s-24 32 -24 52c0 45.333 30.667 83.333 92 114
c52 25.333 103.333 38 154 38c58.667 0 112.667 -25 162 -75s82 -75 98 -75c42 0 76.5 12.667 103.5 38s48.5 38 64.5 38c20 0 38 -7.33301 54 -22s24 -32 24 -52zM421 978c0 -7.33301 -1 -14.666 -3 -21.999l-241 -900c-10 -37.333 -33.333 -56 -70 -56
c-52 0 -78 24 -78 72c0 7.33301 1 14.666 3 21.999l241 900c10 37.333 33.333 56 70 56c52 0 78 -24 78 -72z" />
    <glyph glyph-name="Imacron" unicode="&#x12a;" horiz-adv-x="450" 
d="M867 1800c0 -50 -25 -75 -75 -75h-450c-50 0 -75 25 -75 75s25 75 75 75h450c50 0 75 -25 75 -75zM542 1428c0 -7.33301 -1 -14.666 -3 -21.999l-362 -1350c-10 -37.333 -33.667 -56 -71 -56c-51.333 0 -77 24 -77 72c0 7.33301 1 14.666 3 21.999l362 1350
c10 37.333 33.333 56 70 56c52 0 78 -24 78 -72z" />
    <glyph glyph-name="imacron" unicode="&#x12b;" horiz-adv-x="450" 
d="M696 1350c0 -50 -25 -75 -75 -75h-350c-50 0 -75 25 -75 75s25 75 75 75h350c50 0 75 -25 75 -75zM421 978c0 -7.33301 -1 -14.666 -3 -21.999l-241 -900c-10 -37.333 -33.333 -56 -70 -56c-52 0 -78 24 -78 72c0 7.33301 1 14.666 3 21.999l241 900
c10 37.333 33.333 56 70 56c52 0 78 -24 78 -72z" />
    <glyph glyph-name="Ibreve" unicode="&#x12c;" horiz-adv-x="450" 
d="M889 1875c0 -15.333 -6.66797 -31.668 -20.001 -49.001c-32 -43.333 -77 -83 -135 -119c-63.333 -38.667 -119 -58 -167 -58c-46.667 0 -97.334 20.333 -152.001 61c-50 36.667 -88 77.334 -114 122.001c-9.33301 17.333 -14 32 -14 44c0 20 8 37.5 24 52.5
s34 22.5 54 22.5c22.667 0 54.834 -25.333 96.501 -76s76.834 -76 105.501 -76c36 0 81.333 25.333 136 76s91 76 109 76c20 0 37.833 -7.66699 53.5 -23s23.5 -33 23.5 -53zM542.999 1428c0 -7.33301 -1 -14.666 -3 -21.999l-362 -1350c-10 -37.333 -33.333 -56 -70 -56
c-52 0 -78 24 -78 72c0 7.33301 1 14.666 3 21.999l362 1350c10 37.333 33.333 56 70 56c52 0 78 -24 78 -72z" />
    <glyph glyph-name="ibreve" unicode="&#x12d;" horiz-adv-x="450" 
d="M769 1425c0 -15.333 -6.66602 -31.667 -19.999 -49c-32.667 -43.333 -78 -83 -136 -119c-63.333 -38.667 -119 -58 -167 -58c-46.667 0 -97.334 20.333 -152.001 61c-50 36.667 -87.667 77.667 -113 123c-10 16.667 -15 31 -15 43c0 20 8 37.5 24 52.5s34 22.5 54 22.5
c23.333 0 55.666 -25.333 96.999 -76s76.333 -76 105 -76c36 0 81.333 25.333 136 76s91 76 109 76c20.667 0 38.834 -7.66699 54.501 -23s23.5 -33 23.5 -53zM422.001 977.999c0 -7.33301 -1 -14.666 -3 -21.999l-241 -900c-10 -37.333 -33.333 -56 -70 -56
c-52 0 -78 24 -78 72c0 7.33301 1 14.666 3 21.999l241 900c10 37.333 33.667 56 71 56c51.333 0 77 -24 77 -72z" />
    <glyph glyph-name="Iogonek" unicode="&#x12e;" horiz-adv-x="450" 
d="M542 1428c0 -7.33301 -1 -14.667 -3 -22l-361 -1350c-4 -13.333 -13.667 -26 -29 -38s-30 -18 -44 -18c-52 -0 -101.333 -21.667 -148 -65s-70 -91 -70 -143c0 -61.333 32.667 -92 98 -92c45.333 0 90.5 19 135.5 57s74.5 57 88.5 57c20 0 37.833 -7.66699 53.5 -23
s23.5 -33 23.5 -53c0 -14.667 -6.33301 -30.667 -19 -48c-29.333 -40.667 -71 -74.167 -125 -100.5s-106.333 -39.5 -157 -39.5c-70.667 0 -129.667 22.667 -177 68s-71 103.333 -71 174c0 83.333 31 159.333 93 228c60.667 66.667 132.667 108 216 124l348 1300
c10 37.333 33.667 56 71 56c51.333 0 77 -24 77 -72z" />
    <glyph glyph-name="iogonek" unicode="&#x12f;" horiz-adv-x="450" 
d="M572 1396c0 -33.333 -12.502 -61.833 -37.502 -85.5s-54.167 -35.5 -87.5 -35.5c-29.333 0 -54.333 9.66699 -75 29s-31 43.666 -31 72.999c0 32.667 12.833 61.334 38.5 86.001s54.834 37 87.501 37c28.667 0 53.334 -10.167 74.001 -30.5s31 -44.833 31 -73.5z
M421.998 978c0 -7.33301 -1 -14.667 -3 -22l-241 -900c-4 -13.333 -13.667 -26 -29 -38s-30 -18 -44 -18c-52 -0 -101.333 -21.667 -148 -65s-70 -91 -70 -143c0 -61.333 32.667 -92 98 -92c45.333 0 90.5 19 135.5 57s74.5 57 88.5 57c20 0 37.833 -7.66699 53.5 -23
s23.5 -33 23.5 -53c0 -14.667 -6.33301 -30.667 -19 -48c-29.333 -40.667 -71 -74.167 -125 -100.5s-106.333 -39.5 -157 -39.5c-70.667 0 -129.667 22.667 -177 68s-71 103.333 -71 174c0 83.333 31 159.333 93 228c60.667 66.667 132.667 108 216 124l228 850
c10 37.333 33.333 56 70 56c52 0 78 -24 78 -72z" />
    <glyph glyph-name="Idotaccent" unicode="&#x130;" horiz-adv-x="450" 
d="M671 1773c0 -33.333 -12.498 -62.168 -37.498 -86.501s-54.167 -36.5 -87.5 -36.5c-28.667 0 -53 9.83301 -73 29.5s-30 43.834 -30 72.501c0 33.333 12.167 62.166 36.5 86.499s53.166 36.5 86.499 36.5c29.333 0 54.166 -9.66699 74.499 -29s30.5 -43.666 30.5 -72.999
zM541.002 1428c0 -7.33301 -1 -14.666 -3 -21.999l-362 -1350c-10 -37.333 -33.333 -56 -70 -56c-52 0 -78 24 -78 72c0 7.33301 1 14.666 3 21.999l362 1350c10 37.333 33.667 56 71 56c51.333 0 77 -24 77 -72z" />
    <glyph glyph-name="dotlessi" unicode="&#x131;" horiz-adv-x="450" 
d="M421 978c0 -7.33301 -1 -14.666 -3 -21.999l-241 -900c-10 -37.333 -33.333 -56 -70 -56c-52 0 -78 24 -78 72c0 7.33301 1 14.666 3 21.999l241 900c10 37.333 33.333 56 70 56c52 0 78 -24 78 -72z" />
    <glyph glyph-name="IJ" unicode="&#x132;" horiz-adv-x="1055" 
d="M1144 1428c0 -7.33301 -0.998047 -14.667 -2.99805 -22l-401 -1500c-26.667 -98.667 -83.5 -182.667 -170.5 -252s-181.5 -104 -283.5 -104c-68 0 -128 17.667 -180 53c-54 36.667 -91 87 -111 151c-2.66699 8.66699 -4 17 -4 25c0 48 26 72 78 72
c26 0 53 -25.167 81 -75.5s73.333 -75.5 136 -75.5c67.333 0 131.666 24.667 192.999 74c59.333 48 97.666 104.667 114.999 170l402 1500c10 37.333 33.667 56 71 56c51.333 0 77 -24 77 -72zM544.002 1428c0 -7.33301 -1 -14.666 -3 -21.999l-361 -1350
c-10 -37.333 -33.667 -56 -71 -56c-51.333 0 -77 24 -77 72c0 7.33301 1 14.666 3 21.999l361 1350c10 37.333 33.667 56 71 56c51.333 0 77 -24 77 -72z" />
    <glyph glyph-name="ij" unicode="&#x133;" horiz-adv-x="905" 
d="M1024 1396c0 -33.333 -12.5 -61.833 -37.5 -85.5s-54.167 -35.5 -87.5 -35.5c-29.333 0 -54.333 9.66699 -75 29s-31 43.666 -31 72.999c0 32.667 12.667 61.334 38 86.001s54.666 37 87.999 37c28.667 0 53.334 -10.167 74.001 -30.5s31 -44.833 31 -73.5zM574 1396
c0 -33.333 -12.5 -61.833 -37.5 -85.5s-54.167 -35.5 -87.5 -35.5c-29.333 0 -54.333 9.66699 -75 29s-31 43.666 -31 72.999c0 32.667 12.667 61.334 38 86.001s54.666 37 87.999 37c28.667 0 53.334 -10.167 74.001 -30.5s31 -44.833 31 -73.5zM424 978
c0 -7.33301 -1 -14.666 -3 -21.999l-241 -900c-10 -37.333 -33.667 -56 -71 -56c-51.333 0 -77 24 -77 72c0 7.33301 1 14.666 3 21.999l241 900c10 37.333 33.333 56 70 56c52 0 78 -24 78 -72zM874 978c0 -7.33301 -1.00098 -14.667 -3.00098 -22l-302 -1125
c-20.667 -78.667 -65.334 -145.167 -134.001 -199.5s-143 -81.5 -223 -81.5c-92.667 0 -160 32 -202 96c-10.667 16.667 -16 32 -16 46c0 20 8 37.5 24 52.5s34 22.5 54 22.5c18.667 0 38.834 -11.167 60.501 -33.5s48.167 -33.5 79.5 -33.5c46 0 89.833 17 131.5 51
s68.834 73.667 81.501 119l301 1124c10 37.333 33.333 56 70 56c52 0 78 -24 78 -72z" />
    <glyph glyph-name="Jcircumflex" unicode="&#x134;" horiz-adv-x="581" 
d="M751 1727c0 -20.667 -7.66602 -38.833 -22.999 -54.5s-33 -23.5 -53 -23.5c-17.333 0 -33.333 6 -48 18l-145 118l-221 -125c-12.667 -7.33301 -25.334 -11 -38.001 -11c-20.667 0 -38.167 8 -52.5 24s-21.5 34 -21.5 54c0 27.333 12.667 48.333 38 63l260 147
c16.667 9.33301 31 14 43 14c16.667 0 34 -7.33301 52 -22l180 -146c19.333 -15.333 29 -34 29 -56zM670.001 1428c0 -7.33301 -1.33398 -14.667 -4.00098 -22l-401 -1500c-26.667 -98.667 -83.5 -182.667 -170.5 -252s-181.167 -104 -282.5 -104
c-68.667 0 -129 17.667 -181 53c-54 36.667 -91 87 -111 151c-2 8.66699 -3 17 -3 25c0 48 25.667 72 77 72c26.667 0 53.834 -25.167 81.501 -75.5s73.167 -75.5 136.5 -75.5c67.333 0 131 24.333 191 73s99 105.667 117 171l402 1500c10 37.333 33.333 56 70 56
c52 0 78 -24 78 -72z" />
    <glyph glyph-name="jcircumflex" unicode="&#x135;" horiz-adv-x="450" 
d="M721 1277c0 -20.667 -7.49902 -38.833 -22.499 -54.5s-32.833 -23.5 -53.5 -23.5c-16.667 0 -32.334 6 -47.001 18l-145 118l-221 -125c-12.667 -7.33301 -25.667 -11 -39 -11c-20 0 -37.333 8 -52 24s-22 34 -22 54c0 27.333 13 48.333 39 63l259 147
c17.333 9.33301 32 14 44 14c16 0 33.333 -7.33301 52 -22l179 -146c19.333 -15.333 29 -34 29 -56zM415.001 978.001c0 -7.33301 -1.00098 -14.667 -3.00098 -22l-301 -1125c-21.333 -78.667 -66.333 -145.167 -135 -199.5s-143 -81.5 -223 -81.5
c-92 0 -159.333 32 -202 96c-10.667 16.667 -16 32 -16 46c0 20 8 37.5 24 52.5s34 22.5 54 22.5c18.667 0 39 -11.167 61 -33.5s48.333 -33.5 79 -33.5c46.667 0 90.834 17 132.501 51s68.5 73.667 80.5 119l301 1124c10 37.333 33.667 56 71 56c51.333 0 77 -24 77 -72z
" />
    <glyph glyph-name="Kcedilla" unicode="&#x136;" horiz-adv-x="1182" 
d="M1370 1423c0 -22 -10 -40.999 -30 -56.999l-799 -630l452 -617c10 -14 15 -29 15 -45c0 -20 -7.83301 -37.5 -23.5 -52.5s-33.834 -22.5 -54.501 -22.5c-23.333 0 -42.666 10.667 -57.999 32l-495 675c-7.33301 10.667 -12 21.667 -14 33l-183 -683
c-10 -37.333 -33.667 -56 -71 -56c-51.333 0 -77 24 -77 72c0 7.33301 1 14.666 3 21.999l361 1350c10 37.333 33.667 56 71 56c51.333 0 77 -24 77 -72c0 -7.33301 -1 -14.666 -3 -21.999l-163 -610c4 4.66699 8.33301 9 13 13l856 675c15.333 11.333 31 17 47 17
c20.667 0 38.5 -7.83301 53.5 -23.5s22.5 -33.834 22.5 -54.501zM730 -91.999c0 -93.333 -38 -176.333 -114 -249s-160.667 -109 -254 -109c-121.333 0 -200.333 55.333 -237 166c-2.66699 8 -4 16.333 -4 25c0 48 26 72 78 72c28 0 51.667 -18.833 71 -56.5
s50 -56.5 92 -56.5c52 0 101.333 21.667 148 65s70 91 70 143c0 49.333 -28.833 79.5 -86.5 90.5s-86.5 36.5 -86.5 76.5c0 50 25 75 75 75c70.667 0 129.667 -22.667 177 -68s71 -103.333 71 -174z" />
    <glyph glyph-name="kcedilla" unicode="&#x137;" horiz-adv-x="957" 
d="M1024 973c0 -22 -9.66797 -40.998 -29.001 -56.998l-514 -405l287 -392c10 -14 15 -29 15 -45c0 -20 -7.83301 -37.5 -23.5 -52.5s-33.834 -22.5 -54.501 -22.5c-23.333 0 -42.666 10.667 -57.999 32l-330 450c-8 10.667 -13 21.667 -15 33l-122 -458
c-10 -37.333 -33.667 -56 -71 -56c-51.333 0 -77 24 -77 72c0 7.33301 1 14.666 3 21.999l361 1350c10 37.333 33.667 56 71 56c51.333 0 77 -24 77 -72c0 -7.33301 -1 -14.666 -3 -21.999l-224 -835c5.33301 5.33301 10 9.66602 14 12.999l571 450
c14.667 11.333 30.334 17 47.001 17c20 0 37.5 -7.83301 52.5 -23.5s22.5 -33.834 22.5 -54.501zM639.999 -91.998c0 -93.333 -38 -176.333 -114 -249s-160.667 -109 -254 -109c-121.333 0 -200.333 55.333 -237 166c-2.66699 8 -4 16.333 -4 25c0 48 26 72 78 72
c28 0 51.667 -18.833 71 -56.5s50 -56.5 92 -56.5c52 0 101.333 21.667 148 65s70 91 70 143c0 49.333 -28.833 79.5 -86.5 90.5s-86.5 36.5 -86.5 76.5c0 50 25 75 75 75c70.667 0 129.667 -22.667 177 -68s71 -103.333 71 -174z" />
    <glyph glyph-name="kgreenlandic" unicode="&#x138;" horiz-adv-x="957" 
d="M1024 973c0 -22 -9.66602 -40.9971 -28.999 -56.9971l-514 -405l287 -392c10 -14 15 -29 15 -45c0 -20 -7.83301 -37.5 -23.5 -52.5s-33.834 -22.5 -54.501 -22.5s-40 10.667 -58 32l-133 174l-126 159c-56.667 78 -83.334 135.333 -80.001 172l-128 -480
c-10 -37.333 -33.667 -56 -71 -56c-51.333 0 -77 24 -77 72c0 7.33301 1 14.666 3 21.999l241 900c10 37.333 33.333 56 70 56c52 0 78 -24 78 -72c0 -26.667 -15 -92.334 -45 -197.001l-61 -210c16.667 35.333 72.334 88 167.001 158l201 141
c46.667 38 118.667 92.667 216 164c17.333 11.333 33 17 47 17c20 0 37.5 -7.83301 52.5 -23.5s22.5 -33.834 22.5 -54.501z" />
    <glyph glyph-name="Lacute" unicode="&#x139;" horiz-adv-x="1106" 
d="M1190 1872c0 -30.667 -14.999 -52.667 -44.999 -66l-341 -150c-10.667 -4.66699 -21.334 -7 -32.001 -7c-20.667 0 -38 8 -52 24s-21 34.333 -21 55c0 30.667 15 52.667 45 66l340 150c11.333 4.66699 22.333 7 33 7c20 0 37.167 -8 51.5 -24s21.5 -34.333 21.5 -55z
M932.001 75c0 -50 -25 -75.001 -75 -75.001h-750c-50.667 0 -76 23.333 -76 70c0 8 1.33301 16 4 24l361 1350c10 37.333 33.667 56 71 56c51.333 0 77 -24 77 -72c0 -7.33301 -1 -14.666 -3 -21.999l-336 -1256h652c50 0 75 -25 75 -75z" />
    <glyph glyph-name="lacute" unicode="&#x13a;" horiz-adv-x="531" 
d="M915 1872c0 -30.667 -14.999 -52.667 -44.999 -66l-341 -150c-10.667 -4.66699 -21.334 -7 -32.001 -7c-20.667 0 -38 8 -52 24s-21 34.333 -21 55c0 30.667 15 52.667 45 66l340 150c11.333 4.66699 22.333 7 33 7c20 0 37.167 -8 51.5 -24s21.5 -34.333 21.5 -55z
M494.001 1428c0 -7.33301 -1 -14.666 -3 -21.999l-300 -1122c-4.66699 -16 -7 -30 -7 -42c0 -48.667 28.833 -78.667 86.5 -90s86.5 -37 86.5 -77c0 -50 -25 -75 -75 -75c-70.667 0 -129.667 22.667 -177 68s-71 103.333 -71 174c0 25.333 4.33301 53.666 13 84.999
l299 1117c10 37.333 33.667 56 71 56c51.333 0 77 -24 77 -72z" />
    <glyph glyph-name="Lcedilla" unicode="&#x13b;" horiz-adv-x="1106" 
d="M932 75c0 -50 -25 -74.999 -75 -74.999h-144c11.333 -28.667 17 -59.334 17 -92.001c0 -93.333 -38 -176.333 -114 -249s-161 -109 -255 -109c-54 0 -102.667 14.667 -146 44c-45.333 30 -75.333 70.667 -90 122c-2.66699 9.33301 -4 17.666 -4 24.999c0 48 26 72 78 72
c28 0 51.667 -18.833 71 -56.5s49.666 -56.5 90.999 -56.5c52.667 0 102.334 21.667 149.001 65s70 91 70 143c0 61.333 -32.667 92 -98 92h-375c-50.667 0 -76 23.333 -76 70c0 8 1.33301 16 4 24l361 1350c10 37.333 33.667 56 71 56c51.333 0 77 -24 77 -72
c0 -7.33301 -1 -14.666 -3 -21.999l-336 -1256h652c50 0 75 -25 75 -75z" />
    <glyph glyph-name="lcedilla" unicode="&#x13c;" horiz-adv-x="531" 
d="M530 -92c0 -93.333 -37.999 -176.334 -113.999 -249.001s-161 -109 -255 -109c-54.667 0 -103.334 14.667 -146.001 44c-44.667 30 -74.667 70.667 -90 122c-2.66699 8.66699 -4 17 -4 25c0 48 26 72 78 72c28 0 51.667 -18.833 71 -56.5s49.666 -56.5 90.999 -56.5
c52.667 0 102.334 21.667 149.001 65s70 91 70 143c0 61.333 -32.667 92 -98 92c-70.667 0 -129.667 22.667 -177 68s-71 103.333 -71 174c0 25.333 3.66699 51 11 77l301 1125c10 37.333 33.667 56 71 56c51.333 0 77 -24 77 -72c0 -7.33301 -1 -14.666 -3 -21.999
l-300 -1122c-4.66699 -16 -7 -30 -7 -42c0 -61.333 32.667 -92 98 -92c70.667 0 129.667 -22.667 177 -68s71 -103.333 71 -174z" />
    <glyph glyph-name="Lcaron" unicode="&#x13d;" horiz-adv-x="1106" 
d="M1265 1873c0 -27.333 -13 -48.334 -39 -63.001l-259 -147c-16.667 -9.33301 -31 -14 -43 -14c-16.667 0 -34 7.33301 -52 22l-180 146c-19.333 15.333 -29 34 -29 56c0 20.667 7.66699 38.834 23 54.501s33 23.5 53 23.5c16.667 0 32.667 -6 48 -18l145 -118l220 125
c13.333 7.33301 26.333 11 39 11c20 0 37.333 -8 52 -24s22 -34 22 -54zM932 74.999c0 -50 -25 -75.001 -75 -75.001h-750c-50.667 0 -76 23.333 -76 70c0 8 1.33301 16 4 24l361 1350c10 37.333 33.667 56 71 56c51.333 0 77 -24 77 -72c0 -7.33301 -1 -14.666 -3 -21.999
l-336 -1256h652c50 0 75 -25 75 -75z" />
    <glyph glyph-name="lcaron" unicode="&#x13e;" horiz-adv-x="531" 
d="M841 1873c0 -27.333 -13.001 -48.334 -39.001 -63.001l-259 -147c-17.333 -9.33301 -31.666 -14 -42.999 -14c-16.667 0 -34.334 7.33301 -53.001 22l-179 146c-19.333 15.333 -29 34 -29 56c0 20.667 7.5 38.834 22.5 54.501s32.833 23.5 53.5 23.5
c16.667 0 32.334 -6 47.001 -18l145 -118l221 125c12.667 7.33301 25.667 11 39 11c20 0 37.333 -8 52 -24s22 -34 22 -54zM494.999 1428c0 -7.33301 -1 -14.666 -3 -21.999l-301 -1122c-4 -16 -6 -30 -6 -42c0 -48.667 28.833 -78.667 86.5 -90s86.5 -37 86.5 -77
c0 -50 -25 -75 -75 -75c-70.667 0 -129.667 22.667 -177 68s-71 103.333 -71 174c0 25.333 4 53.666 12 84.999l300 1117c10 37.333 33.333 56 70 56c52 0 78 -24 78 -72z" />
    <glyph glyph-name="Ldot" unicode="&#x13f;" horiz-adv-x="1106" 
d="M927 760c0 -33.333 -12.5 -62.168 -37.5 -86.501s-53.833 -36.5 -86.5 -36.5c-28.667 0 -53.167 9.83301 -73.5 29.5s-30.5 43.834 -30.5 72.501c0 33.333 12.333 62.166 37 86.499s53.667 36.5 87 36.5c29.333 0 54 -9.66699 74 -29s30 -43.666 30 -72.999zM932 74.998
c0 -50 -25 -75.001 -75 -75.001h-750c-50.667 0 -76 23.333 -76 70c0 8 1.33301 16 4 24l361 1350c10 37.333 33.667 56 71 56c51.333 0 77 -24 77 -72c0 -7.33301 -1 -14.666 -3 -21.999l-336 -1256h652c50 0 75 -25 75 -75z" />
    <glyph glyph-name="ldot" unicode="&#x140;" horiz-adv-x="531" 
d="M614 760c0 -33.333 -12.5 -62.168 -37.5 -86.501s-53.833 -36.5 -86.5 -36.5c-28.667 0 -53.167 9.83301 -73.5 29.5s-30.5 43.834 -30.5 72.501c0 33.333 12.333 62.166 37 86.499s53.667 36.5 87 36.5c29.333 0 54 -9.66699 74 -29s30 -43.666 30 -72.999zM494 1428
c0 -7.33301 -1 -14.666 -3 -21.999l-300 -1122c-4.66699 -16 -7 -30 -7 -42c0 -48.667 28.833 -78.667 86.5 -90s86.5 -37 86.5 -77c0 -50 -25 -75 -75 -75c-70.667 0 -129.667 22.667 -177 68s-71 103.333 -71 174c0 25.333 4.33301 53.666 13 84.999l299 1117
c10 37.333 33.667 56 71 56c51.333 0 77 -24 77 -72z" />
    <glyph glyph-name="Lslash" unicode="&#x141;" horiz-adv-x="1179" 
d="M1005 75c0 -50 -25.001 -75.001 -75.001 -75.001h-750c-50 0 -75 23.333 -75 70c0 8 1 16 3 24l146 545c-85.333 -26.667 -132.333 -40 -141 -40c-48 0 -72 26 -72 78c0 35.333 17.667 58.666 53 69.999l206 63l170 634c10 37.333 33.333 56 70 56c52 0 78 -24 78 -72
c0 -7.33301 -1 -14.666 -3 -21.999l-146 -545c84.667 26.667 131.334 40 140.001 40c48.667 0 73 -26 73 -78c0 -35.333 -18 -58.666 -54 -69.999l-205 -63l-145 -540h652c50 0 75 -25 75 -75z" />
    <glyph glyph-name="lslash" unicode="&#x142;" horiz-adv-x="654" 
d="M682 823c0 -35.333 -18.001 -58.665 -54.001 -69.998l-205 -63l-109 -406c-4 -16 -6 -30 -6 -42c0 -48.667 28.667 -78.834 86 -90.501s86 -37.167 86 -76.5c0 -50 -25 -75 -75 -75c-70 0 -128.667 22.833 -176 68.5s-71 103.5 -71 173.5c0 25.333 4 53.666 12 84.999
l84 312c-84.667 -26.667 -131.667 -40 -141 -40c-48 0 -72 26 -72 78c0 35.333 17.667 58.666 53 69.999l206 63l170 634c10 37.333 33.333 56 70 56c20.667 0 38.834 -7 54.501 -21s23.5 -31 23.5 -51c0 -7.33301 -1 -14.666 -3 -21.999l-146 -545
c84 26.667 130.667 40 140 40c48.667 0 73 -26 73 -78z" />
    <glyph glyph-name="Nacute" unicode="&#x143;" horiz-adv-x="1505" 
d="M1340 1872c0 -30.667 -14.999 -52.667 -44.999 -66l-341 -150c-10.667 -4.66699 -21.334 -7 -32.001 -7c-20.667 0 -38 8 -52 24s-21 34.333 -21 55c0 30.667 15 52.667 45 66l340 150c11.333 4.66699 22.333 7 33 7c20 0 37.167 -8 51.5 -24s21.5 -34.333 21.5 -55z
M1594 1428c0 -7.33301 -0.999023 -14.666 -2.99902 -21.999l-358 -1337c-12.667 -46.667 -38.334 -70 -77.001 -70c-30 0 -54 18 -72 54l-593 1164l-311 -1161c-10 -37.333 -33.667 -56 -71 -56c-51.333 0 -77 24 -77 72c0 7.33301 1 14.666 3 21.999l358 1337
c12 46.667 37.667 70 77 70c29.333 0 53.333 -18 72 -54l593 -1164l311 1161c10 37.333 33.667 56 71 56c51.333 0 77 -24 77 -72z" />
    <glyph glyph-name="nacute" unicode="&#x144;" horiz-adv-x="1005" 
d="M994 1422c0 -30.667 -15.001 -52.667 -45.001 -66l-340 -150c-11.333 -4.66699 -22.333 -7 -33 -7c-20 0 -37.167 8 -51.5 24s-21.5 34.333 -21.5 55c0 30.667 15 52.667 45 66l341 150c10.667 4.66699 21.334 7 32.001 7c20.667 0 38 -8 52 -24s21 -34.333 21 -55z
M952.999 753c0 -32 -4.33301 -64.3301 -13 -96.9971l-160 -600c-10 -37.333 -33.667 -56 -71 -56c-51.333 0 -77 24 -77 72c0 7.33301 1 14.666 3 21.999l160 600c5.33301 20.667 8 40.334 8 59.001c0 45.333 -14.333 81.166 -43 107.499s-66 39.5 -112 39.5
c-67.333 0 -131 -24.333 -191 -73s-99 -105.667 -117 -171l-160 -600c-10 -37.333 -33.667 -56 -71 -56c-51.333 0 -77 24 -77 72c0 7.33301 1 14.666 3 21.999l241 900c10 37.333 33.333 56 70 56c47.333 0 73 -21.667 77 -65c72.667 43.333 147.667 65 225 65
c87.333 0 160 -27.833 218 -83.5s87 -126.834 87 -213.501z" />
    <glyph glyph-name="Ncedilla" unicode="&#x145;" horiz-adv-x="1505" 
d="M1594 1428c0 -7.33301 -0.999023 -14.666 -2.99902 -21.999l-358 -1337c-12.667 -46.667 -38.334 -70 -77.001 -70c-30 0 -54 18 -72 54l-593 1164l-311 -1161c-10 -37.333 -33.667 -56 -71 -56c-51.333 0 -77 24 -77 72c0 7.33301 1 14.666 3 21.999l358 1337
c12 46.667 37.667 70 77 70c29.333 0 53.333 -18 72 -54l593 -1164l311 1161c10 37.333 33.667 56 71 56c51.333 0 77 -24 77 -72zM880.001 -92c0 -93.333 -38 -176.333 -114 -249s-161 -109 -255 -109c-121.333 0 -200 55.333 -236 166c-2.66699 8 -4 16.333 -4 25
c0 48 26 72 78 72c28 0 51.667 -18.833 71 -56.5s49.666 -56.5 90.999 -56.5c52.667 0 102.334 21.667 149.001 65s70 91 70 143c0 49.333 -28.833 79.5 -86.5 90.5s-86.5 36.5 -86.5 76.5c0 50 25 75 75 75c70.667 0 129.667 -22.667 177 -68s71 -103.333 71 -174z" />
    <glyph glyph-name="ncedilla" unicode="&#x146;" horiz-adv-x="1005" 
d="M953 753c0 -32 -4.33301 -64.3301 -13 -96.9971l-160 -600c-10 -37.333 -33.667 -56 -71 -56c-51.333 0 -77 24 -77 72c0 7.33301 1 14.666 3 21.999l160 600c5.33301 20.667 8 40.334 8 59.001c0 45.333 -14.333 81.166 -43 107.499s-66 39.5 -112 39.5
c-67.333 0 -131 -24.333 -191 -73s-99 -105.667 -117 -171l-160 -600c-10 -37.333 -33.667 -56 -71 -56c-51.333 0 -77 24 -77 72c0 7.33301 1 14.666 3 21.999l241 900c10 37.333 33.333 56 70 56c47.333 0 73 -21.667 77 -65c72.667 43.333 147.667 65 225 65
c87.333 0 160 -27.833 218 -83.5s87 -126.834 87 -213.501zM655 -91.9971c0 -93.333 -38 -176.333 -114 -249s-161 -109 -255 -109c-121.333 0 -200 55.333 -236 166c-2.66699 8 -4 16.333 -4 25c0 48 26 72 78 72c28 0 51.667 -18.833 71 -56.5s49.666 -56.5 90.999 -56.5
c52.667 0 102.334 21.667 149.001 65s70 91 70 143c0 49.333 -28.833 79.5 -86.5 90.5s-86.5 36.5 -86.5 76.5c0 50 25 75 75 75c70.667 0 129.667 -22.667 177 -68s71 -103.333 71 -174z" />
    <glyph glyph-name="Ncaron" unicode="&#x147;" horiz-adv-x="1505" 
d="M1415 1873c0 -27.333 -13 -48.334 -39 -63.001l-259 -147c-16.667 -9.33301 -31 -14 -43 -14c-16.667 0 -34 7.33301 -52 22l-180 146c-19.333 15.333 -29 34 -29 56c0 20.667 7.66699 38.834 23 54.501s33 23.5 53 23.5c16.667 0 32.667 -6 48 -18l145 -118l220 125
c13.333 7.33301 26.333 11 39 11c20 0 37.333 -8 52 -24s22 -34 22 -54zM1594 1428c0 -7.33301 -0.999023 -14.666 -2.99902 -21.999l-358 -1337c-12.667 -46.667 -38.334 -70 -77.001 -70c-30 0 -54 18 -72 54l-593 1164l-311 -1161c-10 -37.333 -33.667 -56 -71 -56
c-51.333 0 -77 24 -77 72c0 7.33301 1 14.666 3 21.999l358 1337c12 46.667 37.667 70 77 70c29.333 0 53.333 -18 72 -54l593 -1164l311 1161c10 37.333 33.667 56 71 56c51.333 0 77 -24 77 -72z" />
    <glyph glyph-name="ncaron" unicode="&#x148;" horiz-adv-x="1005" 
d="M1070 1423c0 -27.333 -13 -48.334 -39 -63.001l-259 -147c-17.333 -9.33301 -32 -14 -44 -14c-16 0 -33.333 7.33301 -52 22l-179 146c-19.333 15.333 -29 34 -29 56c0 20.667 7.5 38.834 22.5 54.501s32.5 23.5 52.5 23.5c17.333 0 33.333 -6 48 -18l145 -118l221 125
c12.667 7.33301 25.667 11 39 11c20 0 37.333 -8 52 -24s22 -34 22 -54zM953 752.999c0 -32 -4.33301 -64.3301 -13 -96.9971l-160 -600c-10 -37.333 -33.667 -56 -71 -56c-51.333 0 -77 24 -77 72c0 7.33301 1 14.666 3 21.999l160 600c5.33301 20.667 8 40.334 8 59.001
c0 45.333 -14.333 81.166 -43 107.499s-66 39.5 -112 39.5c-67.333 0 -131 -24.333 -191 -73s-99 -105.667 -117 -171l-160 -600c-10 -37.333 -33.667 -56 -71 -56c-51.333 0 -77 24 -77 72c0 7.33301 1 14.666 3 21.999l241 900c10 37.333 33.333 56 70 56
c47.333 0 73 -21.667 77 -65c72.667 43.333 147.667 65 225 65c87.333 0 160 -27.833 218 -83.5s87 -126.834 87 -213.501z" />
    <glyph glyph-name="napostrophe" unicode="&#x149;" horiz-adv-x="1304" 
d="M593 1426c0 -14.667 -4.66797 -29 -14.001 -43l-250 -375c-15.333 -22.667 -35.333 -34 -60 -34c-20.667 0 -39 7.5 -55 22.5s-24 32.5 -24 52.5c0 14.667 4.66699 29 14 43l251 375c15.333 22.667 35.333 34 60 34c20.667 0 38.834 -7.5 54.501 -22.5
s23.5 -32.5 23.5 -52.5zM1252 753c0 -32 -4.33301 -64.3301 -13 -96.9971l-161 -600c-10 -37.333 -33.667 -56 -71 -56c-51.333 0 -77 24 -77 72c0 7.33301 1 14.666 3 21.999l161 600c5.33301 20.667 8 40.334 8 59.001c0 45.333 -14.5 81.166 -43.5 107.499
s-66.167 39.5 -111.5 39.5c-68 0 -132 -24.333 -192 -73s-98.667 -105.667 -116 -171l-161 -600c-10 -37.333 -33.667 -56 -71 -56c-51.333 0 -77 24 -77 72c0 7.33301 1 14.666 3 21.999l241 900c10 37.333 33.333 56 70 56c47.333 0 73.333 -21.667 78 -65
c72.667 43.333 147.667 65 225 65c86.667 0 159.167 -27.833 217.5 -83.5s87.5 -126.834 87.5 -213.501z" />
    </font>
</defs>
</svg>
