<?xml version="1.0" encoding="utf-8"?>
<!-- Generated by IcoMoon.io -->
<!DOCTYPE svg PUBLIC "-//W3C//DTD SVG 1.1//EN" "http://www.w3.org/Graphics/SVG/1.1/DTD/svg11.dtd">
<svg xmlns:xlink="http://www.w3.org/1999/xlink" version="1.1" xmlns="http://www.w3.org/2000/svg" width="32" height="32" viewBox="0 0 32 32">
<g id="icomoon-ignore">
	<line stroke-width="1" x1="" y1="" x2="" y2="" stroke="#449FDB" opacity=""></line>
</g>
	<path d="M19.534 15.011l-6.656-5.945c-0.093-0.072-0.184-0.109-0.272-0.109-0.154 0-0.285 0.107-0.39 0.318-0.107 0.214-0.16 0.46-0.16 0.737 0 0.388 0.105 0.676 0.314 0.86l5.743 5.125-5.743 5.114c-0.209 0.195-0.314 0.485-0.314 0.875 0 0.277 0.053 0.523 0.158 0.736 0.105 0.21 0.236 0.32 0.39 0.32 0.087 0 0.179-0.042 0.272-0.128l6.656-5.927c0.274-0.25 0.411-0.582 0.411-0.995 0.001-0.405-0.135-0.733-0.41-0.982v0z" fill="#000000"></path>
</svg>
