<?xml version="1.0" encoding="utf-8"?>
<!-- Generated by IcoMoon.io -->
<!DOCTYPE svg PUBLIC "-//W3C//DTD SVG 1.1//EN" "http://www.w3.org/Graphics/SVG/1.1/DTD/svg11.dtd">
<svg xmlns:xlink="http://www.w3.org/1999/xlink" version="1.1" xmlns="http://www.w3.org/2000/svg" width="32" height="32" viewBox="0 0 32 32">
<g id="icomoon-ignore">
	<line stroke-width="1" x1="" y1="" x2="" y2="" stroke="#449FDB" opacity=""></line>
</g>
	<path d="M23.898 15.999c0-0.001 0-0.002 0-0.004 0-0.356-0.12-0.644-0.361-0.863l-5.86-5.232c-0.084-0.065-0.163-0.097-0.239-0.097-0.137 0-0.253 0.094-0.344 0.281-0.094 0.187-0.14 0.402-0.14 0.648 0 0.342 0.092 0.594 0.276 0.757l4.308 3.845h-12.768c-0.37 0-0.668 0.299-0.668 0.667s0.299 0.668 0.668 0.668h12.764l-4.303 3.832c-0.184 0.172-0.276 0.428-0.276 0.772 0 0.244 0.047 0.46 0.14 0.647 0.091 0.19 0.208 0.281 0.342 0.281 0.078 0 0.157-0.037 0.241-0.108l5.86-5.222c0.239-0.218 0.359-0.505 0.361-0.865 0-0.001 0-0.002 0-0.004-0.001-0.001-0.001-0.002-0.001-0.002z" fill="#000000"></path>
</svg>
