<?xml version="1.0" encoding="utf-8"?>
<!-- Generated by IcoMoon.io -->
<!DOCTYPE svg PUBLIC "-//W3C//DTD SVG 1.1//EN" "http://www.w3.org/Graphics/SVG/1.1/DTD/svg11.dtd">
<svg xmlns:xlink="http://www.w3.org/1999/xlink" version="1.1" xmlns="http://www.w3.org/2000/svg" width="32" height="32" viewBox="0 0 32 32">
<g id="icomoon-ignore">
	<line stroke-width="1" x1="" y1="" x2="" y2="" stroke="#449FDB" opacity=""></line>
</g>
	<path d="M15.042 12.312l-5.763 6.948c-0.072 0.096-0.107 0.191-0.107 0.283 0 0.161 0.104 0.298 0.31 0.408s0.445 0.165 0.711 0.165c0.378 0 0.655-0.109 0.834-0.328l4.971-5.994 4.96 5.994c0.187 0.218 0.47 0.328 0.848 0.328 0.266 0 0.506-0.055 0.711-0.165 0.207-0.111 0.31-0.247 0.31-0.408 0-0.091-0.040-0.187-0.12-0.283l-5.749-6.948c-0.243-0.285-0.563-0.429-0.965-0.429-0.392 0-0.709 0.143-0.952 0.429v0z" fill="#000000"></path>
</svg>
