<?xml version="1.0" encoding="utf-8"?>
<!-- Generated by IcoMoon.io -->
<!DOCTYPE svg PUBLIC "-//W3C//DTD SVG 1.1//EN" "http://www.w3.org/Graphics/SVG/1.1/DTD/svg11.dtd">
<svg xmlns:xlink="http://www.w3.org/1999/xlink" version="1.1" xmlns="http://www.w3.org/2000/svg" width="32" height="32" viewBox="0 0 32 32">
<g id="icomoon-ignore">
	<line stroke-width="1" x1="" y1="" x2="" y2="" stroke="#449FDB" opacity=""></line>
</g>
	<path d="M12.465 15.011l6.657-5.943c0.093-0.075 0.184-0.111 0.272-0.111 0.154 0 0.285 0.107 0.39 0.318 0.105 0.213 0.158 0.459 0.158 0.736 0 0.388-0.104 0.676-0.314 0.861l-5.741 5.124 5.741 5.114c0.21 0.194 0.314 0.485 0.314 0.874 0 0.279-0.053 0.523-0.158 0.736-0.105 0.212-0.236 0.318-0.39 0.318-0.087 0-0.179-0.041-0.272-0.126l-6.657-5.928c-0.273-0.248-0.411-0.58-0.411-0.995 0-0.403 0.138-0.73 0.411-0.979v0z" fill="#000000"></path>
</svg>
