<?xml version="1.0" encoding="utf-8"?>
<!-- Generated by IcoMoon.io -->
<!DOCTYPE svg PUBLIC "-//W3C//DTD SVG 1.1//EN" "http://www.w3.org/Graphics/SVG/1.1/DTD/svg11.dtd">
<svg xmlns:xlink="http://www.w3.org/1999/xlink" version="1.1" xmlns="http://www.w3.org/2000/svg" width="32" height="32" viewBox="0 0 32 32">
<g id="icomoon-ignore">
	<line stroke-width="1" x1="" y1="" x2="" y2="" stroke="#449FDB" opacity=""></line>
</g>
	<path d="M29.787 16.298l-0.018-0.069c-0.252-0.7-0.878-1.494-1.715-2.171-0.68-0.548-1.483-0.157-1.965 0.075l-0.209 0.097c-0.536 0.229-1.558 3.435-1.581 3.841-0.003 0.060 0.003 0.124 0.018 0.187 0.087 0.44 0.564 0.986 1.515 2.057-0.538 1.24-2.102 2.982-3.013 3.791-0.988 0.881-2.675 1.98-3.904 2.341-1.102-1.247-1.571-1.763-2.044-1.791-0.407-0.027-3.711 0.604-4.003 1.11l-0.12 0.188c-0.239 0.374-0.603 0.936-0.48 1.531 0.028 0.145 0.087 0.284 0.166 0.416 0.573 0.91 1.284 1.627 1.952 1.96 0.339 0.172 5.851 0.617 10.739-3.713 4.607-4.086 4.814-9.101 4.66-9.851zM23.284 12.586c0-5.825-4.724-10.551-10.55-10.551-5.828 0-10.551 4.726-10.551 10.551 0 5.828 4.723 10.551 10.551 10.551 5.825-0.001 10.55-4.723 10.55-10.551zM5.253 12.586c0-4.125 3.356-7.482 7.482-7.482s7.48 3.356 7.48 7.482c0 4.125-3.355 7.48-7.48 7.48s-7.482-3.355-7.482-7.48zM12.812 13.743c0.055 0.009 0.109 0.298 0.169 0.298h3.639c0.503 0 0.91-0.703 0.91-1.125 0-0.424-0.407-1.125-0.91-1.125h-3.092l-0.026-4.174c0-0.184-0.068-0.308-0.174-0.442-0.145-0.178-0.364-0.269-0.612-0.269-0.426 0.003-0.774 0.367-0.772 0.797l0.029 5c0.003 0.43 0.355 0.913 0.785 0.913 0.018 0.001 0.036 0.128 0.054 0.127z" fill="#000000"></path>
</svg>
