<?xml version="1.0" encoding="utf-8"?>
<!-- Generated by IcoMoon.io -->
<!DOCTYPE svg PUBLIC "-//W3C//DTD SVG 1.1//EN" "http://www.w3.org/Graphics/SVG/1.1/DTD/svg11.dtd">
<svg xmlns:xlink="http://www.w3.org/1999/xlink" version="1.1" xmlns="http://www.w3.org/2000/svg" width="32" height="32" viewBox="0 0 32 32">
<g id="icomoon-ignore">
	<line stroke-width="1" x1="" y1="" x2="" y2="" stroke="#449FDB" opacity=""></line>
</g>
	<path d="M20.36 19.882l-7.475-8.416c-0.481-0.542-0.774-1.21-0.873-1.906l-5.485-0.731-1.521-1.014c0.027-0.106 0.066-0.212 0.066-0.33 0-0.8-0.651-1.452-1.455-1.452-0.802 0-1.455 0.651-1.455 1.452 0 0.804 0.653 1.452 1.455 1.452 0.103 0 0.192-0.036 0.29-0.056l1.785 1.191 2.963 11.665 0.898-0.035-0.805 2.537c-0.033 0-0.060-0.010-0.093-0.010-1.38 0-2.497 1.117-2.497 2.492 0 1.379 1.117 2.625 2.497 2.625 1.022 0 1.899-0.272 2.283-1.365h7.889c0.366 1.094 1.233 1.365 2.244 1.365 1.346 0 2.436-1.155 2.436-2.495 0-1.344-1.089-2.683-2.436-2.683-1.148 0-2.106 0.52-2.361 1.619h-7.611c-0.123 0-0.471-0.9-0.941-1.259l0.988-3.003 12.361-0.466 1.402-6.814-4.549 5.635zM29.13 2.951c-0.308-0.199-0.665-0.297-1.017-0.297-0.537 0-1.067 0.22-1.407 0.633l-6.535 8.099-0.746-0.838-2.172-2.447c-0.341-0.383-0.85-0.585-1.364-0.585-0.376 0-0.754 0.108-1.072 0.331-0.704 0.497-0.853 1.377-0.379 2.037 0.031 0.043 0.055 0.089 0.091 0.129l5.755 6.476 9.226-11.384c0.562-0.688 0.396-1.65-0.379-2.154z" fill="#000000"></path>
</svg>
