<?xml version="1.0" encoding="utf-8"?>
<!-- Generated by IcoMoon.io -->
<!DOCTYPE svg PUBLIC "-//W3C//DTD SVG 1.1//EN" "http://www.w3.org/Graphics/SVG/1.1/DTD/svg11.dtd">
<svg xmlns:xlink="http://www.w3.org/1999/xlink" version="1.1" xmlns="http://www.w3.org/2000/svg" width="32" height="32" viewBox="0 0 32 32">
<g id="icomoon-ignore">
	<line stroke-width="1" x1="" y1="" x2="" y2="" stroke="#449FDB" opacity=""></line>
</g>
	<path d="M8.711 7.14l-1.521-1.012c0.027-0.106 0.066-0.212 0.066-0.33 0-0.8-0.651-1.452-1.455-1.452-0.802 0-1.455 0.651-1.455 1.452 0 0.804 0.653 1.452 1.455 1.452 0.103 0 0.192-0.036 0.29-0.056l1.785 1.191 2.963 11.662 0.898-0.033-0.805 2.537c-0.033 0-0.060-0.013-0.093-0.013-1.38 0-2.497 1.12-2.497 2.495s1.117 2.621 2.497 2.621c1.022 0 1.899-0.268 2.283-1.365h7.887c0.366 1.097 1.233 1.365 2.244 1.365 1.346 0 2.436-1.152 2.436-2.495 0-1.34-1.089-2.683-2.436-2.683-1.148 0-2.106 0.524-2.361 1.619h-7.609c-0.123 0-0.471-0.896-0.941-1.259l0.988-3.001 12.36-0.466 1.968-9.549-18.946-2.679z" fill="#000000"></path>
</svg>
