<?xml version="1.0" encoding="utf-8"?>
<!-- Generated by IcoMoon.io -->
<!DOCTYPE svg PUBLIC "-//W3C//DTD SVG 1.1//EN" "http://www.w3.org/Graphics/SVG/1.1/DTD/svg11.dtd">
<svg xmlns:xlink="http://www.w3.org/1999/xlink" version="1.1" xmlns="http://www.w3.org/2000/svg" width="32" height="32" viewBox="0 0 32 32">
<g id="icomoon-ignore">
	<line stroke-width="1" x1="" y1="" x2="" y2="" stroke="#449FDB" opacity=""></line>
</g>
	<path d="M7.9 12.815c0-0.659 0.1-1.295 0.279-1.911-3.959 1.012-6.78 3.599-6.78 6.641 0 2.093 1.341 3.967 3.462 5.266-0.306 1.029-0.933 2.225-2.167 3.414-0.324 0.311 2.604-0.54 4.31-2.394 1.453 0.518 3.105 0.814 4.86 0.814 3.502 0 6.592-1.17 8.493-2.961-0.074 0-0.145 0.008-0.219 0.008-6.862-0.003-12.238-3.901-12.238-8.877zM27.231 18.022c2.070-1.295 3.373-3.145 3.373-5.207 0-3.921-4.685-7.101-10.465-7.101-4.604 0-8.504 2.020-9.905 4.823-0.357 0.717-0.561 1.481-0.561 2.278 0 3.921 4.685 7.1 10.465 7.1 0.557 0 1.098-0.036 1.629-0.095 1.184-0.124 2.299-0.39 3.315-0.76 1.701 1.88 4.669 2.747 4.343 2.433-1.313-1.261-1.925-2.473-2.195-3.471z" fill="#000000"></path>
</svg>
