<?xml version="1.0" encoding="utf-8"?>
<!-- Generated by IcoMoon.io -->
<!DOCTYPE svg PUBLIC "-//W3C//DTD SVG 1.1//EN" "http://www.w3.org/Graphics/SVG/1.1/DTD/svg11.dtd">
<svg xmlns:xlink="http://www.w3.org/1999/xlink" version="1.1" xmlns="http://www.w3.org/2000/svg" width="32" height="32" viewBox="0 0 32 32">
<g id="icomoon-ignore">
	<line stroke-width="1" x1="" y1="" x2="" y2="" stroke="#449FDB" opacity=""></line>
</g>
	<path d="M16.012 20.631c-1.167 0-2.067 0.9-2.067 2.065 0 1.094 0.9 2.045 2.067 2.045 1.119 0 2.042-0.95 2.042-2.045 0-1.142-0.9-2.065-2.042-2.065zM14.262 8.010l0.535 9.459c0.047 0.462 0.145 0.39 0.509 0.39h1.385c0.365 0 0.462 0.073 0.512-0.39l0.534-9.368c0.024-0.413 0.024-0.204 0.024-0.349 0-0.312-0.291-0.132-0.485-0.132h-2.602c-0.195 0-0.438-0.205-0.438 0.108 0.001 0.145 0.001-0.131 0.026 0.283zM16 2.571c-7.418 0-13.428 6.012-13.428 13.43 0 7.415 6.011 13.427 13.428 13.427 7.415 0 13.428-6.012 13.428-13.427-0.001-7.418-6.013-13.43-13.428-13.43zM16 27.466c-6.322 0-11.466-5.143-11.466-11.464s5.143-11.468 11.466-11.468c6.322 0 11.465 5.147 11.465 11.468s-5.144 11.464-11.465 11.464z" fill="#000000"></path>
</svg>
