<?xml version="1.0" encoding="utf-8"?>
<!-- Generated by IcoMoon.io -->
<!DOCTYPE svg PUBLIC "-//W3C//DTD SVG 1.1//EN" "http://www.w3.org/Graphics/SVG/1.1/DTD/svg11.dtd">
<svg xmlns:xlink="http://www.w3.org/1999/xlink" version="1.1" xmlns="http://www.w3.org/2000/svg" width="32" height="32" viewBox="0 0 32 32">
<g id="icomoon-ignore">
	<line stroke-width="1" x1="" y1="" x2="" y2="" stroke="#449FDB" opacity=""></line>
</g>
	<path d="M27.564 12.831h-3.303v-2.914l-5.162-5.010h-11.356v7.924h-3.303l-1.653 1.585v7.926h4.954v4.752h16.519v-4.752h4.954v-7.926l-1.651-1.585zM6.091 16h-1.65v-1.585h1.65v1.585zM22.608 25.509h-13.214v-7.924h13.214v7.924zM22.608 12.831h-13.214v-6.338h8.258v4.754h4.954v1.585zM27.306 20.357h-1.549v-2.375h1.549v2.375zM20.957 19.171h-9.911v1.584h9.911v-1.584zM20.957 22.341h-9.911v1.584h9.911v-1.584z" fill="#000000"></path>
</svg>
