<?xml version="1.0" encoding="utf-8"?>
<!-- Generated by IcoMoon.io -->
<!DOCTYPE svg PUBLIC "-//W3C//DTD SVG 1.1//EN" "http://www.w3.org/Graphics/SVG/1.1/DTD/svg11.dtd">
<svg xmlns:xlink="http://www.w3.org/1999/xlink" version="1.1" xmlns="http://www.w3.org/2000/svg" width="32" height="32" viewBox="0 0 32 32">
<g id="icomoon-ignore">
	<line stroke-width="1" x1="" y1="" x2="" y2="" stroke="#449FDB" opacity=""></line>
</g>
	<path d="M16.003 3.173c-7.082 0-12.827 5.746-12.827 12.827 0 7.084 5.743 12.828 12.827 12.828 7.081 0 12.826-5.745 12.826-12.828-0.001-7.081-5.745-12.827-12.826-12.827zM19.506 22.683c-0.14-0.035-0.276-0.385-0.276-0.582 0.165-0.029 0.25-0.131 0.265-0.070 0.042-0.050 0.234-0.393 0.236-0.443 0.052 0.296-0.37 0.863-0.224 1.096zM21.151 21.642c-0.004 0.14-0.027 0.278-0.091 0.402-0.026-0.023-0.037-0.050-0.042-0.082-0.567 0.46-0.561 1.768-1.334 2.093-0.413 0.175-0.361-0.385-0.206-0.582 0.23-0.293-0.083-0.488 0.060-0.774-0.012 0-0.019-0.013-0.029-0.015 0.078-0.010 0.095 0.003 0.155-0.097 0 0.155 0.032 0.305 0.095 0.445-0.178-0.705 0.539-0.727 0.863-1.143 0.125-0.163 0.325-0.611 0.483-0.675 0.081 0.123 0.1 0.257 0.055 0.402 0.037-0.102 0.004-0.008-0.008 0.027zM24.718 13.349c-0.275-0.433-0.449-1.128-0.845-1.457 0.092 0.113 0.104 0.237 0.028 0.361-0.206-0.060-0.375-0.18-0.498-0.361-0.019-0.086 0.211 0.111 0.083-0.137-0.328 0.041-0.564-0.296-0.832-0.486-0.475-0.060-0.987 0.338-1.471 0.056-0.111-0.067-0.219-0.457-0.394-0.229-0.091 0.118-0.189 0.118-0.326 0.077-0.541-0.164-0.773-0.626-1.261-0.64 0.005 0.207 0.352 0.513 0.517 0.607 0.218 0.127 0.37 0.669 0.396 0.186 0.311 0.179 0.090 0.576 0.532 0.43 0.335 0.128 0.243-0.411 0.316-0.571 0.104 0.065 0.161 0.326 0.246 0.41 0.178 0.163 0.428 0.099 0.59 0.268 0.205 0.215 0.32 0.522 0.271 0.778-0.191-0.013-0.038 0.233-0.161 0.421-0.131 0.195-0.118 0.241-0.2 0.453-0.228 0.056-0.495 0.16-0.454 0.456-0.157 0.189-1.574 1.216-1.76 0.936-0.233-0.347-0.288-0.831-0.474-1.199-0.279-0.090-0.856-0.795-0.972-1.069 0.087-0.477-1.179-1.42-1.385-1.426 0.151 0.65 0.713 0.992 0.97 1.496 0.22 0.431 0.621 1.444 0.957 1.581 0.561-0.052 0.904 0.961 1.202 1.174 0.388 0.27 1.188-0.608 1.527-0.521 0.038 0.461 0.029 0.6-0.11 1.107-0.283 1.043-0.763 1.495-1.38 2.341-0.355 0.485-0.585 0.829-0.852 1.364-0.209 0.42 0.402 1.303 0.236 1.54 0.091 0.687-0.079 1.093-0.675 1.437-0.435 0.252-0.81 0.495-0.664 0.973 0.148 0.477-0.447 0.55-0.516 0.82-0.182 0.445-0.435 0.682-0.742 0.847-0.202 0.015-0.406 0.029-0.614 0.029-0.375 0-0.742-0.027-1.107-0.070-0.481-0.605-0.986-1.245-1.5-1.847-0.317-0.362-0.742-1.020-0.28-1.482 0.050-0.302-0.31-1-0.471-1.262-0.269-0.451-1.51-1.422-1.024-1.943 0.067-0.346-0.238-0.687-0.238-0.96-0.262-0.21-0.532 0.285-0.79-0.165-0.273-0.48-0.771-0.347-1.183-0.050-0.092 0.065-1.238 0.233-1.341 0.142-0.87-0.777-1.147-2.001-0.846-3.048 0.125-0.434 0.138-1.203 0.485-1.496 0.113-0.447 0.635-0.891 0.911-1.262 0.148-0.198 0.387-0.216 0.559-0.421 0.259-0.302 0.384-0.666 0.719-0.933 0.337-0.266 1.060-0.722 0.447-0.819 0.243-0.358 0.632-0.749 0.776-1.178 0.21-0.169 0.604-0.1 0.841-0.216 0.204-0.417 0.285-0.402 0.211-0.672 0.040-0.169 0.582-0.3 0.698-0.343 0.212-0.084 0.402-0.279 0.598-0.425 0.808-0.228 1.655-0.357 2.534-0.357 4.669 0 8.543 3.424 9.272 7.891-0.214-0.411-0.402-0.89-0.557-1.135zM15.845 7.703c0.046-0.019 0.075-0.051 0.084-0.095-0.3 0.11-0.104-0.218-0.385 0.109 0.073 0.25-0.256 0.416-0.114 0.68 0.293 0.248 0.585-0.134 0.873-0.179-0.001 0.17 0.604 0.143 0.692 0.168-0.161-0.041 0.056-0.035 0 0 0.55-0.344-1.13-0.668-1.151-0.682zM15.375 9.355c0.020-0.136-0.145-0.146-0.207-0.32 0.22-0.26-0.189-0.129 0.029-0.413-0.113-0.059-0.223-0.059-0.335 0-0.045 0.187 0.092 0.118-0.152 0.068-0.082 0.201 0.189 0.337 0.152 0.526-0.031-0.028-0.070-0.044-0.11-0.041-0.036 0.134-0.010 0.105-0.014 0.319-0.38-0.070-0.174-0.36-0.5-0.774 0.296-0.236-0.612-0.699-0.484-0.846-0.64 0.173 0.509 0.844 0.333 0.998-0.296-0.169-0.082 0.067-0.264 0.266-0.261 0.301-0.238 0.398-0.64 0.246-0.017-0.332 0.753-0.036 0.402-0.645-0.177-0.3-0.347-0.657-0.678-0.438-0.311 0.207-0.879 0.328-1.121 0.777-0.142 0.151-1.155 0.931-1.149 1 0.39 0.32 1.928-0.938 2.313-0.57-0.023 0.262-0.325 0.458-0.332 0.722 0.115 0.049 0.143 0.159 0.276 0.178 0.509-0.109 0.374 0.243 0.75 0.334 0.627 0.156 0.148 0.037 0.544-0.353 0.131-0.127 0.824-0.113 0.855 0.104-0.022-0.134 0.292-0.051 0 0 0.308-0.054 0.605 0.253 0.833 0.024 0.165-0.16 0.297-0.128 0.42-0.040 0.558 0.403 0.37-1.171 0.385-1.248-0.193 0.127-1.313 0.244-1.306 0.127zM12.908 9.12c-0.063 0.028-0.128 0.037-0.193 0.037 0.051-0.16 0.288-0.739 0.431-0.762-0.010 0.211-0.201 0.511-0.238 0.724zM17.87 7.677c0.045-0.045 0.065-0.183 0.17-0.168-0.097-0.419-0.53-0.079-0.53 0.183 0.163 0.195 0.82 0.536 0.86 0.719-0.151 0.058 0.038 0.518 0.278 0.498 0.17 0.146 0.36 0.173 0.567 0.084-0.054-0.388-1.028-1.152-1.345-1.317zM19.133 7.731c-0.156-0.035-0.321-0.38-0.484-0.429-0.020 0.087-0.013 0.078-0.027 0.142 0.012-0.050 0.072 0.113 0 0 0.060 0.096 0.332 0.479 0.511 0.287zM12.101 8.288c-0.032 0.052-0.086 0.077-0.139 0.104l-0.012 0.020c0.050 0.022 0.109-0.143 0.151-0.124z" fill="#000000"></path>
</svg>
