<?xml version="1.0" encoding="utf-8"?>
<!-- Generated by IcoMoon.io -->
<!DOCTYPE svg PUBLIC "-//W3C//DTD SVG 1.1//EN" "http://www.w3.org/Graphics/SVG/1.1/DTD/svg11.dtd">
<svg xmlns:xlink="http://www.w3.org/1999/xlink" version="1.1" xmlns="http://www.w3.org/2000/svg" width="32" height="32" viewBox="0 0 32 32">
<g id="icomoon-ignore">
	<line stroke-width="1" x1="" y1="" x2="" y2="" stroke="#449FDB" opacity=""></line>
</g>
	<path d="M13.382 17.144h5.057v-1.060h-3.354v-0.566h2.723v-1.061h-2.723v-0.563h3.354v-1.061h-5.057v4.311zM4.37 14.305l-1.926-0.001v-1.472h-1.706v4.311h1.705v-1.752h1.926v1.752h1.705v-4.311h-1.704v1.473zM10.683 12.83v2.395c0 0.3 0 0.987-0.957 0.987-0.956 0-0.966-0.687-0.966-0.987v-2.395h-1.707l-0.001 2.351c0 1.463 0.47 2.111 2.666 2.165h0.010c2.197-0.054 2.666-0.703 2.666-2.165l-0.003-2.351h-1.708zM20.831 15c0.001-1.677 1.888-1.549 2.013-0.548h1.919c-0.184-1.554-1.445-1.806-2.895-1.812-1.674 0-2.899 0.567-2.903 2.36 0.004 1.792 1.227 2.359 2.902 2.359 1.45-0.009 2.709-0.276 2.906-1.839h-1.919c-0.078 1.001-2.020 1.192-2.022-0.52zM29.202 14.461l1.914-1.628h-2.213l-1.754 1.487v-1.487h-1.705v4.325l1.705-0.003 0.003-0.951 0.805-0.678 1.256 1.627h2.053l-2.063-2.692z" fill="#000000"></path>
</svg>
