<?xml version="1.0" encoding="utf-8"?>
<!-- Generated by IcoMoon.io -->
<!DOCTYPE svg PUBLIC "-//W3C//DTD SVG 1.1//EN" "http://www.w3.org/Graphics/SVG/1.1/DTD/svg11.dtd">
<svg xmlns:xlink="http://www.w3.org/1999/xlink" version="1.1" xmlns="http://www.w3.org/2000/svg" width="32" height="32" viewBox="0 0 32 32">
<g id="icomoon-ignore">
	<line stroke-width="1" x1="" y1="" x2="" y2="" stroke="#449FDB" opacity=""></line>
</g>
	<path d="M15.999 3.735c-6.763 0-12.265 5.503-12.265 12.264 0 6.766 5.501 12.266 12.265 12.266s12.266-5.5 12.266-12.266c0-6.761-5.501-12.264-12.266-12.264zM16.061 8.307c0.931 0 1.695 0.744 1.695 1.697 0 0.948-0.765 1.714-1.695 1.714-0.951 0-1.716-0.765-1.716-1.714 0-0.954 0.765-1.697 1.716-1.697zM19.199 22.982c0 0.23-0.243 0.71-0.492 0.71h-5.272c-0.247 0-0.636-0.48-0.636-0.71v-1.343c0-0.228 0.389-0.507 0.636-0.507h1.924v-6.4l-2.56-0.037v-1.344h5.12v7.781h0.788c0.247 0 0.492 0.28 0.492 0.507v1.343z" fill="#000000"></path>
</svg>
