<?xml version="1.0" encoding="utf-8"?>
<!-- Generated by IcoMoon.io -->
<!DOCTYPE svg PUBLIC "-//W3C//DTD SVG 1.1//EN" "http://www.w3.org/Graphics/SVG/1.1/DTD/svg11.dtd">
<svg xmlns:xlink="http://www.w3.org/1999/xlink" version="1.1" xmlns="http://www.w3.org/2000/svg" width="32" height="32" viewBox="0 0 32 32">
<g id="icomoon-ignore">
	<line stroke-width="1" x1="" y1="" x2="" y2="" stroke="#449FDB" opacity=""></line>
</g>
	<path d="M15.94 11.692c0.929 0 1.695-0.765 1.695-1.714 0-0.954-0.765-1.697-1.695-1.697-0.951 0-1.716 0.744-1.716 1.697 0 0.95 0.764 1.714 1.716 1.714zM18.586 21.107h-0.788v-7.782h-5.12v1.344l2.56 0.037v6.401h-1.924c-0.247 0-0.636 0.28-0.636 0.506v1.343c0 0.233 0.389 0.713 0.636 0.713h5.272c0.247 0 0.492-0.48 0.492-0.713v-1.343c-0.001-0.225-0.244-0.506-0.492-0.506zM16 2.57c-7.416 0-13.43 6.011-13.43 13.43 0 7.415 6.012 13.431 13.428 13.431s13.429-6.015 13.429-13.431c0-7.419-6.011-13.43-13.427-13.43zM16 27.465c-6.322 0-11.465-5.14-11.465-11.466 0-6.321 5.143-11.464 11.465-11.464 6.323 0 11.466 5.143 11.466 11.464-0.001 6.326-5.144 11.466-11.466 11.466z" fill="#000000"></path>
</svg>
