<?xml version="1.0" encoding="utf-8"?>
<!-- Generated by IcoMoon.io -->
<!DOCTYPE svg PUBLIC "-//W3C//DTD SVG 1.1//EN" "http://www.w3.org/Graphics/SVG/1.1/DTD/svg11.dtd">
<svg xmlns:xlink="http://www.w3.org/1999/xlink" version="1.1" xmlns="http://www.w3.org/2000/svg" width="32" height="32" viewBox="0 0 32 32">
<g id="icomoon-ignore">
	<line stroke-width="1" x1="" y1="" x2="" y2="" stroke="#449FDB" opacity=""></line>
</g>
	<path d="M23.649 13.312v-2.24c0-4.271-3.347-7.745-7.68-7.745-4.33 0-7.68 3.474-7.68 7.745v2.24h-2.071v15.36h19.564v-15.36h-2.133zM17.345 24.215h-2.89l0.735-4.195c-0.433-0.25-0.735-0.795-0.735-1.327 0-0.8 0.648-1.494 1.445-1.494 0.8 0 1.445 0.621 1.445 1.421 0 0.534-0.303 1.162-0.737 1.413l0.737 4.182zM19.809 13.312h-7.68v-2.24c0-2.305 1.473-4.253 3.839-4.253s3.841 1.948 3.841 4.253v2.24z" fill="#000000"></path>
</svg>
