<?xml version="1.0" encoding="utf-8"?>
<!-- Generated by IcoMoon.io -->
<!DOCTYPE svg PUBLIC "-//W3C//DTD SVG 1.1//EN" "http://www.w3.org/Graphics/SVG/1.1/DTD/svg11.dtd">
<svg xmlns:xlink="http://www.w3.org/1999/xlink" version="1.1" xmlns="http://www.w3.org/2000/svg" width="32" height="32" viewBox="0 0 32 32">
<g id="icomoon-ignore">
	<line stroke-width="1" x1="" y1="" x2="" y2="" stroke="#449FDB" opacity=""></line>
</g>
	<path d="M21.418 19.607c1.485-1.883 2.298-4.189 2.298-6.625 0-2.867-1.116-5.563-3.144-7.589-2.025-2.027-4.719-3.144-7.587-3.144-2.865 0-5.56 1.116-7.588 3.144-2.028 2.026-3.144 4.721-3.144 7.589 0 2.866 1.116 5.562 3.144 7.588 2.026 2.027 4.721 3.145 7.588 3.145 2.435 0 4.74-0.813 6.624-2.298l8.33 8.333 1.809-1.81-8.33-8.333zM18.762 18.761c-1.542 1.544-3.594 2.394-5.777 2.394s-4.234-0.85-5.778-2.394-2.394-3.597-2.394-5.779 0.85-4.236 2.394-5.779 3.595-2.394 5.778-2.394c2.184 0 4.234 0.85 5.777 2.394 1.545 1.544 2.394 3.596 2.394 5.779 0 2.184-0.849 4.236-2.394 5.779zM14.154 7.903h-2.559v3.84h-3.84v2.56h3.84v3.84h2.559v-3.84h3.839v-2.56h-3.839z" fill="#000000"></path>
</svg>
