<?xml version="1.0" encoding="utf-8"?>
<!-- Generated by IcoMoon.io -->
<!DOCTYPE svg PUBLIC "-//W3C//DTD SVG 1.1//EN" "http://www.w3.org/Graphics/SVG/1.1/DTD/svg11.dtd">
<svg xmlns:xlink="http://www.w3.org/1999/xlink" version="1.1" xmlns="http://www.w3.org/2000/svg" width="32" height="32" viewBox="0 0 32 32">
<g id="icomoon-ignore">
	<line stroke-width="1" x1="" y1="" x2="" y2="" stroke="#449FDB" opacity=""></line>
</g>
	<path d="M21.419 19.607c1.485-1.883 2.298-4.189 2.298-6.625 0-2.867-1.116-5.563-3.144-7.589-2.026-2.027-4.721-3.144-7.589-3.144-2.866 0-5.562 1.116-7.589 3.144-2.026 2.027-3.142 4.722-3.142 7.59s1.116 5.563 3.144 7.588c2.026 2.027 4.721 3.145 7.589 3.145 2.435 0 4.741-0.813 6.625-2.298l8.331 8.333 1.81-1.81-8.333-8.334zM18.764 18.761c-1.544 1.544-3.597 2.394-5.779 2.394-2.184 0-4.236-0.85-5.779-2.394s-2.394-3.597-2.394-5.779 0.85-4.236 2.394-5.779 3.597-2.394 5.779-2.394c2.184 0 4.236 0.85 5.779 2.394s2.394 3.597 2.394 5.779-0.85 4.236-2.394 5.779zM8.219 11.743h9.322v2.56h-9.322v-2.56z" fill="#000000"></path>
</svg>
