<?xml version="1.0" encoding="utf-8"?>
<!-- Generated by IcoMoon.io -->
<!DOCTYPE svg PUBLIC "-//W3C//DTD SVG 1.1//EN" "http://www.w3.org/Graphics/SVG/1.1/DTD/svg11.dtd">
<svg xmlns:xlink="http://www.w3.org/1999/xlink" version="1.1" xmlns="http://www.w3.org/2000/svg" width="32" height="32" viewBox="0 0 32 32">
<g id="icomoon-ignore">
	<line stroke-width="1" x1="" y1="" x2="" y2="" stroke="#449FDB" opacity=""></line>
</g>
	<path d="M25.701 9.023c-0.068-0.010-0.125-0.041-0.192-0.041h-19.018c-0.042 0-0.078 0.022-0.118 0.026l9.627 8.864 9.701-8.849zM26.774 9.916l-6.848 6.246 6.76 6.113c0.105-0.2 0.18-0.417 0.18-0.66v-11.229c0-0.168-0.040-0.321-0.092-0.47zM5.239 9.843c-0.068 0.166-0.108 0.351-0.108 0.543v11.229c0 0.205 0.047 0.396 0.125 0.571l6.825-6.047-6.843-6.296zM15.999 19.747l-2.895-2.662-6.685 5.92c0.026 0.001 0.047 0.015 0.073 0.015h18.958l-6.55-5.92-2.9 2.647z" fill="#000000"></path>
</svg>
