<?xml version="1.0" encoding="utf-8"?>
<!-- Generated by IcoMoon.io -->
<!DOCTYPE svg PUBLIC "-//W3C//DTD SVG 1.1//EN" "http://www.w3.org/Graphics/SVG/1.1/DTD/svg11.dtd">
<svg xmlns:xlink="http://www.w3.org/1999/xlink" version="1.1" xmlns="http://www.w3.org/2000/svg" width="32" height="32" viewBox="0 0 32 32">
<g id="icomoon-ignore">
	<line stroke-width="1" x1="" y1="" x2="" y2="" stroke="#449FDB" opacity=""></line>
</g>
	<path d="M3.069 7.768l0.027-0.104c0.372-1.034 1.295-2.205 2.531-3.206 1.005-0.81 2.193-0.232 2.906 0.113l0.305 0.142c0.794 0.338 2.303 5.073 2.336 5.673 0.005 0.087-0.004 0.184-0.024 0.278-0.132 0.648-0.836 1.453-2.239 3.037 0.794 1.833 3.103 4.406 4.449 5.599 1.463 1.299 3.953 2.925 5.769 3.457 1.627-1.841 2.318-2.604 3.016-2.646 0.602-0.037 5.482 0.892 5.912 1.638l0.179 0.283c0.353 0.549 0.89 1.38 0.709 2.262-0.041 0.214-0.128 0.419-0.246 0.613-0.847 1.345-1.896 2.404-2.883 2.897-0.502 0.252-8.643 0.91-15.862-5.487-6.807-6.031-7.112-13.439-6.885-14.549z" fill="#000000"></path>
</svg>
